0
SECTION
2
HEADER
9
$INSUNITS
70
4
9
$ACADVER
1
AC1014
9
$HANDSEED
5
FFFF
0
ENDSEC
0
SECTION
2
TABLES
0
TABLE
2
VPORT
5
8
100
AcDbSymbolTable
0
ENDTAB
0
TABLE
2
LTYPE
5
5
100
AcDbSymbolTable
0
LTYPE
5
14
100
AcDbSymbolTableRecord
100
AcDbLinetypeTableRecord
2
BYBLOCK
70
0
0
LTYPE
5
15
100
AcDbSymbolTableRecord
100
AcDbLinetypeTableRecord
2
BYLAYER
70
0
0
LTYPE
5
16
100
AcDbSymbolTableRecord
100
AcDbLinetypeTableRecord
2
DASHED
70
0
3
Dashed __ __ __ __ __ __ __ __ __ __ __ __ __ _
72
65
73
2
40
0.75
49
0.5
74
0
49
-0.25
74
0
0
ENDTAB
0
TABLE
2
LAYER
5
2
100
AcDbSymbolTable
70
2
0
LAYER
5
50
100
AcDbSymbolTableRecord
100
AcDbLayerTableRecord
2
0
70
0
62
7
6
CONTINUOUS
0
ENDTAB
0
TABLE
2
STYLE
5
3
100
AcDbSymbolTable
70
1
0
STYLE
5
11
100
AcDbSymbolTableRecord
100
AcDbTextStyleTableRecord
2
STANDARD
70
0
0
ENDTAB
0
TABLE
2
VIEW
5
6
100
AcDbSymbolTable
70
0
0
ENDTAB
0
TABLE
2
UCS
5
7
100
AcDbSymbolTable
70
0
0
ENDTAB
0
TABLE
2
APPID
5
9
100
AcDbSymbolTable
70
2
0
APPID
5
12
100
AcDbSymbolTableRecord
100
AcDbRegAppTableRecord
2
ACAD
70
0
0
ENDTAB
0
TABLE
2
DIMSTYLE
5
A
100
AcDbSymbolTable
70
1
0
ENDTAB
0
TABLE
2
BLOCK_RECORD
5
1
100
AcDbSymbolTable
70
1
0
BLOCK_RECORD
5
1F
100
AcDbSymbolTableRecord
100
AcDbBlockTableRecord
2
*MODEL_SPACE
0
BLOCK_RECORD
5
1B
100
AcDbSymbolTableRecord
100
AcDbBlockTableRecord
2
*PAPER_SPACE
0
ENDTAB
0
ENDSEC
0
SECTION
2
BLOCKS
0
BLOCK
5
20
100
AcDbEntity
100
AcDbBlockBegin
2
*MODEL_SPACE
0
ENDBLK
5
21
100
AcDbEntity
100
AcDbBlockEnd
0
BLOCK
5
1C
100
AcDbEntity
100
AcDbBlockBegin
2
*PAPER_SPACE
0
ENDBLK
5
1D
100
AcDbEntity
100
AcDbBlockEnd
0
ENDSEC
0
SECTION
2
ENTITIES
0
LWPOLYLINE
5
100
100
AcDbEntity
8
0
100
AcDbPolyline
90
12
70
1
43
0.0
10
-34.063665882187934
20
-2.9999999999999938
10
-19.629909152447294
20
-28.000000000000004
42
0.26794919243112414
10
-14.433756729740658
20
-31.000000000000007
10
14.433756729740651
20
-31.000000000000014
42
0.2679491924311217
10
19.629909152447286
20
-28.000000000000011
10
34.063665882187934
20
-3.0000000000000071
42
0.26794919243112264
10
34.063665882187934
20
2.9999999999999822
10
19.629909152447308
20
27.999999999999989
42
0.26794919243112131
10
14.433756729740674
20
30.999999999999996
10
-14.433756729740653
20
31.000000000000011
42
0.26794919243112209
10
-19.629909152447286
20
28.000000000000004
10
-34.063665882187934
20
3.0000000000000027
42
0.26794919243112386
0
LWPOLYLINE
5
101
100
AcDbEntity
8
0
100
AcDbPolyline
90
12
70
1
43
0.0
10
-26.558112382278249
20
5.9999999995658762
10
-29.444863727787002
20
0.99999999938069617
42
0.26794919243112475
10
-29.444863727623115
20
-1.0000000006193057
10
-26.558112381294926
20
-6.0000000003313838
42
0.26794919243112514
10
-24.826061573644104
20
-7.0000000001894538
10
-19.052558881807165
20
-6.9999999997163496
42
0.26794919243112192
10
-17.32050807432023
20
-5.9999999995744213
10
-14.433756728811481
20
-0.99999999938924178
42
0.26794919243112297
10
-14.433756728975368
20
1.0000000006107572
10
-17.320508075303554
20
6.0000000003228333
42
0.26794919243112192
10
-19.052558882954372
20
7.0000000001809051
10
-24.826061574791318
20
6.9999999997078035
42
0.26794919243112214
0
LWPOLYLINE
5
102
100
AcDbEntity
8
0
100
AcDbPolyline
90
12
70
1
43
0.0
10
-15.588457268124928
20
-12.999999999646903
10
-18.475208613633679
20
-17.999999999832081
42
0.2679491924311217
10
-18.4752086134698
20
-19.999999999832077
10
-15.588457267141608
20
-24.999999999544158
42
0.26794919243112525
10
-13.856406459490787
20
-25.999999999402235
10
-8.0829037676538462
20
-25.999999998929127
42
0.26794919243112475
10
-6.3508529601669137
20
-24.999999998787203
10
-3.4641016146581638
20
-19.999999998602021
42
0.26794919243112231
10
-3.4641016148220496
20
-17.999999998602018
10
-6.3508529611502347
20
-12.999999998889942
42
0.2679491924311227
10
-8.082903768801053
20
-11.99999999903187
10
-13.856406460637993
20
-11.999999999504972
42
0.26794919243112214
0
LWPOLYLINE
5
103
100
AcDbEntity
8
0
100
AcDbPolyline
90
12
70
1
43
0.0
10
6.3508529601743113
20
-12.999999999642633
10
3.4641016146655579
20
-17.999999999827811
42
0.26794919243112236
10
3.4641016148294428
20
-19.999999999827814
10
6.3508529611576314
20
-24.999999999539892
42
0.26794919243112153
10
8.0829037688084462
20
-25.999999999397964
10
13.85640646064539
20
-25.999999998924864
42
0.26794919243112431
10
15.588457268132325
20
-24.999999998782933
10
18.475208613641072
20
-19.999999998597751
42
0.26794919243112547
10
18.475208613477186
20
-17.999999998597755
10
15.588457267149
20
-12.999999998885677
42
0.26794919243112231
10
13.856406459498182
20
-11.999999999027605
10
8.0829037676612447
20
-11.999999999500703
42
0.26794919243112275
0
LINE
5
104
100
AcDbEntity
8
0
100
AcDbLine
10
-16.407969543773568
20
12.735451497720458
30
0
11
-17.162196876599491
21
12.630413820734116
31
0
0
LINE
5
105
100
AcDbEntity
8
0
100
AcDbLine
10
-17.162196876599491
20
12.63041382073412
30
0
11
-17.571093484595416
21
15.566512627359854
31
0
0
LINE
5
106
100
AcDbEntity
8
0
100
AcDbLine
10
-17.571093484595416
20
15.566512627359852
30
0
11
-20.902263933999919
21
15.102596258352111
31
0
0
LINE
5
107
100
AcDbEntity
8
0
100
AcDbLine
10
-20.902263933999919
20
15.102596258352111
30
0
11
-20.493367326003991
21
12.166497451726377
31
0
0
LINE
5
108
100
AcDbEntity
8
0
100
AcDbLine
10
-20.493367326003998
20
12.166497451726379
30
0
11
-21.247594585036289
21
12.061459785016929
31
0
0
LINE
5
109
100
AcDbEntity
8
0
100
AcDbLine
10
-21.247594585036286
20
12.061459785016929
30
0
11
-22.144166171813691
21
18.499328709617831
31
0
0
LINE
5
110
100
AcDbEntity
8
0
100
AcDbLine
10
-22.144166171813694
20
18.499328709617831
30
0
11
-21.389938912781403
21
18.604366376327285
31
0
0
LINE
5
111
100
AcDbEntity
8
0
100
AcDbLine
10
-21.389938912781403
20
18.604366376327281
30
0
11
-20.99667288040451
21
15.780503556805602
31
0
0
LINE
5
112
100
AcDbEntity
8
0
100
AcDbLine
10
-20.99667288040451
20
15.780503556805602
30
0
11
-17.665502431000007
21
16.244419925813343
31
0
0
LINE
5
113
100
AcDbEntity
8
0
100
AcDbLine
10
-17.665502431000007
20
16.244419925813339
30
0
11
-18.058768463376897
21
19.068282745335019
31
0
0
LINE
5
114
100
AcDbEntity
8
0
100
AcDbLine
10
-18.058768463376897
20
19.068282745335022
30
0
11
-17.304541130550973
21
19.173320422321364
31
0
0
LINE
5
115
100
AcDbEntity
8
0
100
AcDbLine
10
-17.304541130550973
20
19.17332042232136
30
0
11
-16.407969543773568
21
12.735451497720458
31
0
0
LINE
5
116
100
AcDbEntity
8
0
100
AcDbLine
10
-11.183469779179024
20
15.166496477370789
30
0
11
-14.456739127180484
21
15.006111670645353
31
0
0
SPLINE
5
117
100
AcDbEntity
8
0
100
AcDbSpline
70
0
71
2
72
6
73
3
74
0
42
0.000000001
43
0.0000000001
44
0.0000000001
40
0
40
0
40
0
40
1
40
1
40
1
10
-14.456739127180484
20
15.006111670645353
30
0
10
-14.400696516960176
20
14.232823012201525
30
0
10
-13.981659816256576
20
13.831301499782992
30
0
0
SPLINE
5
118
100
AcDbEntity
8
0
100
AcDbSpline
70
0
71
2
72
6
73
3
74
0
42
0.000000001
43
0.0000000001
44
0.0000000001
40
0
40
0
40
0
40
1
40
1
40
1
10
-13.981659816256576
20
13.831301499782992
30
0
10
-13.562623264386032
20
13.429779980071878
30
0
10
-12.865412427674679
20
13.463942162710808
30
0
0
SPLINE
5
119
100
AcDbEntity
8
0
100
AcDbSpline
70
0
71
2
72
6
73
3
74
0
42
0.000000001
43
0.0000000001
44
0.0000000001
40
0
40
0
40
0
40
1
40
1
40
1
10
-12.865412427674679
20
13.463942162710808
30
0
10
-12.082182037356146
20
13.502319161795658
30
0
10
-11.451006125327394
20
14.050602177915163
30
0
0
LINE
5
120
100
AcDbEntity
8
0
100
AcDbLine
10
-11.451006125327394
20
14.050602177915163
30
0
11
-11.416843913518168
21
13.353390745871582
31
0
0
SPLINE
5
121
100
AcDbEntity
8
0
100
AcDbSpline
70
0
71
2
72
6
73
3
74
0
42
0.000000001
43
0.0000000001
44
0.0000000001
40
0
40
0
40
0
40
1
40
1
40
1
10
-11.416843913518168
20
13.353390745871582
30
0
10
-12.006295623200266
20
12.879763702195696
30
0
10
-13.011365852260241
20
12.830516916399809
30
0
0
SPLINE
5
122
100
AcDbEntity
8
0
100
AcDbSpline
70
0
71
2
72
6
73
3
74
0
42
0.000000001
43
0.0000000001
44
0.0000000001
40
0
40
0
40
0
40
1
40
1
40
1
10
-13.011365852260241
20
12.830516916399809
30
0
10
-13.993799317520153
20
12.782379294745631
30
0
10
-14.586135575665754
20
13.386436821332399
30
0
0
SPLINE
5
123
100
AcDbEntity
8
0
100
AcDbSpline
70
0
71
2
72
6
73
3
74
0
42
0.000000001
43
0.0000000001
44
0.0000000001
40
0
40
0
40
0
40
1
40
1
40
1
10
-14.586135575665754
20
13.386436821332399
30
0
10
-15.178471767432789
20
13.990493754410082
30
0
10
-15.234595363614705
20
15.135911770197389
30
0
0
SPLINE
5
124
100
AcDbEntity
8
0
100
AcDbSpline
70
0
71
2
72
6
73
3
74
0
42
0.000000001
43
0.0000000001
44
0.0000000001
40
0
40
0
40
0
40
1
40
1
40
1
10
-15.234595363614705
20
15.135911770197389
30
0
10
-15.287613314784982
20
16.21794714501063
30
0
10
-14.707544104063706
20
16.929370903574899
30
0
0
SPLINE
5
125
100
AcDbEntity
8
0
100
AcDbSpline
70
0
71
2
72
6
73
3
74
0
42
0.000000001
43
0.0000000001
44
0.0000000001
40
0
40
0
40
0
40
1
40
1
40
1
10
-14.707544104063706
20
16.929370903574899
30
0
10
-14.127474826963869
20
17.640794068630083
30
0
10
-13.2174788570311
20
17.685382372323364
30
0
0
SPLINE
5
126
100
AcDbEntity
8
0
100
AcDbSpline
70
0
71
2
72
6
73
3
74
0
42
0.000000001
43
0.0000000001
44
0.0000000001
40
0
40
0
40
0
40
1
40
1
40
1
10
-13.2174788570311
20
17.685382372323364
30
0
10
-12.307482887098331
20
17.729970676016645
30
0
10
-11.780636752566283
20
17.165817277575538
30
0
0
SPLINE
5
127
100
AcDbEntity
8
0
100
AcDbSpline
70
0
71
2
72
6
73
3
74
0
42
0.000000001
43
0.0000000001
44
0.0000000001
40
0
40
0
40
0
40
1
40
1
40
1
10
-11.780636752566283
20
17.165817277575538
30
0
10
-11.253790647204534
20
16.601664474466663
30
0
10
-11.202547387831292
20
15.555848517065748
30
0
0
LINE
5
128
100
AcDbEntity
8
0
100
AcDbLine
10
-11.202547387831292
20
15.555848517065748
30
0
11
-11.183469779179024
21
15.166496477370789
31
0
0
SPLINE
5
129
100
AcDbEntity
8
0
100
AcDbSpline
70
0
71
2
72
6
73
3
74
0
42
0.000000001
43
0.0000000001
44
0.0000000001
40
0
40
0
40
0
40
1
40
1
40
1
10
-11.974898252036926
20
15.758529329279295
30
0
10
-12.010925971499116
20
16.401190688081808
30
0
10
-12.33404637002735
20
16.743877128861008
30
0
0
SPLINE
5
130
100
AcDbEntity
8
0
100
AcDbSpline
70
0
71
2
72
6
73
3
74
0
42
0.000000001
43
0.0000000001
44
0.0000000001
40
0
40
0
40
0
40
1
40
1
40
1
10
-12.33404637002735
20
16.743877128861008
30
0
10
-12.657166768555584
20
17.086563569640209
30
0
10
-13.200447909092626
20
17.059943688579761
30
0
0
SPLINE
5
131
100
AcDbEntity
8
0
100
AcDbSpline
70
0
71
2
72
6
73
3
74
0
42
0.000000001
43
0.0000000001
44
0.0000000001
40
0
40
0
40
0
40
1
40
1
40
1
10
-13.200447909092626
20
17.059943688579761
30
0
10
-13.725619787422673
20
17.034211131540108
30
0
10
-14.073922528528884
20
16.640473173991523
30
0
0
SPLINE
5
132
100
AcDbEntity
8
0
100
AcDbSpline
70
0
71
2
72
6
73
3
74
0
42
0.000000001
43
0.0000000001
44
0.0000000001
40
0
40
0
40
0
40
1
40
1
40
1
10
-14.073922528528884
20
16.640473173991523
30
0
10
-14.422225269635094
20
16.246735216442939
30
0
10
-14.478519267999889
20
15.635856023153686
30
0
0
LINE
5
133
100
AcDbEntity
8
0
100
AcDbLine
10
-14.478519267999889
20
15.635856023153686
30
0
11
-11.974898252036926
21
15.758529329279295
31
0
0
LINE
5
134
100
AcDbEntity
8
0
100
AcDbLine
10
-6.4604577991826817
20
17.589983601522746
30
0
11
-8.0715959741164021
21
15.277286586904957
31
0
0
LINE
5
135
100
AcDbEntity
8
0
100
AcDbLine
10
-8.0715959741164021
20
15.277286586904955
30
0
11
-6.5909369708839556
21
12.950176700288621
31
0
0
LINE
5
136
100
AcDbEntity
8
0
100
AcDbLine
10
-6.5909369708839574
20
12.950176700288623
30
0
11
-7.4564824312646483
21
12.969442553613675
31
0
0
LINE
5
137
100
AcDbEntity
8
0
100
AcDbLine
10
-7.4564824312646483
20
12.969442553613675
30
0
11
-8.333856509081043
21
14.494225825623936
31
0
0
SPLINE
5
138
100
AcDbEntity
8
0
100
AcDbSpline
70
0
71
2
72
6
73
3
74
0
42
0.000000001
43
0.0000000001
44
0.0000000001
40
0
40
0
40
0
40
1
40
1
40
1
10
-8.333856509081043
20
14.494225825623934
30
0
10
-8.4168310113520093
20
14.636623690824514
30
0
10
-8.5299131131814718
20
14.852233625018965
30
0
0
LINE
5
139
100
AcDbEntity
8
0
100
AcDbLine
10
-8.5299131131814718
20
14.852233625018965
30
0
11
-8.548039760240151
21
14.852637099289808
31
0
0
SPLINE
5
140
100
AcDbEntity
8
0
100
AcDbSpline
70
0
71
2
72
6
73
3
74
0
42
0.000000001
43
0.0000000001
44
0.0000000001
40
0
40
0
40
0
40
1
40
1
40
1
10
-8.548039760240151
20
14.852637099289808
30
0
10
-8.5716057272502653
20
14.812356929854493
30
0
10
-8.7688951446410801
20
14.503909188228302
30
0
0
LINE
5
141
100
AcDbEntity
8
0
100
AcDbLine
10
-8.7688951446410801
20
14.503909188228302
30
0
11
-9.7313721678875673
21
13.020078475125143
31
0
0
LINE
5
142
100
AcDbEntity
8
0
100
AcDbLine
10
-9.7313721678875673
20
13.020078475125143
30
0
11
-10.587854537511905
21
13.039142596495982
31
0
0
LINE
5
143
100
AcDbEntity
8
0
100
AcDbLine
10
-10.587854537511905
20
13.039142596495982
30
0
11
-8.9556718537760371
21
15.278829274074115
31
0
0
LINE
5
144
100
AcDbEntity
8
0
100
AcDbLine
10
-8.9556718537760371
20
15.278829274074115
30
0
11
-10.416590549592392
21
17.678041683729436
31
0
0
LINE
5
145
100
AcDbEntity
8
0
100
AcDbLine
10
-10.416590549592392
20
17.678041683729436
30
0
11
-9.5510448657496347
21
17.658775825430425
31
0
0
LINE
5
146
100
AcDbEntity
8
0
100
AcDbLine
10
-9.5510448657496347
20
17.658775825430425
30
0
11
-8.6890815365249132
21
16.052726144523483
31
0
0
SPLINE
5
147
100
AcDbEntity
8
0
100
AcDbSpline
70
0
71
2
72
6
73
3
74
0
42
0.000000001
43
0.0000000001
44
0.0000000001
40
0
40
0
40
0
40
1
40
1
40
1
10
-8.6890815365249132
20
16.052726144523479
30
0
10
-8.5933191597402256
20
15.873771786919535
30
0
10
-8.5022900129850818
20
15.685855864886257
30
0
0
LINE
5
148
100
AcDbEntity
8
0
100
AcDbLine
10
-8.5022900129850818
20
15.685855864886257
30
0
11
-8.4841633659264009
21
15.685452390615415
31
0
0
LINE
5
149
100
AcDbEntity
8
0
100
AcDbLine
10
-8.4841633659264009
20
15.685452390615415
30
0
11
-7.2806869398660981
21
17.608240775802638
31
0
0
LINE
5
150
100
AcDbEntity
8
0
100
AcDbLine
10
-7.2806869398660989
20
17.608240775802638
30
0
11
-6.4604577991826826
21
17.589983601522746
31
0
0
LINE
5
151
100
AcDbEntity
8
0
100
AcDbLine
10
1.5548030701723281
20
12.017900612215822
30
0
11
0.65694814700312665
21
12.143196852726172
31
0
0
LINE
5
152
100
AcDbEntity
8
0
100
AcDbLine
10
0.65694814700312576
20
12.143196852726172
30
0
11
-0.16863206134177133
21
14.098240415313622
31
0
0
SPLINE
5
153
100
AcDbEntity
8
0
100
AcDbSpline
70
0
71
2
72
6
73
3
74
0
42
0.000000001
43
0.0000000001
44
0.0000000001
40
0
40
0
40
0
40
1
40
1
40
1
10
-0.16863206134177133
20
14.098240415313622
30
0
10
-0.28169508418125155
20
14.370312878257971
30
0
10
-0.39611659937355548
20
14.567060667036047
30
0
0
SPLINE
5
154
100
AcDbEntity
8
0
100
AcDbSpline
70
0
71
2
72
6
73
3
74
0
42
0.000000001
43
0.0000000001
44
0.0000000001
40
0
40
0
40
0
40
1
40
1
40
1
10
-0.39611659937355548
20
14.567060667036047
30
0
10
-0.51053798416360652
20
14.763807233971839
30
0
10
-0.64077735122353041
20
14.896400073083708
30
0
0
SPLINE
5
155
100
AcDbEntity
8
0
100
AcDbSpline
70
0
71
2
72
6
73
3
74
0
42
0.000000001
43
0.0000000001
44
0.0000000001
40
0
40
0
40
0
40
1
40
1
40
1
10
-0.64077735122353041
20
14.896400073083708
30
0
10
-0.77101671828345431
20
15.02899291219558
30
0
10
-0.9321599299554495
20
15.104112318407154
30
0
0
SPLINE
5
156
100
AcDbEntity
8
0
100
AcDbSpline
70
0
71
2
72
6
73
3
74
0
42
0.000000001
43
0.0000000001
44
0.0000000001
40
0
40
0
40
0
40
1
40
1
40
1
10
-0.9321599299554495
20
15.104112318407154
30
0
10
-1.0933031416274455
20
15.179231724618729
30
0
10
-1.3042989526442252
20
15.208676327751849
30
0
0
LINE
5
157
100
AcDbEntity
8
0
100
AcDbLine
10
-1.3042989526442252
20
15.208676327751849
30
0
11
-1.9238186872913119
21
15.295130711049385
31
0
0
LINE
5
158
100
AcDbEntity
8
0
100
AcDbLine
10
-1.9238186872913119
20
15.295130711049385
30
0
11
-2.3059720663846592
21
12.556674302244655
31
0
0
LINE
5
159
100
AcDbEntity
8
0
100
AcDbLine
10
-2.3059720663846592
20
12.556674302244657
30
0
11
-3.0601698919256144
21
12.66192310102365
31
0
0
LINE
5
160
100
AcDbEntity
8
0
100
AcDbLine
10
-3.0601698919256148
20
12.66192310102365
30
0
11
-2.1617961419762777
21
19.099540789731215
31
0
0
LINE
5
161
100
AcDbEntity
8
0
100
AcDbLine
10
-2.1617961419762772
20
19.099540789731211
30
0
11
-0.24038735905989428
21
18.83140694007405
31
0
0
SPLINE
5
162
100
AcDbEntity
8
0
100
AcDbSpline
70
0
71
2
72
6
73
3
74
0
42
0.000000001
43
0.0000000001
44
0.0000000001
40
0
40
0
40
0
40
1
40
1
40
1
10
-0.24038735905989456
20
18.83140694007405
30
0
10
0.18160426297366583
20
18.772517733807813
30
0
10
0.52377923648166569
20
18.617214731090495
30
0
0
SPLINE
5
163
100
AcDbEntity
8
0
100
AcDbSpline
70
0
71
2
72
6
73
3
74
0
42
0.000000001
43
0.0000000001
44
0.0000000001
40
0
40
0
40
0
40
1
40
1
40
1
10
0.52377923648166569
20
18.617214731090495
30
0
10
0.86595412760928137
20
18.461911138047132
30
0
10
1.0985055430065738
20
18.209777054109843
30
0
0
SPLINE
5
164
100
AcDbEntity
8
0
100
AcDbSpline
70
0
71
2
72
6
73
3
74
0
42
0.000000001
43
0.0000000001
44
0.0000000001
40
0
40
0
40
0
40
1
40
1
40
1
10
1.0985055430065738
20
18.209777054109843
30
0
10
1.3310569584038663
20
17.957642970172557
30
0
10
1.434409393369565
20
17.615985824608615
30
0
0
SPLINE
5
165
100
AcDbEntity
8
0
100
AcDbSpline
70
0
71
2
72
6
73
3
74
0
42
0.000000001
43
0.0000000001
44
0.0000000001
40
0
40
0
40
0
40
1
40
1
40
1
10
1.434409393369565
20
17.615985824608615
30
0
10
1.5377622058786717
20
17.274329228180527
30
0
10
1.4776199939576262
20
16.843358746994099
30
0
0
SPLINE
5
166
100
AcDbEntity
8
0
100
AcDbSpline
70
0
71
2
72
6
73
3
74
0
42
0.000000001
43
0.0000000001
44
0.0000000001
40
0
40
0
40
0
40
1
40
1
40
1
10
1.4776199939576262
20
16.843358746994099
30
0
10
1.4306339295101149
20
16.506663335282539
30
0
10
1.2904702385603235
20
16.240179546469484
30
0
0
SPLINE
5
167
100
AcDbEntity
8
0
100
AcDbSpline
70
0
71
2
72
6
73
3
74
0
42
0.000000001
43
0.0000000001
44
0.0000000001
40
0
40
0
40
0
40
1
40
1
40
1
10
1.2904702385603235
20
16.240179546469484
30
0
10
1.1503065476105316
20
15.973695757656428
30
0
10
0.93330414617733171
20
15.779720343802786
30
0
0
SPLINE
5
168
100
AcDbEntity
8
0
100
AcDbSpline
70
0
71
2
72
6
73
3
74
0
42
0.000000001
43
0.0000000001
44
0.0000000001
40
0
40
0
40
0
40
1
40
1
40
1
10
0.93330414617733171
20
15.779720343802786
30
0
10
0.71630174474413166
20
15.585744929949144
30
0
10
0.43206561726438497
20
15.467513765840692
30
0
0
SPLINE
5
169
100
AcDbEntity
8
0
100
AcDbSpline
70
0
71
2
72
6
73
3
74
0
42
0.000000001
43
0.0000000001
44
0.0000000001
40
0
40
0
40
0
40
1
40
1
40
1
10
0.43206561726438497
20
15.467513765840692
30
0
10
0.14782965454540775
20
15.34928378238433
30
0
10
-0.19179033499503895
20
15.309720672045231
30
0
0
LINE
5
170
100
AcDbEntity
8
0
100
AcDbLine
10
-0.19179033499503895
20
15.309720672045231
30
0
11
-0.19429634630465015
21
15.291762953739498
31
0
0
SPLINE
5
171
100
AcDbEntity
8
0
100
AcDbSpline
70
0
71
2
72
6
73
3
74
0
42
0.000000001
43
0.0000000001
44
0.0000000001
40
0
40
0
40
0
40
1
40
1
40
1
10
-0.19429634630464987
20
15.291762953739498
30
0
10
-0.042706500530423908
20
15.197381163838099
30
0
10
0.063416478473475868
20
15.088749946377042
30
0
0
SPLINE
5
172
100
AcDbEntity
8
0
100
AcDbSpline
70
0
71
2
72
6
73
3
74
0
42
0.000000001
43
0.0000000001
44
0.0000000001
40
0
40
0
40
0
40
1
40
1
40
1
10
0.063416478473475868
20
15.088749946377042
30
0
10
0.16953929271660506
20
14.980117548263891
30
0
10
0.25974064047052381
20
14.839382669156775
30
0
0
SPLINE
5
173
100
AcDbEntity
8
0
100
AcDbSpline
70
0
71
2
72
6
73
3
74
0
42
0.000000001
43
0.0000000001
44
0.0000000001
40
0
40
0
40
0
40
1
40
1
40
1
10
0.25974064047052381
20
14.839382669156775
30
0
10
0.3499416930614202
20
14.69864783123985
30
0
10
0.43319930084877112
20
14.524555818076406
30
0
0
SPLINE
5
174
100
AcDbEntity
8
0
100
AcDbSpline
70
0
71
2
72
6
73
3
74
0
42
0.000000001
43
0.0000000001
44
0.0000000001
40
0
40
0
40
0
40
1
40
1
40
1
10
0.43319930084877112
20
14.524555818076406
30
0
10
0.51645728617953024
20
14.35046435404881
30
0
10
0.61720175450781734
20
14.12130087405326
30
0
0
LINE
5
175
100
AcDbEntity
8
0
100
AcDbLine
10
0.61720175450781734
20
14.12130087405326
30
0
11
1.5548030701723272
21
12.017900612215822
31
0
0
LINE
5
176
100
AcDbEntity
8
0
100
AcDbLine
10
-1.5028234509851499
20
18.311922308376229
30
0
11
-1.8285935527414838
21
15.977500393625373
31
0
0
LINE
5
177
100
AcDbEntity
8
0
100
AcDbLine
10
-1.8285935527414841
20
15.977500393625373
30
0
11
-0.80503932404052392
21
15.834662732990823
31
0
0
SPLINE
5
178
100
AcDbEntity
8
0
100
AcDbSpline
70
0
71
2
72
6
73
3
74
0
42
0.000000001
43
0.0000000001
44
0.0000000001
40
0
40
0
40
0
40
1
40
1
40
1
10
-0.80503932404052381
20
15.834662732990825
30
0
10
-0.52221500110499885
20
15.795194414140799
30
0
10
-0.27013593667476743
20
15.846973917712329
30
0
0
SPLINE
5
179
100
AcDbEntity
8
0
100
AcDbSpline
70
0
71
2
72
6
73
3
74
0
42
0.000000001
43
0.0000000001
44
0.0000000001
40
0
40
0
40
0
40
1
40
1
40
1
10
-0.27013593667476743
20
15.846973917712329
30
0
10
-0.018056577081513314
20
15.89875338009367
30
0
10
0.17926504573503699
20
16.033689776684938
30
0
0
SPLINE
5
180
100
AcDbEntity
8
0
100
AcDbSpline
70
0
71
2
72
6
73
3
74
0
42
0.000000001
43
0.0000000001
44
0.0000000001
40
0
40
0
40
0
40
1
40
1
40
1
10
0.17926504573503699
20
16.033689776684938
30
0
10
0.37658696371460909
20
16.168626132086015
30
0
10
0.50761465591590893
20
16.386041217950147
30
0
0
SPLINE
5
181
100
AcDbEntity
8
0
100
AcDbSpline
70
0
71
2
72
6
73
3
74
0
42
0.000000001
43
0.0000000001
44
0.0000000001
40
0
40
0
40
0
40
1
40
1
40
1
10
0.50761465591590893
20
16.386041217950147
30
0
10
0.63864234811720821
20
16.60345630381428
30
0
10
0.67873712860444357
20
16.890769761163213
30
0
0
SPLINE
5
182
100
AcDbEntity
8
0
100
AcDbSpline
70
0
71
2
72
6
73
3
74
0
42
0.000000001
43
0.0000000001
44
0.0000000001
40
0
40
0
40
0
40
1
40
1
40
1
10
0.67873712860444357
20
16.890769761163213
30
0
10
0.75078239996383245
20
17.407035862345591
30
0
10
0.45673977613161665
20
17.743267142679578
30
0
0
SPLINE
5
183
100
AcDbEntity
8
0
100
AcDbSpline
70
0
71
2
72
6
73
3
74
0
42
0.000000001
43
0.0000000001
44
0.0000000001
40
0
40
0
40
0
40
1
40
1
40
1
10
0.45673977613161665
20
17.743267142679578
30
0
10
0.16269677475599265
20
18.079497873877706
30
0
10
-0.47029065829434641
20
18.167831683277068
30
0
0
LINE
5
184
100
AcDbEntity
8
0
100
AcDbLine
10
-0.47029065829434641
20
18.167831683277068
30
0
11
-1.5028234509851495
21
18.311922308376229
31
0
0
SPLINE
5
185
100
AcDbEntity
8
0
100
AcDbSpline
70
0
71
2
72
6
73
3
74
0
42
0.000000001
43
0.0000000001
44
0.0000000001
40
0
40
0
40
0
40
1
40
1
40
1
10
4.1987515179586374
20
11.303730915780719
30
0
10
3.1956391621489786
20
11.532822570996558
30
0
10
2.7416873306261329
20
12.303697560115474
30
0
0
SPLINE
5
186
100
AcDbEntity
8
0
100
AcDbSpline
70
0
71
2
72
6
73
3
74
0
42
0.000000001
43
0.0000000001
44
0.0000000001
40
0
40
0
40
0
40
1
40
1
40
1
10
2.7416873306261329
20
12.303697560115474
30
0
10
2.2877354027124124
20
13.074571959855103
30
0
10
2.5269191886143489
20
14.121874231609686
30
0
0
SPLINE
5
187
100
AcDbEntity
8
0
100
AcDbSpline
70
0
71
2
72
6
73
3
74
0
42
0.000000001
43
0.0000000001
44
0.0000000001
40
0
40
0
40
0
40
1
40
1
40
1
10
2.5269191886143489
20
14.121874231609686
30
0
10
2.7872965518063255
20
15.261975777189484
30
0
10
3.556711360243793
20
15.760431411164809
30
0
0
SPLINE
5
188
100
AcDbEntity
8
0
100
AcDbSpline
70
0
71
2
72
6
73
3
74
0
42
0.000000001
43
0.0000000001
44
0.0000000001
40
0
40
0
40
0
40
1
40
1
40
1
10
3.556711360243793
20
15.760431411164809
30
0
10
4.3261259270191363
20
16.258886488938025
30
0
10
5.386685217138572
20
16.016675053877105
30
0
0
SPLINE
5
189
100
AcDbEntity
8
0
100
AcDbSpline
70
0
71
2
72
6
73
3
74
0
42
0.000000001
43
0.0000000001
44
0.0000000001
40
0
40
0
40
0
40
1
40
1
40
1
10
5.386685217138572
20
16.016675053877105
30
0
10
6.3986357304627139
20
15.785564932711441
30
0
10
6.824177649324267
20
15.032802029647897
30
0
0
SPLINE
5
190
100
AcDbEntity
8
0
100
AcDbSpline
70
0
71
2
72
6
73
3
74
0
42
0.000000001
43
0.0000000001
44
0.0000000001
40
0
40
0
40
0
40
1
40
1
40
1
10
6.824177649324267
20
15.032802029647897
30
0
10
7.2497194103520082
20
14.280039774023688
30
0
10
6.9974157782506481
20
13.175290277416831
30
0
0
SPLINE
5
191
100
AcDbEntity
8
0
100
AcDbSpline
70
0
71
2
72
6
73
3
74
0
42
0.000000001
43
0.0000000001
44
0.0000000001
40
0
40
0
40
0
40
1
40
1
40
1
10
6.9974157782506481
20
13.175290277416831
30
0
10
6.750158261258095
20
12.092635956689307
30
0
10
5.9892682248680167
20
11.580610233422025
30
0
0
SPLINE
5
192
100
AcDbEntity
8
0
100
AcDbSpline
70
0
71
2
72
6
73
3
74
0
42
0.000000001
43
0.0000000001
44
0.0000000001
40
0
40
0
40
0
40
1
40
1
40
1
10
5.9892682248680167
20
11.580610233422025
30
0
10
5.2283777652267531
20
11.06858399542409
30
0
10
4.1987515179586374
20
11.303730915780719
30
0
0
SPLINE
5
193
100
AcDbEntity
8
0
100
AcDbSpline
70
0
71
2
72
6
73
3
74
0
42
0.000000001
43
0.0000000001
44
0.0000000001
40
0
40
0
40
0
40
1
40
1
40
1
10
5.1943859046802441
20
15.418964192087978
30
0
10
4.4961842449059395
20
15.578420082533109
30
0
10
3.9811460074660925
20
15.196225577201417
30
0
0
SPLINE
5
194
100
AcDbEntity
8
0
100
AcDbSpline
70
0
71
2
72
6
73
3
74
0
42
0.000000001
43
0.0000000001
44
0.0000000001
40
0
40
0
40
0
40
1
40
1
40
1
10
3.9811460074660925
20
15.196225577201417
30
0
10
3.4661076247549967
20
14.814031105046897
30
0
10
3.2753660926880719
20
13.978840546044953
30
0
0
SPLINE
5
195
100
AcDbEntity
8
0
100
AcDbSpline
70
0
71
2
72
6
73
3
74
0
42
0.000000001
43
0.0000000001
44
0.0000000001
40
0
40
0
40
0
40
1
40
1
40
1
10
3.2753660926880719
20
13.978840546044953
30
0
10
3.0916890421482646
20
13.174582884623081
30
0
10
3.3966882515070473
20
12.616731333886612
30
0
0
SPLINE
5
196
100
AcDbEntity
8
0
100
AcDbSpline
70
0
71
2
72
6
73
3
74
0
42
0.000000001
43
0.0000000001
44
0.0000000001
40
0
40
0
40
0
40
1
40
1
40
1
10
3.3966882515070473
20
12.616731333886612
30
0
10
3.7016876061370803
20
12.058879749972974
30
0
10
4.3910512536681505
20
11.901442292300498
30
0
0
SPLINE
5
197
100
AcDbEntity
8
0
100
AcDbSpline
70
0
71
2
72
6
73
3
74
0
42
0.000000001
43
0.0000000001
44
0.0000000001
40
0
40
0
40
0
40
1
40
1
40
1
10
4.3910512536681505
20
11.901442292300498
30
0
10
5.0936716290215749
20
11.740977251823384
30
0
10
5.5754451206050675
20
12.109846304260039
30
0
0
SPLINE
5
198
100
AcDbEntity
8
0
100
AcDbSpline
70
0
71
2
72
6
73
3
74
0
42
0.000000001
43
0.0000000001
44
0.0000000001
40
0
40
0
40
0
40
1
40
1
40
1
10
5.5754451206050675
20
12.109846304260039
30
0
10
6.0572184794798734
20
12.478714775611696
30
0
10
6.2489692611102976
20
13.318324486006507
30
0
0
SPLINE
5
199
100
AcDbEntity
8
0
100
AcDbSpline
70
0
71
2
72
6
73
3
74
0
42
0.000000001
43
0.0000000001
44
0.0000000001
40
0
40
0
40
0
40
1
40
1
40
1
10
6.2489692611102976
20
13.318324486006507
30
0
10
6.4427384091590323
20
14.166771918102057
30
0
10
6.169872278242007
20
14.712635244313963
30
0
0
SPLINE
5
200
100
AcDbEntity
8
0
100
AcDbSpline
70
0
71
2
72
6
73
3
74
0
42
0.000000001
43
0.0000000001
44
0.0000000001
40
0
40
0
40
0
40
1
40
1
40
1
10
6.169872278242007
20
14.712635244313963
30
0
10
5.8970062800336684
20
15.258499151610865
30
0
10
5.1943859046802441
20
15.418964192087978
30
0
0
LINE
5
201
100
AcDbEntity
8
0
100
AcDbLine
10
8.5505315662112729
20
10.97529585930014
30
0
11
8.533262803139241
21
10.980821069435436
31
0
0
LINE
5
202
100
AcDbEntity
8
0
100
AcDbLine
10
8.533262803139241
20
10.980821069435436
30
0
11
8.3288303914069282
21
10.341877971163447
31
0
0
LINE
5
203
100
AcDbEntity
8
0
100
AcDbLine
10
8.3288303914069282
20
10.341877971163447
30
0
11
7.6208125246951122
21
10.568411132618536
31
0
0
LINE
5
204
100
AcDbEntity
8
0
100
AcDbLine
10
7.6208125246951113
20
10.568411132618536
30
0
11
9.7148629883254731
21
17.113259279896909
31
0
0
LINE
5
205
100
AcDbEntity
8
0
100
AcDbLine
10
9.7148629883254749
20
17.113259279896909
30
0
11
10.422880855037292
21
16.886726118441821
31
0
0
LINE
5
206
100
AcDbEntity
8
0
100
AcDbLine
10
10.422880855037292
20
16.886726118441821
30
0
11
9.4946473686757482
21
13.985579599306423
31
0
0
LINE
5
207
100
AcDbEntity
8
0
100
AcDbLine
10
9.4946473686757464
20
13.985579599306421
30
0
11
9.5119161317477801
21
13.980054389171126
31
0
0
SPLINE
5
208
100
AcDbEntity
8
0
100
AcDbSpline
70
0
71
2
72
6
73
3
74
0
42
0.000000001
43
0.0000000001
44
0.0000000001
40
0
40
0
40
0
40
1
40
1
40
1
10
9.5119161317477801
20
13.980054389171126
30
0
10
10.31608025127319
20
14.693622359435894
30
0
10
11.321983429432658
20
14.371779595602172
30
0
0
SPLINE
5
209
100
AcDbEntity
8
0
100
AcDbSpline
70
0
71
2
72
6
73
3
74
0
42
0.000000001
43
0.0000000001
44
0.0000000001
40
0
40
0
40
0
40
1
40
1
40
1
10
11.321983429432658
20
14.371779595602172
30
0
10
12.17246844956459
20
14.099663495940096
30
0
10
12.463905585267952
20
13.352036034332723
30
0
0
SPLINE
5
210
100
AcDbEntity
8
0
100
AcDbSpline
70
0
71
2
72
6
73
3
74
0
42
0.000000001
43
0.0000000001
44
0.0000000001
40
0
40
0
40
0
40
1
40
1
40
1
10
12.463905585267952
20
13.352036034332723
30
0
10
12.75534272097131
20
12.604408572725347
30
0
10
12.436262425977628
20
11.607139350329444
30
0
0
SPLINE
5
211
100
AcDbEntity
8
0
100
AcDbSpline
70
0
71
2
72
6
73
3
74
0
42
0.000000001
43
0.0000000001
44
0.0000000001
40
0
40
0
40
0
40
1
40
1
40
1
10
12.436262425977628
20
11.607139350329444
30
0
10
12.08126835592293
20
10.497623451813627
30
0
10
11.328209784121015
20
10.003281609147681
30
0
0
SPLINE
5
212
100
AcDbEntity
8
0
100
AcDbSpline
70
0
71
2
72
6
73
3
74
0
42
0.000000001
43
0.0000000001
44
0.0000000001
40
0
40
0
40
0
40
1
40
1
40
1
10
11.328209784121015
20
10.003281609147681
30
0
10
10.57515103068229
20
9.5089391987851322
30
0
10
9.6383227628868013
20
9.8086811674868724
30
0
0
SPLINE
5
213
100
AcDbEntity
8
0
100
AcDbSpline
70
0
71
2
72
6
73
3
74
0
42
0.000000001
43
0.0000000001
44
0.0000000001
40
0
40
0
40
0
40
1
40
1
40
1
10
9.6383227628868013
20
9.8086811674868724
30
0
10
8.7619347400709717
20
10.089085036942688
30
0
10
8.5505315662112729
20
10.97529585930014
30
0
0
LINE
5
214
100
AcDbEntity
8
0
100
AcDbLine
10
9.1037395235600336
20
12.763817024670699
30
0
11
8.9062136699060428
21
12.146460022162902
31
0
0
SPLINE
5
215
100
AcDbEntity
8
0
100
AcDbSpline
70
0
71
2
72
6
73
3
74
0
42
0.000000001
43
0.0000000001
44
0.0000000001
40
0
40
0
40
0
40
1
40
1
40
1
10
8.9062136699060428
20
12.146460022162898
30
0
10
8.7307886567932318
20
11.598178071943233
30
0
10
8.9647110900782714
20
11.102150260267491
30
0
0
SPLINE
5
216
100
AcDbEntity
8
0
100
AcDbSpline
70
0
71
2
72
6
73
3
74
0
42
0.000000001
43
0.0000000001
44
0.0000000001
40
0
40
0
40
0
40
1
40
1
40
1
10
8.9647110900782714
20
11.102150260267491
30
0
10
9.1986335233633092
20
10.606122448591751
30
0
10
9.7469157574312781
20
10.430697344660535
30
0
0
SPLINE
5
217
100
AcDbEntity
8
0
100
AcDbSpline
70
0
71
2
72
6
73
3
74
0
42
0.000000001
43
0.0000000001
44
0.0000000001
40
0
40
0
40
0
40
1
40
1
40
1
10
9.7469157574312781
20
10.430697344660535
30
0
10
10.390175904547124
20
10.2248836758036
30
0
10
10.912445960261685
20
10.600322757454116
30
0
0
SPLINE
5
218
100
AcDbEntity
8
0
100
AcDbSpline
70
0
71
2
72
6
73
3
74
0
42
0.000000001
43
0.0000000001
44
0.0000000001
40
0
40
0
40
0
40
1
40
1
40
1
10
10.912445960261685
20
10.600322757454116
30
0
10
11.434715834339432
20
10.97576127140802
30
0
10
11.715119658386048
20
11.852149152299701
30
0
0
SPLINE
5
219
100
AcDbEntity
8
0
100
AcDbSpline
70
0
71
2
72
6
73
3
74
0
42
0.000000001
43
0.0000000001
44
0.0000000001
40
0
40
0
40
0
40
1
40
1
40
1
10
11.715119658386048
20
11.852149152299701
30
0
10
11.951321982987109
20
12.590387496311726
30
0
10
11.744250831488532
20
13.118277248162133
30
0
0
SPLINE
5
220
100
AcDbEntity
8
0
100
AcDbSpline
70
0
71
2
72
6
73
3
74
0
42
0.000000001
43
0.0000000001
44
0.0000000001
40
0
40
0
40
0
40
1
40
1
40
1
10
11.744250831488532
20
13.118277248162133
30
0
10
11.537179498353147
20
13.646166432315933
30
0
10
10.954359738141111
20
13.83264195651774
30
0
0
SPLINE
5
221
100
AcDbEntity
8
0
100
AcDbSpline
70
0
71
2
72
6
73
3
74
0
42
0.000000001
43
0.0000000001
44
0.0000000001
40
0
40
0
40
0
40
1
40
1
40
1
10
10.954359738141111
20
13.83264195651774
30
0
10
10.337002877557463
20
14.030167764762528
30
0
10
9.8239688253300077
20
13.720781253840165
30
0
0
SPLINE
5
222
100
AcDbEntity
8
0
100
AcDbSpline
70
0
71
2
72
6
73
3
74
0
42
0.000000001
43
0.0000000001
44
0.0000000001
40
0
40
0
40
0
40
1
40
1
40
1
10
9.8239688253300077
20
13.720781253840165
30
0
10
9.3109344495415911
20
13.411394220630402
30
0
10
9.1037395235600336
20
12.763817024670699
30
0
0
SPLINE
5
223
100
AcDbEntity
8
0
100
AcDbSpline
70
0
71
2
72
6
73
3
74
0
42
0.000000001
43
0.0000000001
44
0.0000000001
40
0
40
0
40
0
40
1
40
1
40
1
10
14.548515548664973
20
7.9971382746501867
30
0
10
13.598725356043659
20
8.3928856370771605
30
0
10
13.281955289271576
20
9.229532061195048
30
0
0
SPLINE
5
224
100
AcDbEntity
8
0
100
AcDbSpline
70
0
71
2
72
6
73
3
74
0
42
0.000000001
43
0.0000000001
44
0.0000000001
40
0
40
0
40
0
40
1
40
1
40
1
10
13.281955289271576
20
9.229532061195048
30
0
10
12.965185027637421
20
10.066177920788428
30
0
10
13.378366172611074
20
11.057809038341198
30
0
0
SPLINE
5
225
100
AcDbEntity
8
0
100
AcDbSpline
70
0
71
2
72
6
73
3
74
0
42
0.000000001
43
0.0000000001
44
0.0000000001
40
0
40
0
40
0
40
1
40
1
40
1
10
13.378366172611074
20
11.057809038341198
30
0
10
13.828158438601001
20
12.137306524652256
30
0
10
14.670906561566216
20
12.498184298591326
30
0
0
SPLINE
5
226
100
AcDbEntity
8
0
100
AcDbSpline
70
0
71
2
72
6
73
3
74
0
42
0.000000001
43
0.0000000001
44
0.0000000001
40
0
40
0
40
0
40
1
40
1
40
1
10
14.670906561566216
20
12.498184298591326
30
0
10
15.513654352120254
20
12.859061565318225
30
0
10
16.517837788417193
20
12.440650268386864
30
0
0
SPLINE
5
227
100
AcDbEntity
8
0
100
AcDbSpline
70
0
71
2
72
6
73
3
74
0
42
0.000000001
43
0.0000000001
44
0.0000000001
40
0
40
0
40
0
40
1
40
1
40
1
10
16.517837788417193
20
12.440650268386864
30
0
10
17.475996331083724
20
12.04141608067575
30
0
10
17.76783621151489
20
11.2274336501977
30
0
0
SPLINE
5
228
100
AcDbEntity
8
0
100
AcDbSpline
70
0
71
2
72
6
73
3
74
0
42
0.000000001
43
0.0000000001
44
0.0000000001
40
0
40
0
40
0
40
1
40
1
40
1
10
17.76783621151489
20
11.2274336501977
30
0
10
18.059676046097191
20
10.413451884540748
30
0
10
17.623830851994477
20
9.3674272482141401
30
0
0
SPLINE
5
229
100
AcDbEntity
8
0
100
AcDbSpline
70
0
71
2
72
6
73
3
74
0
42
0.000000001
43
0.0000000001
44
0.0000000001
40
0
40
0
40
0
40
1
40
1
40
1
10
17.623830851994477
20
9.3674272482141401
30
0
10
17.196702635133608
20
8.3423232806769185
30
0
10
16.360056690353343
20
7.9666271909344033
30
0
0
SPLINE
5
230
100
AcDbEntity
8
0
100
AcDbSpline
70
0
71
2
72
6
73
3
74
0
42
0.000000001
43
0.0000000001
44
0.0000000001
40
0
40
0
40
0
40
1
40
1
40
1
10
16.360056690353343
20
7.9666271909344033
30
0
10
15.523410241225516
20
7.5909306656201387
30
0
10
14.548515548664973
20
7.9971382746501867
30
0
0
SPLINE
5
231
100
AcDbEntity
8
0
100
AcDbSpline
70
0
71
2
72
6
73
3
74
0
42
0.000000001
43
0.0000000001
44
0.0000000001
40
0
40
0
40
0
40
1
40
1
40
1
10
16.227042371607659
20
11.88416547485229
30
0
10
15.565954822356709
20
12.159619628813729
30
0
10
14.993604466875913
20
11.870220084045794
30
0
0
SPLINE
5
232
100
AcDbEntity
8
0
100
AcDbSpline
70
0
71
2
72
6
73
3
74
0
42
0.000000001
43
0.0000000001
44
0.0000000001
40
0
40
0
40
0
40
1
40
1
40
1
10
14.993604466875913
20
11.870220084045794
30
0
10
14.421253973846014
20
11.5808205965902
30
0
10
14.091755030946294
20
10.790026028747711
30
0
0
SPLINE
5
233
100
AcDbEntity
8
0
100
AcDbSpline
70
0
71
2
72
6
73
3
74
0
42
0.000000001
43
0.0000000001
44
0.0000000001
40
0
40
0
40
0
40
1
40
1
40
1
10
14.091755030946294
20
10.790026028747711
30
0
10
13.77445971863555
20
10.028520067092511
30
0
10
13.980525857076834
20
9.4270555070754956
30
0
0
SPLINE
5
234
100
AcDbEntity
8
0
100
AcDbSpline
70
0
71
2
72
6
73
3
74
0
42
0.000000001
43
0.0000000001
44
0.0000000001
40
0
40
0
40
0
40
1
40
1
40
1
10
13.980525857076834
20
9.4270555070754956
30
0
10
14.186592133067224
20
8.8255908897461453
30
0
10
14.839311469822064
20
8.5536235037565085
30
0
0
SPLINE
5
235
100
AcDbEntity
8
0
100
AcDbSpline
70
0
71
2
72
6
73
3
74
0
42
0.000000001
43
0.0000000001
44
0.0000000001
40
0
40
0
40
0
40
1
40
1
40
1
10
14.839311469822064
20
8.5536235037565085
30
0
10
15.50458285022286
20
8.2764260804338399
30
0
10
16.041891579446897
20
8.5583292633490355
30
0
0
SPLINE
5
236
100
AcDbEntity
8
0
100
AcDbSpline
70
0
71
2
72
6
73
3
74
0
42
0.000000001
43
0.0000000001
44
0.0000000001
40
0
40
0
40
0
40
1
40
1
40
1
10
16.041891579446897
20
8.5583292633490355
30
0
10
16.579200079421582
20
8.8402318960678077
30
0
10
16.910442463619543
20
9.6352107077074578
30
0
0
SPLINE
5
237
100
AcDbEntity
8
0
100
AcDbSpline
70
0
71
2
72
6
73
3
74
0
42
0.000000001
43
0.0000000001
44
0.0000000001
40
0
40
0
40
0
40
1
40
1
40
1
10
16.910442463619543
20
9.6352107077074578
30
0
10
17.245171501164627
20
10.438557456745009
30
0
10
17.068742511961869
20
11.022762479039105
30
0
0
SPLINE
5
238
100
AcDbEntity
8
0
100
AcDbSpline
70
0
71
2
72
6
73
3
74
0
42
0.000000001
43
0.0000000001
44
0.0000000001
40
0
40
0
40
0
40
1
40
1
40
1
10
17.068742511961869
20
11.022762479039105
30
0
10
16.892313752008459
20
11.606968051529625
30
0
10
16.227042371607659
20
11.88416547485229
30
0
0
SPLINE
5
239
100
AcDbEntity
8
0
100
AcDbSpline
70
0
71
2
72
6
73
3
74
0
42
0.000000001
43
0.0000000001
44
0.0000000001
40
0
40
0
40
0
40
1
40
1
40
1
10
19.732692393506348
20
5.7512567296811978
30
0
10
19.432701207928989
20
5.7385589714528162
30
0
10
19.047205558643043
20
5.9304477710032089
30
0
0
SPLINE
5
240
100
AcDbEntity
8
0
100
AcDbSpline
70
0
71
2
72
6
73
3
74
0
42
0.000000001
43
0.0000000001
44
0.0000000001
40
0
40
0
40
0
40
1
40
1
40
1
10
19.047205558643043
20
5.9304477710032089
30
0
10
17.955644572956068
20
6.4737958673241316
30
0
10
18.561608923527395
20
7.6911499876008902
30
0
0
LINE
5
241
100
AcDbEntity
8
0
100
AcDbLine
10
18.561608923527395
20
7.6911499876008902
30
0
11
19.785657336654946
21
10.150206164311815
31
0
0
LINE
5
242
100
AcDbEntity
8
0
100
AcDbLine
10
19.785657336654946
20
10.150206164311815
30
0
11
19.071476071559307
21
10.505705340176519
31
0
0
LINE
5
243
100
AcDbEntity
8
0
100
AcDbLine
10
19.071476071559307
20
10.505705340176519
30
0
11
19.354259258086984
21
11.073803573909061
31
0
0
LINE
5
244
100
AcDbEntity
8
0
100
AcDbLine
10
19.354259258086984
20
11.073803573909061
30
0
11
20.068440523182623
21
10.718304398044356
31
0
0
LINE
5
245
100
AcDbEntity
8
0
100
AcDbLine
10
20.068440523182623
20
10.718304398044356
30
0
11
20.573410992397676
21
11.732766520671603
31
0
0
LINE
5
246
100
AcDbEntity
8
0
100
AcDbLine
10
20.573410992397676
20
11.732766520671603
30
0
11
21.34595163993778
21
11.616571979180964
31
0
0
LINE
5
247
100
AcDbEntity
8
0
100
AcDbLine
10
21.345951639937777
20
11.616571979180964
30
0
11
20.733927433374003
21
10.387043890825503
31
0
0
LINE
5
248
100
AcDbEntity
8
0
100
AcDbLine
10
20.733927433374003
20
10.387043890825503
30
0
11
21.780852270289223
21
9.8659144032495298
31
0
0
LINE
5
249
100
AcDbEntity
8
0
100
AcDbLine
10
21.780852270289223
20
9.8659144032495316
30
0
11
21.498069083761546
21
9.2978161695169899
31
0
0
LINE
5
250
100
AcDbEntity
8
0
100
AcDbLine
10
21.498069083761543
20
9.2978161695169899
30
0
11
20.451144246846322
21
9.8189456570929607
31
0
0
LINE
5
251
100
AcDbEntity
8
0
100
AcDbLine
10
20.451144246846326
20
9.8189456570929607
30
0
11
19.285672316778427
21
7.4775669030501462
31
0
0
SPLINE
5
252
100
AcDbEntity
8
0
100
AcDbSpline
70
0
71
2
72
6
73
3
74
0
42
0.000000001
43
0.0000000001
44
0.0000000001
40
0
40
0
40
0
40
1
40
1
40
1
10
19.285672316778427
20
7.4775669030501462
30
0
10
19.077624698073421
20
7.0596089396724153
30
0
10
19.130774689317072
20
6.8103679479564461
30
0
0
SPLINE
5
253
100
AcDbEntity
8
0
100
AcDbSpline
70
0
71
2
72
6
73
3
74
0
42
0.000000001
43
0.0000000001
44
0.0000000001
40
0
40
0
40
0
40
1
40
1
40
1
10
19.130774689317072
20
6.8103679479564461
30
0
10
19.183924414952305
20
6.5611264226455566
30
0
10
19.512610080786523
20
6.3975160214304561
30
0
0
SPLINE
5
254
100
AcDbEntity
8
0
100
AcDbSpline
70
0
71
2
72
6
73
3
74
0
42
0.000000001
43
0.0000000001
44
0.0000000001
40
0
40
0
40
0
40
1
40
1
40
1
10
19.512610080786523
20
6.3975160214304561
30
0
10
19.764196750162277
20
6.2722833137233298
30
0
10
20.015475845642435
20
6.3193554970086581
30
0
0
LINE
5
255
100
AcDbEntity
8
0
100
AcDbLine
10
20.015475845642435
20
6.3193554970086581
30
0
11
19.732692393506344
21
5.7512567296811978
31
0
0
SPLINE
5
256
100
AcDbEntity
8
0
100
AcDbSpline
70
0
71
2
72
6
73
3
74
0
42
0.000000001
43
0.0000000001
44
0.0000000001
40
0
40
0
40
0
40
1
40
1
40
1
10
23.726535514964901
20
10.1441972985885
30
0
10
23.551892894363817
20
10.240514949559794
30
0
10
23.494520278713654
20
10.427449676880459
30
0
0
SPLINE
5
257
100
AcDbEntity
8
0
100
AcDbSpline
70
0
71
2
72
6
73
3
74
0
42
0.000000001
43
0.0000000001
44
0.0000000001
40
0
40
0
40
0
40
1
40
1
40
1
10
23.494520278713654
20
10.427449676880459
30
0
10
23.437147728304947
20
10.614384368219625
30
0
10
23.537843248244528
20
10.796964916101539
30
0
0
SPLINE
5
258
100
AcDbEntity
8
0
100
AcDbSpline
70
0
71
2
72
6
73
3
74
0
42
0.000000001
43
0.0000000001
44
0.0000000001
40
0
40
0
40
0
40
1
40
1
40
1
10
23.537843248244528
20
10.796964916101539
30
0
10
23.638539056036105
20
10.979545985915058
30
0
10
23.82834856543321
20
11.032745240419995
30
0
0
SPLINE
5
259
100
AcDbEntity
8
0
100
AcDbSpline
70
0
71
2
72
6
73
3
74
0
42
0.000000001
43
0.0000000001
44
0.0000000001
40
0
40
0
40
0
40
1
40
1
40
1
10
23.82834856543321
20
11.032745240419995
30
0
10
24.018157852219776
20
11.085943937011828
30
0
10
24.19280047282086
20
10.989626286040536
30
0
0
SPLINE
5
260
100
AcDbEntity
8
0
100
AcDbSpline
70
0
71
2
72
6
73
3
74
0
42
0.000000001
43
0.0000000001
44
0.0000000001
40
0
40
0
40
0
40
1
40
1
40
1
10
24.19280047282086
20
10.989626286040536
30
0
10
24.371412383269615
20
10.891119520677606
30
0
10
24.429675034849431
20
10.701105960147583
30
0
0
SPLINE
5
261
100
AcDbEntity
8
0
100
AcDbSpline
70
0
71
2
72
6
73
3
74
0
42
0.000000001
43
0.0000000001
44
0.0000000001
40
0
40
0
40
0
40
1
40
1
40
1
10
24.429675034849431
20
10.701105960147583
30
0
10
24.487937398577259
20
10.511091877685958
30
0
10
24.387241590785685
20
10.328510807872441
30
0
0
SPLINE
5
262
100
AcDbEntity
8
0
100
AcDbSpline
70
0
71
2
72
6
73
3
74
0
42
0.000000001
43
0.0000000001
44
0.0000000001
40
0
40
0
40
0
40
1
40
1
40
1
10
24.387241590785685
20
10.328510807872441
30
0
10
24.290924011777388
20
10.153868317754258
30
0
10
24.098035574669524
20
10.09977916452411
30
0
0
SPLINE
5
263
100
AcDbEntity
8
0
100
AcDbSpline
70
0
71
2
72
6
73
3
74
0
42
0.000000001
43
0.0000000001
44
0.0000000001
40
0
40
0
40
0
40
1
40
1
40
1
10
24.098035574669524
20
10.09977916452411
30
0
10
23.905147425413649
20
10.045690533225567
30
0
10
23.726535514964901
20
10.1441972985885
30
0
0
LINE
5
264
100
AcDbEntity
8
0
100
AcDbLine
10
21.233342602542233
20
4.872683556450621
30
0
11
20.582401771549318
21
5.2316857951180706
31
0
0
LINE
5
265
100
AcDbEntity
8
0
100
AcDbLine
10
20.582401771549318
20
5.2316857951180706
30
0
11
22.823976612847741
21
9.2960966337346829
31
0
0
LINE
5
266
100
AcDbEntity
8
0
100
AcDbLine
10
22.823976612847737
20
9.2960966337346829
30
0
11
23.474917443840653
21
8.9370943950672341
31
0
0
LINE
5
267
100
AcDbEntity
8
0
100
AcDbLine
10
23.474917443840653
20
8.9370943950672341
30
0
11
21.233342602542233
21
4.8726835564506219
31
0
0
SPLINE
5
268
100
AcDbEntity
8
0
100
AcDbSpline
70
0
71
2
72
6
73
3
74
0
42
0.000000001
43
0.0000000001
44
0.0000000001
40
0
40
0
40
0
40
1
40
1
40
1
10
25.346598317060494
20
2.6485656457164541
30
0
10
24.7224297812432
20
2.6569319737906683
30
0
10
24.098366281568318
20
3.0439142338700353
30
0
0
SPLINE
5
269
100
AcDbEntity
8
0
100
AcDbSpline
70
0
71
2
72
6
73
3
74
0
42
0.000000001
43
0.0000000001
44
0.0000000001
40
0
40
0
40
0
40
1
40
1
40
1
10
24.098366281568318
20
3.0439142338700353
30
0
10
23.254724944834333
20
3.5670568809817151
30
0
10
23.07699927595074
20
4.4372926410225224
30
0
0
SPLINE
5
270
100
AcDbEntity
8
0
100
AcDbSpline
70
0
71
2
72
6
73
3
74
0
42
0.000000001
43
0.0000000001
44
0.0000000001
40
0
40
0
40
0
40
1
40
1
40
1
10
23.07699927595074
20
4.4372926410225224
30
0
10
22.899273638727067
20
5.307528381430993
30
0
10
23.441526324096277
20
6.1819873513853452
30
0
0
SPLINE
5
271
100
AcDbEntity
8
0
100
AcDbSpline
70
0
71
2
72
6
73
3
74
0
42
0.000000001
43
0.0000000001
44
0.0000000001
40
0
40
0
40
0
40
1
40
1
40
1
10
23.441526324096277
20
6.1819873513853452
30
0
10
24.045887556522292
20
7.1566051173218277
30
0
10
24.971140899285697
20
7.4015521874997345
30
0
0
SPLINE
5
272
100
AcDbEntity
8
0
100
AcDbSpline
70
0
71
2
72
6
73
3
74
0
42
0.000000001
43
0.0000000001
44
0.0000000001
40
0
40
0
40
0
40
1
40
1
40
1
10
24.971140899285697
20
7.4015521874997345
30
0
10
25.896393645474234
20
7.6464982249280684
30
0
10
26.828636769983795
20
7.0684135405103676
30
0
0
SPLINE
5
273
100
AcDbEntity
8
0
100
AcDbSpline
70
0
71
2
72
6
73
3
74
0
42
0.000000001
43
0.0000000001
44
0.0000000001
40
0
40
0
40
0
40
1
40
1
40
1
10
26.828636769983795
20
7.0684135405103676
30
0
10
27.34868960195309
20
6.7459283761304603
30
0
10
27.626032147564942
20
6.307272170732567
30
0
0
LINE
5
274
100
AcDbEntity
8
0
100
AcDbLine
10
27.626032147564942
20
6.307272170732567
30
0
11
27.2247170250427
21
5.6600949079238818
31
0
0
SPLINE
5
275
100
AcDbEntity
8
0
100
AcDbSpline
70
0
71
2
72
6
73
3
74
0
42
0.000000001
43
0.0000000001
44
0.0000000001
40
0
40
0
40
0
40
1
40
1
40
1
10
27.224717025042704
20
5.6600949079238818
30
0
10
26.976663521983518
20
6.2405954638818812
30
0
10
26.475871821586647
20
6.5511367856376541
30
0
0
SPLINE
5
276
100
AcDbEntity
8
0
100
AcDbSpline
70
0
71
2
72
6
73
3
74
0
42
0.000000001
43
0.0000000001
44
0.0000000001
40
0
40
0
40
0
40
1
40
1
40
1
10
26.475871821586647
20
6.5511367856376541
30
0
10
25.871069580123844
20
6.9261751245635388
30
0
10
25.215181192537166
20
6.7328698945834091
30
0
0
SPLINE
5
277
100
AcDbEntity
8
0
100
AcDbSpline
70
0
71
2
72
6
73
3
74
0
42
0.000000001
43
0.0000000001
44
0.0000000001
40
0
40
0
40
0
40
1
40
1
40
1
10
25.215181192537166
20
6.7328698945834091
30
0
10
24.559293245707533
20
6.5395650926325466
30
0
10
24.122146438254187
20
5.834604181827272
30
0
0
SPLINE
5
278
100
AcDbEntity
8
0
100
AcDbSpline
70
0
71
2
72
6
73
3
74
0
42
0.000000001
43
0.0000000001
44
0.0000000001
40
0
40
0
40
0
40
1
40
1
40
1
10
24.122146438254187
20
5.834604181827272
30
0
10
23.692165904963588
20
5.1411998993095906
30
0
10
23.807770056896157
20
4.5148270637261279
30
0
0
SPLINE
5
279
100
AcDbEntity
8
0
100
AcDbSpline
70
0
71
2
72
6
73
3
74
0
42
0.000000001
43
0.0000000001
44
0.0000000001
40
0
40
0
40
0
40
1
40
1
40
1
10
23.807770056896157
20
4.5148270637261279
30
0
10
23.923374082189074
20
3.8884543066720134
30
0
10
24.535881080216015
20
3.5086382422260396
30
0
0
SPLINE
5
280
100
AcDbEntity
8
0
100
AcDbSpline
70
0
71
2
72
6
73
3
74
0
42
0.000000001
43
0.0000000001
44
0.0000000001
40
0
40
0
40
0
40
1
40
1
40
1
10
24.535881080216015
20
3.5086382422260396
30
0
10
25.052081533903241
20
3.1885419406061777
30
0
10
25.719247714696991
20
3.2495153822575285
30
0
0
LINE
5
281
100
AcDbEntity
8
0
100
AcDbLine
10
25.719247714696991
20
3.2495153822575285
30
0
11
25.346598317060497
21
2.6485656457164537
31
0
0
LINE
5
282
100
AcDbEntity
8
0
100
AcDbLine
10
26.029488102687747
20
2.1290869551005223
30
0
11
26.492592070553329
21
2.7786782666586558
31
0
0
SPLINE
5
283
100
AcDbEntity
8
0
100
AcDbSpline
70
0
71
2
72
6
73
3
74
0
42
0.000000001
43
0.0000000001
44
0.0000000001
40
0
40
0
40
0
40
1
40
1
40
1
10
26.492592070553329
20
2.7786782666586554
30
0
10
26.72667165458811
20
2.0606927859987625
30
0
10
27.320900188851507
20
1.6370578217683318
30
0
0
SPLINE
5
284
100
AcDbEntity
8
0
100
AcDbSpline
70
0
71
2
72
6
73
3
74
0
42
0.000000001
43
0.0000000001
44
0.0000000001
40
0
40
0
40
0
40
1
40
1
40
1
10
27.320900188851507
20
1.6370578217683318
30
0
10
28.118126098977552
20
1.0687028027040457
30
0
10
28.497029502687838
20
1.6001868236776051
30
0
0
SPLINE
5
285
100
AcDbEntity
8
0
100
AcDbSpline
70
0
71
2
72
6
73
3
74
0
42
0.000000001
43
0.0000000001
44
0.0000000001
40
0
40
0
40
0
40
1
40
1
40
1
10
28.497029502687838
20
1.6001868236776051
30
0
10
28.604911659326746
20
1.7515120475744728
30
0
10
28.611621743228248
20
1.9053796396006173
30
0
0
SPLINE
5
286
100
AcDbEntity
8
0
100
AcDbSpline
70
0
71
2
72
6
73
3
74
0
42
0.000000001
43
0.0000000001
44
0.0000000001
40
0
40
0
40
0
40
1
40
1
40
1
10
28.611621743228248
20
1.9053796396006173
30
0
10
28.618332276470348
20
2.059248375303441
30
0
10
28.559958311950027
20
2.2233321967656741
30
0
0
SPLINE
5
287
100
AcDbEntity
8
0
100
AcDbSpline
70
0
71
2
72
6
73
3
74
0
42
0.000000001
43
0.0000000001
44
0.0000000001
40
0
40
0
40
0
40
1
40
1
40
1
10
28.559958311950027
20
2.2233321967656741
30
0
10
28.501584104761115
20
2.387416191230205
30
0
10
28.390769847693875
20
2.5638354380734949
30
0
0
SPLINE
5
288
100
AcDbEntity
8
0
100
AcDbSpline
70
0
71
2
72
6
73
3
74
0
42
0.000000001
43
0.0000000001
44
0.0000000001
40
0
40
0
40
0
40
1
40
1
40
1
10
28.390769847693875
20
2.5638354380734949
30
0
10
28.279955590626638
20
2.7402546849167866
30
0
10
28.14909762665561
20
2.9393134397149123
30
0
0
SPLINE
5
289
100
AcDbEntity
8
0
100
AcDbSpline
70
0
71
2
72
6
73
3
74
0
42
0.000000001
43
0.0000000001
44
0.0000000001
40
0
40
0
40
0
40
1
40
1
40
1
10
28.14909762665561
20
2.9393134397149123
30
0
10
27.969163173600712
20
3.2178928570625729
30
0
10
27.851444183317035
20
3.4549024460313293
30
0
0
SPLINE
5
290
100
AcDbEntity
8
0
100
AcDbSpline
70
0
71
2
72
6
73
3
74
0
42
0.000000001
43
0.0000000001
44
0.0000000001
40
0
40
0
40
0
40
1
40
1
40
1
10
27.851444183317035
20
3.4549024460313293
30
0
10
27.733724725694469
20
3.6919116361640434
30
0
10
27.697169232631257
20
3.9100255327600975
30
0
0
SPLINE
5
291
100
AcDbEntity
8
0
100
AcDbSpline
70
0
71
2
72
6
73
3
74
0
42
0.000000001
43
0.0000000001
44
0.0000000001
40
0
40
0
40
0
40
1
40
1
40
1
10
27.697169232631257
20
3.9100255327600975
30
0
10
27.660612986891714
20
4.1281385019323462
30
0
10
27.711799169738637
20
4.3365839800673109
30
0
0
SPLINE
5
292
100
AcDbEntity
8
0
100
AcDbSpline
70
0
71
2
72
6
73
3
74
0
42
0.000000001
43
0.0000000001
44
0.0000000001
40
0
40
0
40
0
40
1
40
1
40
1
10
27.711799169738637
20
4.3365839800673109
30
0
10
27.762985382919133
20
4.5450294365769874
30
0
10
27.918230378520676
20
4.7627900417612521
30
0
0
SPLINE
5
293
100
AcDbEntity
8
0
100
AcDbSpline
70
0
71
2
72
6
73
3
74
0
42
0.000000001
43
0.0000000001
44
0.0000000001
40
0
40
0
40
0
40
1
40
1
40
1
10
27.918230378520676
20
4.7627900417612521
30
0
10
28.107682080375824
20
5.0285320522480328
30
0
10
28.375515842594051
20
5.1465424434646128
30
0
0
SPLINE
5
294
100
AcDbEntity
8
0
100
AcDbSpline
70
0
71
2
72
6
73
3
74
0
42
0.000000001
43
0.0000000001
44
0.0000000001
40
0
40
0
40
0
40
1
40
1
40
1
10
28.375515842594051
20
5.1465424434646128
30
0
10
28.643349981150457
20
5.2645532983930954
30
0
10
28.945020194688986
20
5.2582407760509842
30
0
0
SPLINE
5
295
100
AcDbEntity
8
0
100
AcDbSpline
70
0
71
2
72
6
73
3
74
0
42
0.000000001
43
0.0000000001
44
0.0000000001
40
0
40
0
40
0
40
1
40
1
40
1
10
28.945020194688986
20
5.2582407760509842
30
0
10
29.246690122890072
20
5.2519277251211074
30
0
10
29.556889974619654
20
5.1365493547995325
30
0
0
SPLINE
5
296
100
AcDbEntity
8
0
100
AcDbSpline
70
0
71
2
72
6
73
3
74
0
42
0.000000001
43
0.0000000001
44
0.0000000001
40
0
40
0
40
0
40
1
40
1
40
1
10
29.556889974619654
20
5.1365493547995325
30
0
10
29.867089947683532
20
5.0211708979768073
30
0
10
30.143904440828678
20
4.8238254472953219
30
0
0
SPLINE
5
297
100
AcDbEntity
8
0
100
AcDbSpline
70
0
71
2
72
6
73
3
74
0
42
0.000000001
43
0.0000000001
44
0.0000000001
40
0
40
0
40
0
40
1
40
1
40
1
10
30.143904440828678
20
4.8238254472953219
30
0
10
30.634788792494835
20
4.4738661929536416
30
0
10
30.9012906902141
20
4.0278027037783222
30
0
0
LINE
5
298
100
AcDbEntity
8
0
100
AcDbLine
10
30.9012906902141
20
4.0278027037783222
30
0
11
30.464499333771187
21
3.415119829527145
31
0
0
SPLINE
5
299
100
AcDbEntity
8
0
100
AcDbSpline
70
0
71
2
72
6
73
3
74
0
42
0.000000001
43
0.0000000001
44
0.0000000001
40
0
40
0
40
0
40
1
40
1
40
1
10
30.464499333771187
20
3.4151198295271454
30
0
10
30.242146531129976
20
3.9855776771716811
30
0
10
29.699589906163748
20
4.3723749162094609
30
0
0
SPLINE
5
300
100
AcDbEntity
8
0
100
AcDbSpline
70
0
71
2
72
6
73
3
74
0
42
0.000000001
43
0.0000000001
44
0.0000000001
40
0
40
0
40
0
40
1
40
1
40
1
10
29.699589906163748
20
4.3723749162094609
30
0
10
29.529810342279106
20
4.4934134650608479
30
0
10
29.365620123475672
20
4.5520163332882904
30
0
0
SPLINE
5
301
100
AcDbEntity
8
0
100
AcDbSpline
70
0
71
2
72
6
73
3
74
0
42
0.000000001
43
0.0000000001
44
0.0000000001
40
0
40
0
40
0
40
1
40
1
40
1
10
29.365620123475672
20
4.5520163332882904
30
0
10
29.201430008008238
20
4.6106198598552197
30
0
10
29.05362810550249
20
4.6102221517092525
30
0
0
SPLINE
5
302
100
AcDbEntity
8
0
100
AcDbSpline
70
0
71
2
72
6
73
3
74
0
42
0.000000001
43
0.0000000001
44
0.0000000001
40
0
40
0
40
0
40
1
40
1
40
1
10
29.05362810550249
20
4.6102221517092525
30
0
10
28.905826081662443
20
4.6098245300644338
30
0
10
28.782579634388309
20
4.5501699616276969
30
0
0
SPLINE
5
303
100
AcDbEntity
8
0
100
AcDbSpline
70
0
71
2
72
6
73
3
74
0
42
0.000000001
43
0.0000000001
44
0.0000000001
40
0
40
0
40
0
40
1
40
1
40
1
10
28.782579634388309
20
4.5501699616276969
30
0
10
28.659333187114182
20
4.4905153931909592
30
0
10
28.575132622958893
20
4.3724081026063857
30
0
0
SPLINE
5
304
100
AcDbEntity
8
0
100
AcDbSpline
70
0
71
2
72
6
73
3
74
0
42
0.000000001
43
0.0000000001
44
0.0000000001
40
0
40
0
40
0
40
1
40
1
40
1
10
28.575132622958893
20
4.3724081026063857
30
0
10
28.469881831263631
20
4.2247738680413702
30
0
10
28.452354925114779
20
4.0869670592760565
30
0
0
SPLINE
5
305
100
AcDbEntity
8
0
100
AcDbSpline
70
0
71
2
72
6
73
3
74
0
42
0.000000001
43
0.0000000001
44
0.0000000001
40
0
40
0
40
0
40
1
40
1
40
1
10
28.452354925114779
20
4.0869670592760565
30
0
10
28.434828018965923
20
3.9491602505107415
30
0
10
28.482915146435303
20
3.7979762778401849
30
0
0
SPLINE
5
306
100
AcDbEntity
8
0
100
AcDbSpline
70
0
71
2
72
6
73
3
74
0
42
0.000000001
43
0.0000000001
44
0.0000000001
40
0
40
0
40
0
40
1
40
1
40
1
10
28.482915146435303
20
3.7979762778401849
30
0
10
28.531002619909273
20
3.6467927905068187
30
0
10
28.633905277119297
20
3.4787969485165258
30
0
0
SPLINE
5
307
100
AcDbEntity
8
0
100
AcDbSpline
70
0
71
2
72
6
73
3
74
0
42
0.000000001
43
0.0000000001
44
0.0000000001
40
0
40
0
40
0
40
1
40
1
40
1
10
28.633905277119297
20
3.4787969485165258
30
0
10
28.736808280333914
20
3.3108015918634228
30
0
10
28.872416961361004
20
3.1027897761856416
30
0
0
SPLINE
5
308
100
AcDbEntity
8
0
100
AcDbSpline
70
0
71
2
72
6
73
3
74
0
42
0.000000001
43
0.0000000001
44
0.0000000001
40
0
40
0
40
0
40
1
40
1
40
1
10
28.872416961361004
20
3.1027897761856416
30
0
10
29.054981966016058
20
2.8279004639966008
30
0
10
29.181928411631066
20
2.5843132075093687
30
0
0
SPLINE
5
309
100
AcDbEntity
8
0
100
AcDbSpline
70
0
71
2
72
6
73
3
74
0
42
0.000000001
43
0.0000000001
44
0.0000000001
40
0
40
0
40
0
40
1
40
1
40
1
10
29.181928411631066
20
2.5843132075093687
30
0
10
29.308875099914673
20
2.3407257780198409
30
0
10
29.358348691636472
20
2.1134023636244734
30
0
0
SPLINE
5
310
100
AcDbEntity
8
0
100
AcDbSpline
70
0
71
2
72
6
73
3
74
0
42
0.000000001
43
0.0000000001
44
0.0000000001
40
0
40
0
40
0
40
1
40
1
40
1
10
29.358348691636472
20
2.1134023636244734
30
0
10
29.407822629362865
20
1.8860794345662968
30
0
10
29.365077970902412
20
1.6660496603597563
30
0
0
SPLINE
5
311
100
AcDbEntity
8
0
100
AcDbSpline
70
0
71
2
72
6
73
3
74
0
42
0.000000001
43
0.0000000001
44
0.0000000001
40
0
40
0
40
0
40
1
40
1
40
1
10
29.365077970902412
20
1.6660496603597563
30
0
10
29.322333312441952
20
1.4460198861532148
30
0
10
29.159194222009475
20
1.2171863129733917
30
0
0
SPLINE
5
312
100
AcDbEntity
8
0
100
AcDbSpline
70
0
71
2
72
6
73
3
74
0
42
0.000000001
43
0.0000000001
44
0.0000000001
40
0
40
0
40
0
40
1
40
1
40
1
10
29.159194222009475
20
1.2171863129733917
30
0
10
28.959217752388938
20
0.93668131583358072
30
0
10
28.688222385026787
20
0.81814031954125066
30
0
0
SPLINE
5
313
100
AcDbEntity
8
0
100
AcDbSpline
70
0
71
2
72
6
73
3
74
0
42
0.000000001
43
0.0000000001
44
0.0000000001
40
0
40
0
40
0
40
1
40
1
40
1
10
28.688222385026787
20
0.81814031954125066
30
0
10
28.417227121000636
20
0.69959998158840797
30
0
10
28.113181955605818
20
0.71038947645696293
30
0
0
SPLINE
5
314
100
AcDbEntity
8
0
100
AcDbSpline
70
0
71
2
72
6
73
3
74
0
42
0.000000001
43
0.0000000001
44
0.0000000001
40
0
40
0
40
0
40
1
40
1
40
1
10
28.113181955605818
20
0.71038947645696293
30
0
10
27.809136790211003
20
0.72117897132551789
30
0
10
27.492341072764027
20
0.84682657033576136
30
0
0
SPLINE
5
315
100
AcDbEntity
8
0
100
AcDbSpline
70
0
71
2
72
6
73
3
74
0
42
0.000000001
43
0.0000000001
44
0.0000000001
40
0
40
0
40
0
40
1
40
1
40
1
10
27.492341072764027
20
0.84682657033576136
30
0
10
27.175545130646761
20
0.97247359750766593
30
0
10
26.880276176179542
20
1.182975526902782
30
0
0
SPLINE
5
316
100
AcDbEntity
8
0
100
AcDbSpline
70
0
71
2
72
6
73
3
74
0
42
0.000000001
43
0.0000000001
44
0.0000000001
40
0
40
0
40
0
40
1
40
1
40
1
10
26.880276176179542
20
1.182975526902782
30
0
10
26.2971202459088
20
1.5987166558057242
30
0
10
26.029488102687747
20
2.1290869551005223
30
0
0
SPLINE
5
317
100
AcDbEntity
8
0
100
AcDbSpline
70
0
71
2
72
6
73
3
74
0
42
0.000000001
43
0.0000000001
44
0.0000000001
40
0
40
0
40
0
40
1
40
1
40
1
10
18.061119574206327
20
-3.2219755465075837
30
0
10
17.881329266609086
20
-3.1163778386015939
30
0
10
17.830058303872502
20
-2.9127908590001974
30
0
0
SPLINE
5
318
100
AcDbEntity
8
0
100
AcDbSpline
70
0
71
2
72
6
73
3
74
0
42
0.000000001
43
0.0000000001
44
0.0000000001
40
0
40
0
40
0
40
1
40
1
40
1
10
17.830058303872502
20
-2.9127908590001974
30
0
10
17.778787309013783
20
-2.709203860532241
30
0
10
17.884385092386005
20
-2.529413424446445
30
0
0
SPLINE
5
319
100
AcDbEntity
8
0
100
AcDbSpline
70
0
71
2
72
6
73
3
74
0
42
0.000000001
43
0.0000000001
44
0.0000000001
40
0
40
0
40
0
40
1
40
1
40
1
10
17.884385092386005
20
-2.529413424446445
30
0
10
17.989982875758226
20
-2.349622988360649
30
0
10
18.193911489773427
20
-2.2932956302628247
30
0
0
SPLINE
5
320
100
AcDbEntity
8
0
100
AcDbSpline
70
0
71
2
72
6
73
3
74
0
42
0.000000001
43
0.0000000001
44
0.0000000001
40
0
40
0
40
0
40
1
40
1
40
1
10
18.193911489773427
20
-2.2932956302628247
30
0
10
18.397839769801571
20
-2.2369687672526584
30
0
10
18.577630077398808
20
-2.3425664751586481
30
0
0
SPLINE
5
321
100
AcDbEntity
8
0
100
AcDbSpline
70
0
71
2
72
6
73
3
74
0
42
0.000000001
43
0.0000000001
44
0.0000000001
40
0
40
0
40
0
40
1
40
1
40
1
10
18.577630077398808
20
-2.3425664751586481
30
0
10
18.761328942567783
20
-2.450459828065247
30
0
10
18.813406461533692
20
-2.6571486652312872
30
0
0
SPLINE
5
322
100
AcDbEntity
8
0
100
AcDbSpline
70
0
71
2
72
6
73
3
74
0
42
0.000000001
43
0.0000000001
44
0.0000000001
40
0
40
0
40
0
40
1
40
1
40
1
10
18.813406461533692
20
-2.6571486652312872
30
0
10
18.865483678634675
20
-2.8638380163515431
30
0
10
18.759885895262457
20
-3.0436284524373391
30
0
0
SPLINE
5
323
100
AcDbEntity
8
0
100
AcDbSpline
70
0
71
2
72
6
73
3
74
0
42
0.000000001
43
0.0000000001
44
0.0000000001
40
0
40
0
40
0
40
1
40
1
40
1
10
18.759885895262457
20
-3.0436284524373391
30
0
10
18.654288111890235
20
-3.2234188885231352
30
0
10
18.449553275632766
20
-3.2766438939686591
30
0
0
SPLINE
5
324
100
AcDbEntity
8
0
100
AcDbSpline
70
0
71
2
72
6
73
3
74
0
42
0.000000001
43
0.0000000001
44
0.0000000001
40
0
40
0
40
0
40
1
40
1
40
1
10
18.449553275632766
20
-3.2766438939686591
30
0
10
18.244818439375297
20
-3.3298688994141825
30
0
10
18.061119574206327
20
-3.2219755465075837
30
0
0
LINE
5
325
100
AcDbEntity
8
0
100
AcDbLine
10
22.092646256074921
20
-5.6770172838497697
30
0
11
21.473040431424465
21
-5.2662920778041489
31
0
0
LINE
5
326
100
AcDbEntity
8
0
100
AcDbLine
10
21.473040431424465
20
-5.2662920778041489
30
0
11
21.873748094099042
21
-4.6617983722299661
31
0
0
LINE
5
327
100
AcDbEntity
8
0
100
AcDbLine
10
21.873748094099042
20
-4.6617983722299661
30
0
11
21.858635726619347
21
-4.6517806641968997
31
0
0
SPLINE
5
328
100
AcDbEntity
8
0
100
AcDbSpline
70
0
71
2
72
6
73
3
74
0
42
0.000000001
43
0.0000000001
44
0.0000000001
40
0
40
0
40
0
40
1
40
1
40
1
10
21.85863572661934
20
-4.6517806641968997
30
0
10
20.993566855076459
20
-5.078975461081809
30
0
10
20.207725236552761
20
-4.5580556313344767
30
0
0
SPLINE
5
329
100
AcDbEntity
8
0
100
AcDbSpline
70
0
71
2
72
6
73
3
74
0
42
0.000000001
43
0.0000000001
44
0.0000000001
40
0
40
0
40
0
40
1
40
1
40
1
10
20.207725236552761
20
-4.5580556313344767
30
0
10
19.629678422471471
20
-4.1748791223797888
30
0
10
19.505732499509005
20
-3.6522215701265557
30
0
0
SPLINE
5
330
100
AcDbEntity
8
0
100
AcDbSpline
70
0
71
2
72
6
73
3
74
0
42
0.000000001
43
0.0000000001
44
0.0000000001
40
0
40
0
40
0
40
1
40
1
40
1
10
19.505732499509005
20
-3.6522215701265557
30
0
10
19.381786185121641
20
-3.1295644735146642
30
0
10
19.717378910243305
20
-2.6233009081550884
30
0
0
SPLINE
5
331
100
AcDbEntity
8
0
100
AcDbSpline
70
0
71
2
72
6
73
3
74
0
42
0.000000001
43
0.0000000001
44
0.0000000001
40
0
40
0
40
0
40
1
40
1
40
1
10
19.717378910243305
20
-2.6233009081550884
30
0
10
20.436148061988646
20
-1.5389906529159347
30
0
10
21.830848554945469
20
-2.2079151002396111
30
0
0
LINE
5
332
100
AcDbEntity
8
0
100
AcDbLine
10
21.830848554945469
20
-2.2079151002396111
30
0
11
23.098410348880094
21
-2.8143152980900825
31
0
0
SPLINE
5
333
100
AcDbEntity
8
0
100
AcDbSpline
70
0
71
2
72
6
73
3
74
0
42
0.000000001
43
0.0000000001
44
0.0000000001
40
0
40
0
40
0
40
1
40
1
40
1
10
23.098410348880094
20
-2.8143152980900821
30
0
10
23.75206456307253
20
-1.8282351830655352
30
0
10
22.954888793140768
20
-1.2998021546244143
30
0
0
SPLINE
5
334
100
AcDbEntity
8
0
100
AcDbSpline
70
0
71
2
72
6
73
3
74
0
42
0.000000001
43
0.0000000001
44
0.0000000001
40
0
40
0
40
0
40
1
40
1
40
1
10
22.954888793140768
20
-1.2998021546244143
30
0
10
22.255943163423613
20
-0.83648406373620365
30
0
10
21.377451345665634
20
-0.93936405204925855
30
0
0
LINE
5
335
100
AcDbEntity
8
0
100
AcDbLine
10
21.377451345665634
20
-0.93936405204925855
30
0
11
21.798194424406347
21
-0.30464561151568204
31
0
0
SPLINE
5
336
100
AcDbEntity
8
0
100
AcDbSpline
70
0
71
2
72
6
73
3
74
0
42
0.000000001
43
0.0000000001
44
0.0000000001
40
0
40
0
40
0
40
1
40
1
40
1
10
21.798194424406347
20
-0.30464561151568259
30
0
10
22.609109450994151
20
-0.32011748172031118
30
0
10
23.353392183150397
20
-0.81348869670772039
30
0
0
SPLINE
5
337
100
AcDbEntity
8
0
100
AcDbSpline
70
0
71
2
72
6
73
3
74
0
42
0.000000001
43
0.0000000001
44
0.0000000001
40
0
40
0
40
0
40
1
40
1
40
1
10
23.353392183150397
20
-0.81348869670772039
30
0
10
24.717280491553673
20
-1.7175849530787302
30
0
10
23.760591515002094
20
-3.1608128181452799
30
0
0
LINE
5
338
100
AcDbEntity
8
0
100
AcDbLine
10
23.760591515002094
20
-3.1608128181452799
30
0
11
22.092646256074921
21
-5.6770172838497697
31
0
0
LINE
5
339
100
AcDbEntity
8
0
100
AcDbLine
10
22.77033082245222
20
-3.3092447120415978
30
0
11
21.751993969311609
21
-2.8191068543320523
31
0
0
SPLINE
5
340
100
AcDbEntity
8
0
100
AcDbSpline
70
0
71
2
72
6
73
3
74
0
42
0.000000001
43
0.0000000001
44
0.0000000001
40
0
40
0
40
0
40
1
40
1
40
1
10
21.751993969311609
20
-2.8191068543320528
30
0
10
21.281221657621675
20
-2.5940523039565289
30
0
10
20.960663531432925
20
-2.6018083188994598
30
0
0
SPLINE
5
341
100
AcDbEntity
8
0
100
AcDbSpline
70
0
71
2
72
6
73
3
74
0
42
0.000000001
43
0.0000000001
44
0.0000000001
40
0
40
0
40
0
40
1
40
1
40
1
10
20.960663531432925
20
-2.6018083188994598
30
0
10
20.640105467345027
20
-2.6095643750078956
30
0
10
20.382149897148615
20
-2.9987072166015327
30
0
0
SPLINE
5
342
100
AcDbEntity
8
0
100
AcDbSpline
70
0
71
2
72
6
73
3
74
0
42
0.000000001
43
0.0000000001
44
0.0000000001
40
0
40
0
40
0
40
1
40
1
40
1
10
20.382149897148615
20
-2.9987072166015327
30
0
10
20.194318612507715
20
-3.282062989030444
30
0
10
20.277486077878386
20
-3.5955086402967984
30
0
0
SPLINE
5
343
100
AcDbEntity
8
0
100
AcDbSpline
70
0
71
2
72
6
73
3
74
0
42
0.000000001
43
0.0000000001
44
0.0000000001
40
0
40
0
40
0
40
1
40
1
40
1
10
20.277486077878386
20
-3.5955086402967984
30
0
10
20.360653481148205
20
-3.908954250397648
30
0
10
20.696902912361189
20
-4.1318477601473145
30
0
0
SPLINE
5
344
100
AcDbEntity
8
0
100
AcDbSpline
70
0
71
2
72
6
73
3
74
0
42
0.000000001
43
0.0000000001
44
0.0000000001
40
0
40
0
40
0
40
1
40
1
40
1
10
20.696902912361189
20
-4.1318477601473145
30
0
10
21.157829375281672
20
-4.4373873611697796
30
0
10
21.672315010346775
20
-4.3134624772045891
30
0
0
SPLINE
5
345
100
AcDbEntity
8
0
100
AcDbSpline
70
0
71
2
72
6
73
3
74
0
42
0.000000001
43
0.0000000001
44
0.0000000001
40
0
40
0
40
0
40
1
40
1
40
1
10
21.672315010346775
20
-4.3134624772045891
30
0
10
22.186800564491254
20
-4.1895382547082676
30
0
10
22.514880090919132
20
-3.694608840756751
30
0
0
LINE
5
346
100
AcDbEntity
8
0
100
AcDbLine
10
22.514880090919132
20
-3.694608840756751
30
0
11
22.77033082245222
21
-3.3092447120415973
31
0
0
SPLINE
5
347
100
AcDbEntity
8
0
100
AcDbSpline
70
0
71
2
72
6
73
3
74
0
42
0.000000001
43
0.0000000001
44
0.0000000001
40
0
40
0
40
0
40
1
40
1
40
1
10
26.705913071653672
20
-1.8692417153989827
30
0
10
26.546132039854797
20
-1.7498802614185345
30
0
10
26.514941780508664
20
-1.5568430188281113
30
0
0
SPLINE
5
348
100
AcDbEntity
8
0
100
AcDbSpline
70
0
71
2
72
6
73
3
74
0
42
0.000000001
43
0.0000000001
44
0.0000000001
40
0
40
0
40
0
40
1
40
1
40
1
10
26.514941780508664
20
-1.5568430188281113
30
0
10
26.483751580852125
20
-1.3638058208276871
30
0
10
26.608538300088963
20
-1.1967623567146879
30
0
0
SPLINE
5
349
100
AcDbEntity
8
0
100
AcDbSpline
70
0
71
2
72
6
73
3
74
0
42
0.000000001
43
0.0000000001
44
0.0000000001
40
0
40
0
40
0
40
1
40
1
40
1
10
26.608538300088963
20
-1.1967623567146879
30
0
10
26.733325376045794
20
-1.0297184150849747
30
0
10
26.928637809022948
20
-1.003056380991596
30
0
0
SPLINE
5
350
100
AcDbEntity
8
0
100
AcDbSpline
70
0
71
2
72
6
73
3
74
0
42
0.000000001
43
0.0000000001
44
0.0000000001
40
0
40
0
40
0
40
1
40
1
40
1
10
26.928637809022948
20
-1.003056380991596
30
0
10
27.123949944969695
20
-0.97639486900492956
30
0
10
27.283730976768574
20
-1.0957563229853777
30
0
0
SPLINE
5
351
100
AcDbEntity
8
0
100
AcDbSpline
70
0
71
2
72
6
73
3
74
0
42
0.000000001
43
0.0000000001
44
0.0000000001
40
0
40
0
40
0
40
1
40
1
40
1
10
27.283730976768574
20
-1.0957563229853777
30
0
10
27.447143523172457
20
-1.2178306325440169
30
0
10
27.478793111323224
20
-1.4140396876976835
30
0
0
SPLINE
5
352
100
AcDbEntity
8
0
100
AcDbSpline
70
0
71
2
72
6
73
3
74
0
42
0.000000001
43
0.0000000001
44
0.0000000001
40
0
40
0
40
0
40
1
40
1
40
1
10
27.478793111323224
20
-1.4140396876976835
30
0
10
27.510442342753993
20
-1.610249220368063
30
0
10
27.385655266797162
20
-1.7772931619977761
30
0
0
SPLINE
5
353
100
AcDbEntity
8
0
100
AcDbSpline
70
0
71
2
72
6
73
3
74
0
42
0.000000001
43
0.0000000001
44
0.0000000001
40
0
40
0
40
0
40
1
40
1
40
1
10
27.385655266797162
20
-1.7772931619977761
30
0
10
27.266293901996711
20
-1.9370740744174775
30
0
10
27.067809581667138
20
-1.9641952884459064
30
0
0
SPLINE
5
354
100
AcDbEntity
8
0
100
AcDbSpline
70
0
71
2
72
6
73
3
74
0
42
0.000000001
43
0.0000000001
44
0.0000000001
40
0
40
0
40
0
40
1
40
1
40
1
10
27.067809581667138
20
-1.9641952884459064
30
0
10
26.869325618057559
20
-1.9913160249576223
30
0
10
26.705913071653672
20
-1.8692417153989827
30
0
0
LINE
5
355
100
AcDbEntity
8
0
100
AcDbLine
10
23.513238815225463
20
-6.7489649784994317
30
0
11
22.917691191981522
21
-6.3040721809959441
31
0
0
LINE
5
356
100
AcDbEntity
8
0
100
AcDbLine
10
22.917691191981522
20
-6.3040721809959432
30
0
11
25.695558276210132
21
-2.5855311100158911
31
0
0
LINE
5
357
100
AcDbEntity
8
0
100
AcDbLine
10
25.695558276210129
20
-2.5855311100158911
30
0
11
26.29110589945407
21
-3.0304239075193795
31
0
0
LINE
5
358
100
AcDbEntity
8
0
100
AcDbLine
10
26.291105899454074
20
-3.0304239075193795
30
0
11
23.513238815225463
21
-6.7489649784994317
31
0
0
ENDSEC
0
SECTION
2
OBJECTS
0
DICTIONARY
5
C
100
AcDbDictionary
3
ACAD_GROUP
350
D
3
ACAD_MLINESTYLE
350
17
0
DICTIONARY
5
D
100
AcDbDictionary
0
DICTIONARY
5
1A
330
C
100
AcDbDictionary
0
DICTIONARY
5
17
100
AcDbDictionary
0
ENDSEC
0
EOF
