0
SECTION
2
HEADER
9
$INSUNITS
70
4
9
$ACADVER
1
AC1014
9
$HANDSEED
5
FFFF
0
ENDSEC
0
SECTION
2
TABLES
0
TABLE
2
VPORT
5
8
100
AcDbSymbolTable
0
ENDTAB
0
TABLE
2
LTYPE
5
5
100
AcDbSymbolTable
0
LTYPE
5
14
100
AcDbSymbolTableRecord
100
AcDbLinetypeTableRecord
2
BYBLOCK
70
0
0
LTYPE
5
15
100
AcDbSymbolTableRecord
100
AcDbLinetypeTableRecord
2
BYLAYER
70
0
0
LTYPE
5
16
100
AcDbSymbolTableRecord
100
AcDbLinetypeTableRecord
2
DASHED
70
0
3
Dashed __ __ __ __ __ __ __ __ __ __ __ __ __ _
72
65
73
2
40
0.75
49
0.5
74
0
49
-0.25
74
0
0
ENDTAB
0
TABLE
2
LAYER
5
2
100
AcDbSymbolTable
70
2
0
LAYER
5
50
100
AcDbSymbolTableRecord
100
AcDbLayerTableRecord
2
0
70
0
62
7
6
CONTINUOUS
0
ENDTAB
0
TABLE
2
STYLE
5
3
100
AcDbSymbolTable
70
1
0
STYLE
5
11
100
AcDbSymbolTableRecord
100
AcDbTextStyleTableRecord
2
STANDARD
70
0
0
ENDTAB
0
TABLE
2
VIEW
5
6
100
AcDbSymbolTable
70
0
0
ENDTAB
0
TABLE
2
UCS
5
7
100
AcDbSymbolTable
70
0
0
ENDTAB
0
TABLE
2
APPID
5
9
100
AcDbSymbolTable
70
2
0
APPID
5
12
100
AcDbSymbolTableRecord
100
AcDbRegAppTableRecord
2
ACAD
70
0
0
ENDTAB
0
TABLE
2
DIMSTYLE
5
A
100
AcDbSymbolTable
70
1
0
ENDTAB
0
TABLE
2
BLOCK_RECORD
5
1
100
AcDbSymbolTable
70
1
0
BLOCK_RECORD
5
1F
100
AcDbSymbolTableRecord
100
AcDbBlockTableRecord
2
*MODEL_SPACE
0
BLOCK_RECORD
5
1B
100
AcDbSymbolTableRecord
100
AcDbBlockTableRecord
2
*PAPER_SPACE
0
ENDTAB
0
ENDSEC
0
SECTION
2
BLOCKS
0
BLOCK
5
20
100
AcDbEntity
100
AcDbBlockBegin
2
*MODEL_SPACE
0
ENDBLK
5
21
100
AcDbEntity
100
AcDbBlockEnd
0
BLOCK
5
1C
100
AcDbEntity
100
AcDbBlockBegin
2
*PAPER_SPACE
0
ENDBLK
5
1D
100
AcDbEntity
100
AcDbBlockEnd
0
ENDSEC
0
SECTION
2
ENTITIES
0
LWPOLYLINE
5
100
100
AcDbEntity
8
0
100
AcDbPolyline
90
12
70
1
43
0.0
10
-13.856406460551005
20
32.000000000000007
42
0.26794919243112292
10
-20.784609690826521
20
28.000000000000004
10
-34.641016151377556
20
4.0000000000000044
42
0.26794919243112075
10
-34.641016151377542
20
-3.9999999999999893
10
-20.784609690826539
20
-27.999999999999979
42
0.26794919243112247
10
-13.856406460551028
20
-31.999999999999993
10
13.856406460551
20
-32.000000000000014
42
0.26794919243112203
10
20.784609690826514
20
-28.000000000000011
10
34.641016151377549
20
-4.0000000000000195
42
0.26794919243112142
10
34.641016151377556
20
3.9999999999999725
10
20.784609690826564
20
27.999999999999986
42
0.26794919243112214
10
13.856406460551048
20
31.999999999999996
0
LWPOLYLINE
5
101
100
AcDbEntity
8
0
100
AcDbPolyline
90
12
70
1
43
0.0
10
13.856406460550971
20
-29.999999999999996
42
0.26794919243112297
10
19.05255888325761
20
-26.999999999999996
10
32.908965343808639
20
-3.0000000000000302
42
0.26794919243112297
10
32.908965343808646
20
2.9999999999999805
10
19.052558883257628
20
26.999999999999993
42
0.26794919243112275
10
13.856406460550993
20
29.999999999999996
10
-13.856406460550993
20
30
42
0.26794919243112364
10
-19.052558883257625
20
26.999999999999993
10
-32.908965343808624
20
3.000000000000008
42
0.26794919243112231
10
-32.908965343808632
20
-2.9999999999999893
10
-19.052558883257667
20
-26.999999999999961
42
0.26794919243112297
10
-13.85640646055103
20
-29.999999999999964
0
LINE
5
102
100
AcDbEntity
8
0
100
AcDbLine
10
9.3875087362067244
20
12.422936826850123
30
0
11
9.2540049649330829
21
12.004381676453097
31
0
0
SPLINE
5
103
100
AcDbEntity
8
0
100
AcDbSpline
70
0
71
3
72
9
73
5
74
0
42
0.000000001
43
0.0000000001
44
0.0000000001
40
0
40
0
40
0
40
0
40
0.038332652279422764
40
0.073909352365051278
40
0.073909352365051278
40
0.073909352365051278
40
0.073909352365051278
10
9.2540049649330829
20
12.0043816764531
30
0
10
9.22237968752159
20
11.877691192603852
30
0
10
9.1614028535991636
20
11.633418723695165
30
0
10
9.236535144364483
20
11.393602457171657
30
0
10
9.2727005130190712
20
11.278165491256683
30
0
0
SPLINE
5
104
100
AcDbEntity
8
0
100
AcDbSpline
70
0
71
3
72
9
73
5
74
0
42
0.000000001
43
0.0000000001
44
0.0000000001
40
0
40
0
40
0
40
0
40
0.03399580717086792
40
0.068562309926778905
40
0.068562309926778905
40
0.068562309926778905
40
0.068562309926778905
10
9.2727005130190712
20
11.278165491256683
30
0
10
9.3301343825199563
20
11.176586897796446
30
0
10
9.4459662773539836
20
10.971724487213201
30
0
10
9.6627511554027521
20
10.879780989386227
30
0
10
9.7720458260828273
20
10.833426583088974
30
0
0
SPLINE
5
105
100
AcDbEntity
8
0
100
AcDbSpline
70
0
71
3
72
9
73
5
74
0
42
0.000000001
43
0.0000000001
44
0.0000000001
40
0
40
0
40
0
40
0
40
0.041054910317684004
40
0.080863339199511802
40
0.080863339199511802
40
0.080863339199511802
40
0.080863339199511802
10
9.7720458260828273
20
10.833426583088974
30
0
10
9.9110069180606111
20
10.803418489910953
30
0
10
10.184710059272781
20
10.744313388995913
30
0
10
10.426751947166464
20
10.884361963087947
30
0
10
10.545907393577922
20
10.953306849076256
30
0
0
SPLINE
5
106
100
AcDbEntity
8
0
100
AcDbSpline
70
0
71
3
72
9
73
5
74
0
42
0.000000001
43
0.0000000001
44
0.0000000001
40
0
40
0
40
0
40
0
40
0.046152655726442518
40
0.10323984404260869
40
0.10323984404260869
40
0.10323984404260869
40
0.10323984404260869
10
10.545907393577922
20
10.953306849076256
30
0
10
10.656806619968204
20
11.062737425494301
30
0
10
10.904879426543864
20
11.307524978129521
30
0
10
11.020085618923694
20
11.637782074781757
30
0
10
11.0837896826073
20
11.820400028578305
30
0
0
SPLINE
5
107
100
AcDbEntity
8
0
100
AcDbSpline
70
0
71
3
72
9
73
5
74
0
42
0.000000001
43
0.0000000001
44
0.0000000001
40
0
40
0
40
0
40
0
40
0.047674657982719998
40
0.087279472398588076
40
0.087279472398588076
40
0.087279472398588076
40
0.087279472398588076
10
11.0837896826073
20
11.820400028578305
30
0
10
11.127740262844089
20
11.976127859051333
30
0
10
11.20820195081402
20
12.261223619704488
30
0
10
11.146791526121003
20
12.549947875008709
30
0
10
11.118925311920492
20
12.680962307548615
30
0
0
SPLINE
5
108
100
AcDbEntity
8
0
100
AcDbSpline
70
0
71
3
72
9
73
5
74
0
42
0.000000001
43
0.0000000001
44
0.0000000001
40
0
40
0
40
0
40
0
40
0.035621830903404129
40
0.073757792246271797
40
0.073757792246271797
40
0.073757792246271797
40
0.073757792246271797
10
11.118925311920492
20
12.680962307548615
30
0
10
11.063138344774215
20
12.79031411113291
30
0
10
10.947627057777691
20
13.016735589366213
30
0
10
10.711871257092449
20
13.113605219548122
30
0
10
10.589975334946761
20
13.163690998411735
30
0
0
SPLINE
5
109
100
AcDbEntity
8
0
100
AcDbSpline
70
0
71
3
72
9
73
5
74
0
42
0.000000001
43
0.0000000001
44
0.0000000001
40
0
40
0
40
0
40
0
40
0.037100339547329289
40
0.074108828256865045
40
0.074108828256865045
40
0.074108828256865045
40
0.074108828256865045
10
10.589975334946761
20
13.163690998411735
30
0
10
10.465451356492046
20
13.19048166534753
30
0
10
10.216711688721903
20
13.243996672462197
30
0
10
9.9867215951818995
20
13.135236336193161
30
0
10
9.8718690738253514
20
13.080923567100298
30
0
0
SPLINE
5
110
100
AcDbEntity
8
0
100
AcDbSpline
70
0
71
3
72
9
73
5
74
0
42
0.000000001
43
0.0000000001
44
0.0000000001
40
0
40
0
40
0
40
0
40
0.039429029618946052
40
0.083121755543547574
40
0.083121755543547574
40
0.083121755543547574
40
0.083121755543547574
10
9.8718690738253514
20
13.080923567100298
30
0
10
9.7657563164841239
20
12.999060439514485
30
0
10
9.5420561960142241
20
12.826481835755278
30
0
10
9.4407565965893614
20
12.561974429403126
30
0
10
9.3875087362067244
20
12.422936826850123
30
0
0
LINE
5
111
100
AcDbEntity
8
0
100
AcDbLine
10
8.8741127022515229
20
10.689439361502957
30
0
11
8.8581676292171849
21
10.694525256112781
31
0
0
LINE
5
112
100
AcDbEntity
8
0
100
AcDbLine
10
8.8581676292171849
20
10.694525256112781
30
0
11
8.7068634758580181
21
10.220163130902586
31
0
0
LINE
5
113
100
AcDbEntity
8
0
100
AcDbLine
10
8.7068634758580181
20
10.220163130902586
30
0
11
7.4472129276188879
21
10.621945544802681
31
0
0
LINE
5
114
100
AcDbEntity
8
0
100
AcDbLine
10
7.4472129276188879
20
10.621945544802681
30
0
11
9.3747514531495764
21
16.665079530852406
31
0
0
LINE
5
115
100
AcDbEntity
8
0
100
AcDbLine
10
9.3747514531495764
20
16.665079530852406
30
0
11
10.634402001388706
21
16.263297116952309
31
0
0
LINE
5
116
100
AcDbEntity
8
0
100
AcDbLine
10
10.634402001388706
20
16.263297116952309
30
0
11
9.8130367009397652
21
13.688188761731057
31
0
0
LINE
5
117
100
AcDbEntity
8
0
100
AcDbLine
10
9.8130367009397652
20
13.688188761731057
30
0
11
9.828981773974105
21
13.683102867121233
31
0
0
SPLINE
5
118
100
AcDbEntity
8
0
100
AcDbSpline
70
0
71
3
72
9
73
5
74
0
42
0.000000001
43
0.0000000001
44
0.0000000001
40
0
40
0
40
0
40
0
40
0.081687649849733965
40
0.16386994683637451
40
0.16386994683637451
40
0.16386994683637451
40
0.16386994683637451
10
9.828981773974105
20
13.683102867121235
30
0
10
10.06769983587783
20
13.836247741219525
30
0
10
10.546581480594083
20
14.143464834904
30
0
10
11.104292784898668
20
14.030096803302685
30
0
10
11.383990172540662
20
13.973241684827833
30
0
0
SPLINE
5
119
100
AcDbEntity
8
0
100
AcDbSpline
70
0
71
3
72
9
73
5
74
0
42
0.000000001
43
0.0000000001
44
0.0000000001
40
0
40
0
40
0
40
0
40
0.074693612831088801
40
0.14374908075925946
40
0.14374908075925946
40
0.14374908075925946
40
0.14374908075925946
10
11.383990172540662
20
13.973241684827833
30
0
10
11.622897703328778
20
13.876295594123302
30
0
10
12.082679157667027
20
13.689721255384395
30
0
10
12.315181533267499
20
13.253076460633261
30
0
10
12.426873102053184
20
13.043317132360151
30
0
0
SPLINE
5
120
100
AcDbEntity
8
0
100
AcDbSpline
70
0
71
3
72
9
73
5
74
0
42
0.000000001
43
0.0000000001
44
0.0000000001
40
0
40
0
40
0
40
0
40
0.075268573179870527
40
0.16425971328410199
40
0.16425971328410199
40
0.16425971328410199
40
0.16425971328410199
10
12.426873102053184
20
13.043317132360151
30
0
10
12.484508616212667
20
12.79509826058629
30
0
10
12.610287445687675
20
12.253406569263234
30
0
10
12.461191966743002
20
11.715702923554234
30
0
10
12.38041636820823
20
11.424390711246382
30
0
0
SPLINE
5
121
100
AcDbEntity
8
0
100
AcDbSpline
70
0
71
3
72
9
73
5
74
0
42
0.000000001
43
0.0000000001
44
0.0000000001
40
0
40
0
40
0
40
0
40
0.097429499588369231
40
0.18243898941207334
40
0.18243898941207334
40
0.18243898941207334
40
0.18243898941207334
10
12.38041636820823
20
11.424390711246382
30
0
10
12.265396335207017
20
11.113830115614277
30
0
10
12.050018665491573
20
10.532298223757
30
0
10
11.579028286501538
20
10.131661614184985
30
0
10
11.359565045892477
20
9.944980500163414
30
0
0
SPLINE
5
122
100
AcDbEntity
8
0
100
AcDbSpline
70
0
71
3
72
9
73
5
74
0
42
0.000000001
43
0.0000000001
44
0.0000000001
40
0
40
0
40
0
40
0
40
0.078087050510519965
40
0.15840171756898644
40
0.15840171756898644
40
0.15840171756898644
40
0.15840171756898644
10
11.359565045892477
20
9.944980500163414
30
0
10
11.120138671035139
20
9.8228146541546337
30
0
10
10.634455721547777
20
9.574997894403257
30
0
10
10.101374408526887
20
9.6923045845410307
30
0
10
9.8310853685629276
20
9.7517827764870404
30
0
0
SPLINE
5
123
100
AcDbEntity
8
0
100
AcDbSpline
70
0
71
3
72
9
73
5
74
0
42
0.000000001
43
0.0000000001
44
0.0000000001
40
0
40
0
40
0
40
0
40
0.071070613975129968
40
0.13862019845119719
40
0.13862019845119719
40
0.13862019845119719
40
0.13862019845119719
10
9.8310853685629276
20
9.7517827764870404
30
0
10
9.6037988782356756
20
9.8478475324552619
30
0
10
9.1604862820413491
20
10.035217737827917
30
0
10
8.967940304168101
20
10.475089818097278
30
0
10
8.8741127022515229
20
10.689439361502957
30
0
0
SPLINE
5
124
100
AcDbEntity
8
0
100
AcDbSpline
70
0
71
3
72
9
73
5
74
0
42
0.000000001
43
0.0000000001
44
0.0000000001
40
0
40
0
40
0
40
0
40
0.042403784516568878
40
0.081843890317075979
40
0.081843890317075979
40
0.081843890317075979
40
0.081843890317075979
10
5.1312192286488543
20
14.66573401647112
30
0
10
4.986602952445641
20
14.687366676026885
30
0
10
4.707477898336025
20
14.729120048659393
30
0
10
4.4658812572648863
20
14.584724942156665
30
0
10
4.3494572084082446
20
14.515141760620697
30
0
0
SPLINE
5
125
100
AcDbEntity
8
0
100
AcDbSpline
70
0
71
3
72
9
73
5
74
0
42
0.000000001
43
0.0000000001
44
0.0000000001
40
0
40
0
40
0
40
0
40
0.043505123230269144
40
0.096206909936250015
40
0.096206909936250015
40
0.096206909936250015
40
0.096206909936250015
10
4.3494572084082446
20
14.515141760620697
30
0
10
4.2475151369857445
20
14.408810560175574
30
0
10
4.0220811890769257
20
14.173670524587303
30
0
10
3.9380254031821367
20
13.85761444057839
30
0
10
3.8919799569395934
20
13.684480095679437
30
0
0
SPLINE
5
126
100
AcDbEntity
8
0
100
AcDbSpline
70
0
71
3
72
9
73
5
74
0
42
0.000000001
43
0.0000000001
44
0.0000000001
40
0
40
0
40
0
40
0
40
0.095862312776109529
40
0.17667212894958639
40
0.17667212894958639
40
0.17667212894958639
40
0.17667212894958639
10
3.8919799569395934
20
13.684480095679437
30
0
10
3.8361083313685196
20
13.328755010944292
30
0
10
3.733138157254634
20
12.673161522523962
30
0
10
4.3179393656561889
20
12.388428146728124
30
0
10
4.5854273867149145
20
12.25819112579382
30
0
0
SPLINE
5
127
100
AcDbEntity
8
0
100
AcDbSpline
70
0
71
3
72
9
73
5
74
0
42
0.000000001
43
0.0000000001
44
0.0000000001
40
0
40
0
40
0
40
0
40
0.077967115164406603
40
0.1759708207000025
40
0.1759708207000025
40
0.1759708207000025
40
0.1759708207000025
10
4.5854273867149145
20
12.25819112579382
30
0
10
4.8709117868441183
20
12.267562743861607
30
0
10
5.5152465692950443
20
12.288714370662188
30
0
10
5.6952382102224686
20
12.925736498845403
30
0
10
5.7954812374820417
20
13.28051423314125
30
0
0
SPLINE
5
128
100
AcDbEntity
8
0
100
AcDbSpline
70
0
71
3
72
9
73
5
74
0
42
0.000000001
43
0.0000000001
44
0.0000000001
40
0
40
0
40
0
40
0
40
0.093193885519468431
40
0.17107449885636422
40
0.17107449885636422
40
0.17107449885636422
40
0.17107449885636422
10
5.7954812374820417
20
13.28051423314125
30
0
10
5.850955826532779
20
13.626246410459469
30
0
10
5.9527896267678297
20
14.260901341344159
30
0
10
5.3882310487366194
20
14.539090234144494
30
0
10
5.1312192286488543
20
14.66573401647112
30
0
0
SPLINE
5
129
100
AcDbEntity
8
0
100
AcDbSpline
70
0
71
3
72
9
73
5
74
0
42
0.000000001
43
0.0000000001
44
0.0000000001
40
0
40
0
40
0
40
0
40
0.09682952749015844
40
0.18238970584263448
40
0.18238970584263448
40
0.18238970584263448
40
0.18238970584263448
10
4.317441419305788
20
11.28084957266771
30
0
10
3.9993086890359644
20
11.372805496709081
30
0
10
3.4000685956798864
20
11.546015202168995
30
0
10
2.9991112729594209
20
12.021028676635609
30
0
10
2.8110196266397902
20
12.243860537718048
30
0
0
SPLINE
5
130
100
AcDbEntity
8
0
100
AcDbSpline
70
0
71
3
72
9
73
5
74
0
42
0.000000001
43
0.0000000001
44
0.0000000001
40
0
40
0
40
0
40
0
40
0.084385926345095549
40
0.17785778693871263
40
0.17785778693871263
40
0.17785778693871263
40
0.17785778693871263
10
2.8110196266397902
20
12.243860537718048
30
0
10
2.6876348344335597
20
12.504196011437092
30
0
10
2.4275802609499522
20
13.052897592645742
30
0
10
2.5270852588810384
20
13.653770626770525
30
0
10
2.5793793836144556
20
13.969555060204012
30
0
0
SPLINE
5
131
100
AcDbEntity
8
0
100
AcDbSpline
70
0
71
3
72
9
73
5
74
0
42
0.000000001
43
0.0000000001
44
0.0000000001
40
0
40
0
40
0
40
0
40
0.096042767724279832
40
0.18207643989445735
40
0.18207643989445735
40
0.18207643989445735
40
0.18207643989445735
10
2.5793793836144556
20
13.969555060204012
30
0
10
2.6727935791146229
20
14.285372524725965
30
0
10
2.8498868111745681
20
14.88409454158548
30
0
10
3.3405217972405516
20
15.266783434919006
30
0
10
3.5723537111932222
20
15.447609305697839
30
0
0
SPLINE
5
132
100
AcDbEntity
8
0
100
AcDbSpline
70
0
71
3
72
9
73
5
74
0
42
0.000000001
43
0.0000000001
44
0.0000000001
40
0
40
0
40
0
40
0
40
0.08730113841731367
40
0.18562935070865888
40
0.18562935070865888
40
0.18562935070865888
40
0.18562935070865888
10
3.5723537111932222
20
15.447609305697839
30
0
10
3.8457835642558496
20
15.564181027758291
30
0
10
4.4271804052197625
20
15.812048735664153
30
0
10
5.0519526146500269
20
15.704042330492509
30
0
10
5.3828956158945287
20
15.646831136810048
30
0
0
SPLINE
5
133
100
AcDbEntity
8
0
100
AcDbSpline
70
0
71
3
72
9
73
5
74
0
42
0.000000001
43
0.0000000001
44
0.0000000001
40
0
40
0
40
0
40
0
40
0.096364571275999442
40
0.18143605583489941
40
0.18143605583489941
40
0.18143605583489941
40
0.18143605583489941
10
5.3828956158945287
20
15.646831136810048
30
0
10
5.6996077637530824
20
15.555258377834519
30
0
10
6.2959161598945936
20
15.382844388020217
30
0
10
6.6929590687618763
20
14.908552638098527
30
0
10
6.8791239935641428
20
14.686167384548966
30
0
0
SPLINE
5
134
100
AcDbEntity
8
0
100
AcDbSpline
70
0
71
3
72
9
73
5
74
0
42
0.000000001
43
0.0000000001
44
0.0000000001
40
0
40
0
40
0
40
0
40
0.083252522973388268
40
0.17360371005723271
40
0.17360371005723271
40
0.17360371005723271
40
0.17360371005723271
10
6.8791239935641428
20
14.686167384548966
30
0
10
7.0015527773618169
20
14.429634570238857
30
0
10
7.2568494377629067
20
13.894695246779627
30
0
10
7.1629213999435581
20
13.307998742205314
30
0
10
7.114037020026581
20
13.002655465677664
30
0
0
SPLINE
5
135
100
AcDbEntity
8
0
100
AcDbSpline
70
0
71
3
72
9
73
5
74
0
42
0.000000001
43
0.0000000001
44
0.0000000001
40
0
40
0
40
0
40
0
40
0.096774004958333951
40
0.18364782000784202
40
0.18364782000784202
40
0.18364782000784202
40
0.18364782000784202
10
7.114037020026581
20
13.002655465677664
30
0
10
7.0203796090129842
20
12.684885857813315
30
0
10
6.8426461425967577
20
12.081855159908844
30
0
10
6.3562023447535143
20
11.68673704244136
30
0
10
6.1260921886731996
20
11.499828108493141
30
0
0
SPLINE
5
136
100
AcDbEntity
8
0
100
AcDbSpline
70
0
71
3
72
9
73
5
74
0
42
0.000000001
43
0.0000000001
44
0.0000000001
40
0
40
0
40
0
40
0
40
0.087460962796971367
40
0.18591377662339098
40
0.18591377662339098
40
0.18591377662339098
40
0.18591377662339098
10
6.1260921886731996
20
11.499828108493141
30
0
10
5.8542341804747169
20
11.377263049934053
30
0
10
5.2763518042331095
20
11.116729296473292
30
0
10
4.6494333929554932
20
11.224028189495549
30
0
10
4.317441419305788
20
11.28084957266771
30
0
0
LINE
5
137
100
AcDbEntity
8
0
100
AcDbLine
10
-1.1386990212972488
20
17.431118029677435
30
0
11
-1.3728369150777575
21
15.778161891803023
31
0
0
LINE
5
138
100
AcDbEntity
8
0
100
AcDbLine
10
-1.3728369150777575
20
15.778161891803023
30
0
11
-0.79285228459005608
21
15.696008241929359
31
0
0
SPLINE
5
139
100
AcDbEntity
8
0
100
AcDbSpline
70
0
71
3
72
9
73
5
74
0
42
0.000000001
43
0.0000000001
44
0.0000000001
40
0
40
0
40
0
40
0
40
0.039724851998701738
40
0.075694911739661391
40
0.075694911739661391
40
0.075694911739661391
40
0.075694911739661391
10
-0.79285228459005597
20
15.696008241929363
30
0
10
-0.65758075843490249
20
15.685151505415359
30
0
10
-0.39982356821206044
20
15.664464210916817
30
0
10
-0.17340066156687983
20
15.787913196517787
30
0
10
-0.06580498186306849
20
15.846575889755343
30
0
0
SPLINE
5
140
100
AcDbEntity
8
0
100
AcDbSpline
70
0
71
3
72
9
73
5
74
0
42
0.000000001
43
0.0000000001
44
0.0000000001
40
0
40
0
40
0
40
0
40
0.034911679852939845
40
0.070176392391354314
40
0.070176392391354314
40
0.070176392391354314
40
0.070176392391354314
10
-0.06580498186306849
20
15.846575889755343
30
0
10
0.02421042863658962
20
15.925173466474902
30
0
10
0.20515150036679808
20
16.083163411619775
30
0
10
0.26025085928788605
20
16.317045365518215
30
0
10
0.28793913147160288
20
16.434574631288324
30
0
0
SPLINE
5
141
100
AcDbEntity
8
0
100
AcDbSpline
70
0
71
3
72
9
73
5
74
0
42
0.000000001
43
0.0000000001
44
0.0000000001
40
0
40
0
40
0
40
0
40
0.063517120113330508
40
0.1368112627601305
40
0.1368112627601305
40
0.1368112627601305
40
0.1368112627601305
10
0.28793913147160288
20
16.434574631288324
30
0
10
0.27124258772670995
20
16.668342329176589
30
0
10
0.23527944535827683
20
17.171860969246513
30
0
10
-0.26554867941123578
20
17.284890201560824
30
0
10
-0.5338582270158454
20
17.345443554474674
30
0
0
LINE
5
142
100
AcDbEntity
8
0
100
AcDbLine
10
-0.5338582270158454
20
17.34544355447467
30
0
11
-1.1386990212972488
21
17.431118029677435
31
0
0
LINE
5
143
100
AcDbEntity
8
0
100
AcDbLine
10
1.8074383763727431
20
11.976569806318516
30
0
11
0.27047934164248222
21
12.194276945045996
31
0
0
LINE
5
144
100
AcDbEntity
8
0
100
AcDbLine
10
0.27047934164248222
20
12.194276945045996
30
0
11
-0.43681960108616735
21
13.853809492837939
31
0
0
SPLINE
5
145
100
AcDbEntity
8
0
100
AcDbSpline
70
0
71
3
72
9
73
5
74
0
42
0.000000001
43
0.0000000001
44
0.0000000001
40
0
40
0
40
0
40
0
40
0.019537197476486926
40
0.037263206386595776
40
0.037263206386595776
40
0.037263206386595776
40
0.037263206386595776
10
-0.43681960108616719
20
13.853809492837939
30
0
10
-0.46232346705813332
20
13.913746710872399
30
0
10
-0.51096687267008167
20
14.028064689617537
30
0
10
-0.56564847595161782
20
14.139617317670448
30
0
10
-0.59166037028329399
20
14.192682608356847
30
0
0
SPLINE
5
146
100
AcDbEntity
8
0
100
AcDbSpline
70
0
71
3
72
9
73
5
74
0
42
0.000000001
43
0.0000000001
44
0.0000000001
40
0
40
0
40
0
40
0
40
0.016056575150752261
40
0.030646470026946517
40
0.030646470026946517
40
0.030646470026946517
40
0.030646470026946517
10
-0.59166037028329399
20
14.192682608356847
30
0
10
-0.61655309850847606
20
14.240140628639782
30
0
10
-0.66406474045449859
20
14.330721638754572
30
0
10
-0.72305832127110059
20
14.414262881427202
30
0
10
-0.75114345282875505
20
14.454034442306762
30
0
0
SPLINE
5
147
100
AcDbEntity
8
0
100
AcDbSpline
70
0
71
3
72
9
73
5
74
0
42
0.000000001
43
0.0000000001
44
0.0000000001
40
0
40
0
40
0
40
0
40
0.013274628074951318
40
0.025527415107486035
40
0.025527415107486035
40
0.025527415107486035
40
0.025527415107486035
10
-0.75114345282875505
20
14.454034442306762
30
0
10
-0.77890392699648481
20
14.488744192761139
30
0
10
-0.83228795731801863
20
14.555491841216771
30
0
10
-0.90034596189389304
20
14.607137703696974
30
0
10
-0.93301281172636696
20
14.631926964631427
30
0
0
SPLINE
5
148
100
AcDbEntity
8
0
100
AcDbSpline
70
0
71
3
72
9
73
5
74
0
42
0.000000001
43
0.0000000001
44
0.0000000001
40
0
40
0
40
0
40
0
40
0.01181060757403834
40
0.023962729180393369
40
0.023962729180393369
40
0.023962729180393369
40
0.023962729180393369
10
-0.93301281172636696
20
14.631926964631427
30
0
10
-0.96715082934656893
20
14.652168704790434
30
0
10
-1.0364139951795102
20
14.693237492702442
30
0
10
-1.1154956308056907
20
14.708526106440827
30
0
10
-1.1555999797604457
20
14.716279359083408
30
0
0
LINE
5
149
100
AcDbEntity
8
0
100
AcDbLine
10
-1.1555999797604457
20
14.716279359083408
30
0
11
-1.5160189284732226
21
14.767331974211304
31
0
0
LINE
5
150
100
AcDbEntity
8
0
100
AcDbLine
10
-1.5160189284732226
20
14.767331974211304
30
0
11
-1.8381785422073338
21
12.492964069474565
31
0
0
LINE
5
151
100
AcDbEntity
8
0
100
AcDbLine
10
-1.8381785422073338
20
12.492964069474565
30
0
11
-3.1762856108888249
21
12.68250422939483
31
0
0
LINE
5
152
100
AcDbEntity
8
0
100
AcDbLine
10
-3.1762856108888249
20
12.68250422939483
30
0
11
-2.3347976571615363
21
18.623202915976641
31
0
0
LINE
5
153
100
AcDbEntity
8
0
100
AcDbLine
10
-2.3347976571615363
20
18.623202915976641
30
0
11
-0.21371139633718561
21
18.322755337086367
31
0
0
SPLINE
5
154
100
AcDbEntity
8
0
100
AcDbSpline
70
0
71
3
72
9
73
5
74
0
42
0.000000001
43
0.0000000001
44
0.0000000001
40
0
40
0
40
0
40
0
40
0.16881093042661668
40
0.30282403866408092
40
0.30282403866408092
40
0.30282403866408092
40
0.30282403866408092
10
-0.21371139633718533
20
18.322755337086363
30
0
10
0.41003406933554976
20
18.203443620595291
30
0
10
1.5289492991496234
20
17.989414494895538
30
0
10
1.6613515449764331
20
16.8881339969126
30
0
10
1.7199454286692473
20
16.400768386087663
30
0
0
SPLINE
5
155
100
AcDbEntity
8
0
100
AcDbSpline
70
0
71
3
72
9
73
5
74
0
42
0.000000001
43
0.0000000001
44
0.0000000001
40
0
40
0
40
0
40
0
40
0.03027358238978729
40
0.058968082071280507
40
0.058968082071280507
40
0.058968082071280507
40
0.058968082071280507
10
1.7199454286692473
20
16.400768386087663
30
0
10
1.7022047468076895
20
16.300926017711902
30
0
10
1.6676487444640165
20
16.106449100617382
30
0
10
1.5840626667932471
20
15.927549318169657
30
0
10
1.5433887870458629
20
15.840494769841968
30
0
0
SPLINE
5
156
100
AcDbEntity
8
0
100
AcDbSpline
70
0
71
3
72
9
73
5
74
0
42
0.000000001
43
0.0000000001
44
0.0000000001
40
0
40
0
40
0
40
0
40
0.027802098125851896
40
0.055293500519234158
40
0.055293500519234158
40
0.055293500519234158
40
0.055293500519234158
10
1.5433887870458629
20
15.840494769841968
30
0
10
1.4964258330620195
20
15.760104606259391
30
0
10
1.4030247484123777
20
15.600222660239593
30
0
10
1.27204318766641
20
15.469357814976551
30
0
10
1.2069204018278095
20
15.404293058965624
30
0
0
SPLINE
5
157
100
AcDbEntity
8
0
100
AcDbSpline
70
0
71
3
72
9
73
5
74
0
42
0.000000001
43
0.0000000001
44
0.0000000001
40
0
40
0
40
0
40
0
40
0.027775882300970615
40
0.056396552863688484
40
0.056396552863688484
40
0.056396552863688484
40
0.056396552863688484
10
1.2069204018278095
20
15.404293058965624
30
0
10
1.1356167523226868
20
15.34464082072347
30
0
10
0.99084079182875096
20
15.223522054053602
30
0
10
0.82098987606723683
20
15.141113786949935
30
0
10
0.73479228316584266
20
15.099292438930327
30
0
0
SPLINE
5
158
100
AcDbEntity
8
0
100
AcDbSpline
70
0
71
3
72
9
73
5
74
0
42
0.000000001
43
0.0000000001
44
0.0000000001
40
0
40
0
40
0
40
0
40
0.029710836526295432
40
0.060663683812557434
40
0.060663683812557434
40
0.060663683812557434
40
0.060663683812557434
10
0.73479228316584266
20
15.099292438930327
30
0
10
0.64241892018128022
20
15.062786792740802
30
0
10
0.45381068359263588
20
14.988249444192757
30
0
10
0.25386368484659971
20
14.954159514557029
30
0
10
0.15184335689132022
20
14.936765576047222
30
0
0
LINE
5
159
100
AcDbEntity
8
0
100
AcDbLine
10
0.15184335689132017
20
14.936765576047222
30
0
11
0.14949619573479597
21
14.920195193621666
31
0
0
SPLINE
5
160
100
AcDbEntity
8
0
100
AcDbSpline
70
0
71
3
72
9
73
5
74
0
42
0.000000001
43
0.0000000001
44
0.0000000001
40
0
40
0
40
0
40
0
40
0.014278219296384969
40
0.029396906198512665
40
0.029396906198512665
40
0.029396906198512665
40
0.029396906198512665
10
0.14949619573479622
20
14.920195193621666
30
0
10
0.19157737195233948
20
14.897515985037311
30
0
10
0.2782167745495101
20
14.850822587662504
30
0
10
0.35023583940797964
20
14.783696365766932
30
0
10
0.38727489668926252
20
14.749173673994243
30
0
0
SPLINE
5
161
100
AcDbEntity
8
0
100
AcDbSpline
70
0
71
3
72
9
73
5
74
0
42
0.000000001
43
0.0000000001
44
0.0000000001
40
0
40
0
40
0
40
0
40
0.016011473405223658
40
0.032764960065447928
40
0.032764960065447928
40
0.032764960065447928
40
0.032764960065447928
10
0.38727489668926252
20
14.749173673994243
30
0
10
0.42412710261619524
20
14.710480311912665
30
0
10
0.49953934138777967
20
14.631300436874612
30
0
10
0.56385865219480968
20
14.542863677582707
30
0
10
0.59674661279198293
20
14.49764390426051
30
0
0
SPLINE
5
162
100
AcDbEntity
8
0
100
AcDbSpline
70
0
71
3
72
9
73
5
74
0
42
0.000000001
43
0.0000000001
44
0.0000000001
40
0
40
0
40
0
40
0
40
0.01734337968110107
40
0.035077264230179414
40
0.035077264230179414
40
0.035077264230179414
40
0.035077264230179414
10
0.59674661279198293
20
14.49764390426051
30
0
10
0.62915743717015471
20
14.449737163487217
30
0
10
0.69470885053567799
20
14.352845010088618
30
0
10
0.75171424894170502
20
14.250689072522881
30
0
10
0.78053426031354067
20
14.19904246773336
30
0
0
SPLINE
5
163
100
AcDbEntity
8
0
100
AcDbSpline
70
0
71
3
72
9
73
5
74
0
42
0.000000001
43
0.0000000001
44
0.0000000001
40
0
40
0
40
0
40
0
40
0.017546574609738855
40
0.034300811391866623
40
0.034300811391866623
40
0.034300811391866623
40
0.034300811391866623
10
0.78053426031354067
20
14.19904246773336
30
0
10
0.80798568116963065
20
14.147383317722785
30
0
10
0.86164891916144071
20
14.046397752130197
30
0
10
0.90996302791338968
20
13.942747863137338
30
0
10
0.93356206202077519
20
13.892120058366535
30
0
0
LINE
5
164
100
AcDbEntity
8
0
100
AcDbLine
10
0.93356206202077519
20
13.892120058366535
30
0
11
1.8074383763727431
21
11.976569806318516
31
0
0
SPLINE
5
165
100
AcDbEntity
8
0
100
AcDbSpline
70
0
71
3
72
9
73
5
74
0
42
0.000000001
43
0.0000000001
44
0.0000000001
40
0
40
0
40
0
40
0
40
0.071504382810076678
40
0.13191683197295589
40
0.13191683197295589
40
0.13191683197295589
40
0.13191683197295589
10
-12.537849186956315
20
15.544807321809246
30
0
10
-12.570657147600242
20
15.811367864725314
30
0
10
-12.631183818295877
20
16.303139431286169
30
0
10
-13.109560966075497
20
16.387470080415845
30
0
10
-13.32863790029754
20
16.426090027371998
30
0
0
SPLINE
5
166
100
AcDbEntity
8
0
100
AcDbSpline
70
0
71
3
72
9
73
5
74
0
42
0.000000001
43
0.0000000001
44
0.0000000001
40
0
40
0
40
0
40
0
40
0.030378208131295475
40
0.062538570234623628
40
0.062538570234623628
40
0.062538570234623628
40
0.062538570234623628
10
-13.32863790029754
20
16.426090027371998
30
0
10
-13.43134054098083
20
16.408641379243065
30
0
10
-13.642770928181204
20
16.372720448627462
30
0
10
-13.789314044310046
20
16.215564968368458
30
0
10
-13.864673612985385
20
16.134748008007989
30
0
0
SPLINE
5
167
100
AcDbEntity
8
0
100
AcDbSpline
70
0
71
3
72
9
73
5
74
0
42
0.000000001
43
0.0000000001
44
0.0000000001
40
0
40
0
40
0
40
0
40
0.034999037248587439
40
0.072334556935860536
40
0.072334556935860536
40
0.072334556935860536
40
0.072334556935860536
10
-13.864673612985385
20
16.134748008007989
30
0
10
-13.929779315172944
20
16.036029601334889
30
0
10
-14.064337077098951
20
15.832002497463593
30
0
10
-14.09656435927978
20
15.589468035321703
30
0
10
-14.113198487963203
20
15.464283744856361
30
0
0
LINE
5
168
100
AcDbEntity
8
0
100
AcDbLine
10
-14.113198487963206
20
15.464283744856361
30
0
11
-12.537849186956315
21
15.544807321809246
31
0
0
LINE
5
169
100
AcDbEntity
8
0
100
AcDbLine
10
-11.272069549432175
20
14.796731902385719
30
0
11
-14.063404658315326
21
14.654053521598819
31
0
0
SPLINE
5
170
100
AcDbEntity
8
0
100
AcDbSpline
70
0
71
3
72
9
73
5
74
0
42
0.000000001
43
0.0000000001
44
0.0000000001
40
0
40
0
40
0
40
0
40
0.077259412963993884
40
0.16524064590337564
40
0.16524064590337564
40
0.16524064590337564
40
0.16524064590337564
10
-14.063404658315326
20
14.654053521598819
30
0
10
-13.97302987170213
20
14.3864847341243
30
0
10
-13.779738367917284
20
13.814214798725263
30
0
10
-13.167536974130414
20
13.793345807626508
30
0
10
-12.841574598843691
20
13.782234258424854
30
0
0
SPLINE
5
171
100
AcDbEntity
8
0
100
AcDbSpline
70
0
71
3
72
9
73
5
74
0
42
0.000000001
43
0.0000000001
44
0.0000000001
40
0
40
0
40
0
40
0
40
0.066947666036293624
40
0.13000563418650951
40
0.13000563418650951
40
0.13000563418650951
40
0.13000563418650951
10
-12.841574598843691
20
13.782234258424854
30
0
10
-12.61678368736267
20
13.805940886478698
30
0
10
-12.180262345593853
20
13.851976773867108
30
0
10
-11.801378237835621
20
14.072836622432092
30
0
10
-11.617604187202048
20
14.179962543424814
30
0
0
LINE
5
172
100
AcDbEntity
8
0
100
AcDbLine
10
-11.617604187202048
20
14.179962543424811
30
0
11
-11.568905589305018
21
13.227231615910375
31
0
0
SPLINE
5
173
100
AcDbEntity
8
0
100
AcDbSpline
70
0
71
3
72
9
73
5
74
0
42
0.000000001
43
0.0000000001
44
0.0000000001
40
0
40
0
40
0
40
0
40
0.072349322789256265
40
0.15880349156849621
40
0.15880349156849621
40
0.15880349156849621
40
0.15880349156849621
10
-11.568905589305016
20
13.227231615910373
30
0
10
-11.78873458203147
20
13.123318761240363
30
0
10
-12.271249279434144
20
12.895234744635056
30
0
10
-12.804361422365735
20
12.853538972647042
30
0
10
-13.094592869596795
20
12.830839387938743
30
0
0
SPLINE
5
174
100
AcDbEntity
8
0
100
AcDbSpline
70
0
71
3
72
9
73
5
74
0
42
0.000000001
43
0.0000000001
44
0.0000000001
40
0
40
0
40
0
40
0
40
0.093270446216283234
40
0.17459427888698836
40
0.17459427888698836
40
0.17459427888698836
40
0.17459427888698836
10
-13.094592869596795
20
12.830839387938743
30
0
10
-13.413871267523367
20
12.831228842146745
30
0
10
-14.011533055491217
20
12.831957867034735
30
0
10
-14.503560000092715
20
13.1670768999135
30
0
10
-14.732740000533337
20
13.323171156428295
30
0
0
SPLINE
5
175
100
AcDbEntity
8
0
100
AcDbSpline
70
0
71
3
72
9
73
5
74
0
42
0.000000001
43
0.0000000001
44
0.0000000001
40
0
40
0
40
0
40
0
40
0.081196282051774635
40
0.17389023455799535
40
0.17389023455799535
40
0.17389023455799535
40
0.17389023455799535
10
-14.732740000533337
20
13.323171156428295
30
0
10
-14.910786347638982
20
13.535136407288437
30
0
10
-15.292091011818714
20
13.98908191142754
30
0
10
-15.354081601485092
20
14.580929281625338
30
0
10
-15.387126313794406
20
14.896419522716187
30
0
0
SPLINE
5
176
100
AcDbEntity
8
0
100
AcDbSpline
70
0
71
3
72
9
73
5
74
0
42
0.000000001
43
0.0000000001
44
0.0000000001
40
0
40
0
40
0
40
0
40
0.096851973594974203
40
0.18373756074234021
40
0.18373756074234021
40
0.18373756074234021
40
0.18373756074234021
10
-15.387126313794406
20
14.896419522716187
30
0
10
-15.384315189830664
20
15.227766205048756
30
0
10
-15.378982215799567
20
15.856362906923426
30
0
10
-15.023213032461813
20
16.372250908482485
30
0
10
-14.854977347507948
20
16.616203379260067
30
0
0
SPLINE
5
177
100
AcDbEntity
8
0
100
AcDbSpline
70
0
71
3
72
9
73
5
74
0
42
0.000000001
43
0.0000000001
44
0.0000000001
40
0
40
0
40
0
40
0
40
0.083381337927193502
40
0.16809110477264672
40
0.16809110477264672
40
0.16809110477264672
40
0.16809110477264672
10
-14.854977347507948
20
16.616203379260067
30
0
10
-14.645101782419177
20
16.808999378785042
30
0
10
-14.222006921176256
20
17.197662997785706
30
0
10
-13.652685673924044
20
17.276725160399764
30
0
10
-13.365775369062119
20
17.316568656998783
30
0
0
SPLINE
5
178
100
AcDbEntity
8
0
100
AcDbSpline
70
0
71
3
72
9
73
5
74
0
42
0.000000001
43
0.0000000001
44
0.0000000001
40
0
40
0
40
0
40
0
40
0.08426313340037013
40
0.15889635924614942
40
0.15889635924614942
40
0.15889635924614942
40
0.15889635924614942
10
-13.365775369062119
20
17.316568656998783
30
0
10
-13.076548741909287
20
17.314308196637892
30
0
10
-12.531149393498316
20
17.310045609821206
30
0
10
-12.09454104180676
20
16.986694730352216
30
0
10
-11.889467181886094
20
16.834817624235164
30
0
0
SPLINE
5
179
100
AcDbEntity
8
0
100
AcDbSpline
70
0
71
3
72
9
73
5
74
0
42
0.000000001
43
0.0000000001
44
0.0000000001
40
0
40
0
40
0
40
0
40
0.076021305314521614
40
0.16243685494238114
40
0.16243685494238114
40
0.16243685494238114
40
0.16243685494238114
10
-11.889467181886094
20
16.834817624235164
30
0
10
-11.729553802219392
20
16.631580885014017
30
0
10
-11.387862399410714
20
16.1973192449219
30
0
10
-11.330822160709616
20
15.645863146128335
30
0
10
-11.300477054729765
20
15.352491411679367
30
0
0
LINE
5
180
100
AcDbEntity
8
0
100
AcDbLine
10
-11.300477054729765
20
15.352491411679367
30
0
11
-11.272069549432175
21
14.796731902385719
31
0
0
LINE
5
181
100
AcDbEntity
8
0
100
AcDbLine
10
-6.1618710109693877
20
17.226523010953706
30
0
11
-7.6216507290686364
21
15.182995122357079
31
0
0
LINE
5
182
100
AcDbEntity
8
0
100
AcDbLine
10
-7.6216507290686364
20
15.182995122357079
30
0
11
-6.2649977367963894
21
12.943237169550148
31
0
0
LINE
5
183
100
AcDbEntity
8
0
100
AcDbLine
10
-6.2649977367963894
20
12.943237169550148
30
0
11
-7.787637711426342
21
12.976921592247923
31
0
0
LINE
5
184
100
AcDbEntity
8
0
100
AcDbLine
10
-7.787637711426342
20
12.976921592247923
30
0
11
-8.3811922547827393
21
14.145146958544837
31
0
0
SPLINE
5
185
100
AcDbEntity
8
0
100
AcDbSpline
70
0
71
3
72
9
73
5
74
0
42
0.000000001
43
0.0000000001
44
0.0000000001
40
0
40
0
40
0
40
0
40
0.018571565904806034
40
0.042883048625065284
40
0.042883048625065284
40
0.042883048625065284
40
0.042883048625065284
10
-8.3811922547827411
20
14.145146958544839
30
0
10
-8.4081114764303262
20
14.200915054127776
30
0
10
-8.470269847823424
20
14.32968749942769
30
0
10
-8.5227219598684751
20
14.462728087024983
30
0
10
-8.552458386184
20
14.538152154346875
30
0
0
LINE
5
186
100
AcDbEntity
8
0
100
AcDbLine
10
-8.552458386184
20
14.538152154346875
30
0
11
-8.5691906805007996
21
14.538522312548331
31
0
0
SPLINE
5
187
100
AcDbEntity
8
0
100
AcDbSpline
70
0
71
3
72
9
73
5
74
0
42
0.000000001
43
0.0000000001
44
0.0000000001
40
0
40
0
40
0
40
0
40
0.019657740687016402
40
0.041410302302150974
40
0.041410302302150974
40
0.041410302302150974
40
0.041410302302150974
10
-8.5691906805007996
20
14.538522312548331
30
0
10
-8.594213983386167
20
14.477902284002518
30
0
10
-8.646927189526167
20
14.350202272713574
30
0
10
-8.7138639623278085
20
14.229331923268003
30
0
10
-8.7490254123472262
20
14.165839517330628
30
0
0
LINE
5
188
100
AcDbEntity
8
0
100
AcDbLine
10
-8.7490254123472262
20
14.165839517330625
30
0
11
-9.3981223801946481
21
13.012549348799013
31
0
0
LINE
5
189
100
AcDbEntity
8
0
100
AcDbLine
10
-9.3981223801946481
20
13.012549348799013
30
0
11
-10.916579402287718
21
13.046141234624164
31
0
0
LINE
5
190
100
AcDbEntity
8
0
100
AcDbLine
10
-10.916579402287718
20
13.046141234624164
30
0
11
-9.422039563191257
21
15.147492135494939
31
0
0
LINE
5
191
100
AcDbEntity
8
0
100
AcDbLine
10
-9.422039563191257
20
15.147492135494939
30
0
11
-10.733974203968344
21
17.327668822922973
31
0
0
LINE
5
192
100
AcDbEntity
8
0
100
AcDbLine
10
-10.733974203968344
20
17.327668822922973
30
0
11
-9.2029680356252541
21
17.293799320094571
31
0
0
LINE
5
193
100
AcDbEntity
8
0
100
AcDbLine
10
-9.2029680356252541
20
17.293799320094571
30
0
11
-8.6187977201607282
21
16.079745375798034
31
0
0
SPLINE
5
194
100
AcDbEntity
8
0
100
AcDbSpline
70
0
71
3
72
9
73
5
74
0
42
0.000000001
43
0.0000000001
44
0.0000000001
40
0
40
0
40
0
40
0
40
0.02428512679272694
40
0.043714441058139972
40
0.043714441058139972
40
0.043714441058139972
40
0.043714441058139972
10
-8.6187977201607282
20
16.079745375798034
30
0
10
-8.5841715433786536
20
16.006464956420409
30
0
10
-8.5218426958940245
20
15.874556541819986
30
0
10
-8.4763811731961862
20
15.735971621390039
30
0
10
-8.4561753512732718
20
15.674376187334287
30
0
0
LINE
5
195
100
AcDbEntity
8
0
100
AcDbLine
10
-8.4561753512732718
20
15.674376187334287
30
0
11
-8.4394429079813111
21
15.674006025837148
31
0
0
SPLINE
5
196
100
AcDbEntity
8
0
100
AcDbSpline
70
0
71
3
72
9
73
5
74
0
42
0.000000001
43
0.0000000001
44
0.0000000001
40
0
40
0
40
0
40
0
40
0.021561555820703147
40
0.044812753129781335
40
0.044812753129781335
40
0.044812753129781335
40
0.044812753129781335
10
-8.4394429079813111
20
15.674006025837146
30
0
10
-8.4130597232252722
20
15.740932479904098
30
0
10
-8.35822587194472
20
15.880029987008569
30
0
10
-8.2873011588052954
20
16.011667771389572
30
0
10
-8.2505017125735787
20
16.079968330587718
30
0
0
LINE
5
197
100
AcDbEntity
8
0
100
AcDbLine
10
-8.2505017125735787
20
16.079968330587718
30
0
11
-7.6008495140153478
21
17.258356642644209
31
0
0
LINE
5
198
100
AcDbEntity
8
0
100
AcDbLine
10
-7.6008495140153478
20
17.258356642644209
30
0
11
-6.1618710109693877
21
17.226523010953706
31
0
0
LWPOLYLINE
5
199
100
AcDbEntity
8
0
100
AcDbPolyline
90
12
70
1
43
0.0
10
-16.269213339371184
20
12.755302481531052
10
-17.611866166762237
20
12.568041669813461
10
-17.949398032755575
20
14.988132184501527
10
-20.410927970333962
20
14.644820730658495
10
-20.073396104340627
20
12.224730215970428
10
-21.411904945167706
20
12.038047369212865
10
-22.240707397689118
20
17.980529119771084
10
-20.902198556862036
20
18.167211966528647
10
-20.571602352723168
20
15.796849880940711
10
-18.110072415144781
20
16.140161334783741
10
-18.440668619283645
20
18.510523420371683
10
-17.0980157918926
20
18.697784232089273
0
LWPOLYLINE
5
200
100
AcDbEntity
8
0
100
AcDbPolyline
90
12
70
1
43
0.0
10
-17.897858345105007
20
5.0000000004590976
42
0.26794919237425918
10
-19.629909152512145
20
6.0000000000041034
10
-24.24871130609537
20
5.9999999997709725
42
0.26794919243112231
10
-25.980762113613778
20
4.9999999996835518
10
-28.290163190001657
20
0.99999999985923116
42
0.26794919245538451
10
-28.290163189810166
20
-1.0000000002975922
10
-25.980762111999148
20
-5.0000000008179395
42
0.26794919243538973
10
-24.248711304257409
20
-6.0000000005736887
10
-19.629909151257198
20
-5.9999999998488178
42
0.26794919239767956
10
-17.897858343970071
20
-4.9999999997931699
10
-15.588457267059248
20
-0.99999999923255678
42
0.26794919249290111
10
-15.588457267354068
20
1.000000001166792
0
LWPOLYLINE
5
201
100
AcDbEntity
8
0
100
AcDbPolyline
90
12
70
1
43
0.0
10
-13.856406459635593
20
-2.0000000000013087
42
0.26794919243874754
10
-13.856406459637062
20
1.9999999999986957
10
-16.165807536401115
20
6.0000000000049081
42
0.26794919240190779
10
-19.629909151539604
20
8.000000000003638
10
-24.248711305064763
20
8.0000000000019416
42
0.26794919244891036
10
-27.712812920201785
20
6.000000000000667
10
-30.02221399696289
20
1.9999999999927578
42
0.26794919246849547
10
-30.022213996961426
20
-2.0000000000072387
10
-27.712812920197372
20
-6.0000000000134541
42
0.26794919244731713
10
-24.248711305058883
20
-8.0000000000121823
10
-19.629909151533727
20
-8.0000000000104894
42
0.26794919242054188
10
-16.165807536396706
20
-6.0000000000092175
0
LWPOLYLINE
5
202
100
AcDbEntity
8
0
100
AcDbPolyline
90
12
70
1
43
0.0
10
-4.6188021530455234
20
-19.999999998737636
42
0.26794919239727494
10
-4.61880215325791
20
-17.999999998956437
10
-6.928203230480376
20
-13.999999998550333
42
0.26794919246016002
10
-8.6602540383090112
20
-12.999999998624862
10
-13.279056191951499
20
-12.999999999324118
42
0.2679491924311212
10
-15.011106999368984
20
-13.99999999958634
10
-17.320508075724678
20
-18.000000000287169
42
0.26794919240388082
10
-17.320508075523563
20
-20.000000000111076
10
-15.011106998656725
20
-23.999999999839364
42
0.26794919245657672
10
-13.279056190848117
20
-24.999999999753236
10
-8.6602540363806355
20
-24.999999999084768
42
0.26794919243771936
10
-6.9282032289318609
20
-23.999999998791438
0
LWPOLYLINE
5
203
100
AcDbEntity
8
0
100
AcDbPolyline
90
12
70
1
43
0.0
10
-8.6602540374028099
20
-26.999999999234461
42
0.26794919244697707
10
-5.1961524222650706
20
-24.99999999923449
10
-2.8867513455032801
20
-20.999999999228869
42
0.26794919242157494
10
-2.8867513455033467
20
-16.999999999228695
10
-5.1961524222624451
20
-12.999999999228047
42
0.26794919244581228
10
-8.6602540374001187
20
-10.999999999228189
10
-13.279056190922972
20
-10.999999999228189
42
0.26794919244986476
10
-16.743157806060729
20
-12.999999999228191
10
-19.052558882823504
20
-16.999999999235584
42
0.26794919245246884
10
-19.052558882823501
20
-20.99999999923558
10
-16.743157806065653
20
-24.999999999234461
42
0.26794919246824045
10
-13.279056190927893
20
-26.999999999234461
0
LWPOLYLINE
5
204
100
AcDbEntity
8
0
100
AcDbPolyline
90
12
70
1
43
0.0
10
6.9282032305537742
20
-23.999999999997911
42
0.26794919243093568
10
8.6602540381724928
20
-24.999999999909161
10
13.279056191360477
20
-24.999999999675723
42
0.26794919245618709
10
15.011106998972361
20
-23.999999999426159
10
17.32050807563893
20
-19.999999998254371
42
0.26794919243307935
10
17.320508075343451
20
-17.999999998241712
10
15.011106997849257
20
-13.999999998365972
42
0.26794919243112197
10
13.279056190128983
20
-12.999999998628198
10
8.6602540364920628
20
-12.999999999327457
42
0.26794919246127691
10
6.9282032289620439
20
-13.999999999784595
10
4.6188021532410639
20
-18.000000000425633
42
0.26794919237413389
10
4.6188021535562376
20
-20.000000000057248
0
LWPOLYLINE
5
205
100
AcDbEntity
8
0
100
AcDbPolyline
90
12
70
1
43
0.0
10
2.8867513454903166
20
-16.999999999267899
42
0.2679491924012759
10
2.8867513454920601
20
-20.999999999267164
10
5.1961524222522737
20
-24.999999999267079
42
0.26794919244550569
10
8.6602540373893699
20
-26.999999999265935
10
13.279056190911696
20
-26.999999999265938
42
0.26794919246654053
10
16.743157806049446
20
-24.999999999265938
10
19.052558882825377
20
-20.999999999235758
42
0.26794919244708809
10
19.052558882825377
20
-16.999999999235762
10
16.74315780606004
20
-12.999999999223915
42
0.26794919244925258
10
13.279056190922283
20
-10.999999999223913
10
8.6602540374090875
20
-10.99999999922391
42
0.26794919244583421
10
5.1961524222702451
20
-12.999999999225786
0
SPLINE
5
206
100
AcDbEntity
8
0
100
AcDbSpline
70
0
71
3
72
9
73
5
74
0
42
0.000000001
43
0.0000000001
44
0.0000000001
40
0
40
0
40
0
40
0
40
0.040446313136611095
40
0.078766820291643391
40
0.078766820291643391
40
0.078766820291643391
40
0.078766820291643391
10
15.008682993472771
20
-3.2873541168130882
30
0
10
14.891423209934157
20
-3.2146412985134032
30
0
10
14.663066665637352
20
-3.0730373537344158
30
0
10
14.547249921716363
20
-2.8310038949757055
30
0
10
14.49090441547828
20
-2.7132532373538898
30
0
0
SPLINE
5
207
100
AcDbEntity
8
0
100
AcDbSpline
70
0
71
3
72
9
73
5
74
0
42
0.000000001
43
0.0000000001
44
0.0000000001
40
0
40
0
40
0
40
0
40
0.036935045772326994
40
0.073641959203244761
40
0.073641959203244761
40
0.073641959203244761
40
0.073641959203244761
10
14.49090441547828
20
-2.7132532373538898
30
0
10
14.45973739992086
20
-2.590550130177891
30
0
10
14.397595874435435
20
-2.3459018016374
30
0
10
14.492562180151234
20
-2.1120852807061974
30
0
10
14.539898236938411
20
-1.9955391854447635
30
0
0
SPLINE
5
208
100
AcDbEntity
8
0
100
AcDbSpline
70
0
71
3
72
9
73
5
74
0
42
0.000000001
43
0.0000000001
44
0.0000000001
40
0
40
0
40
0
40
0
40
0.037295153868074853
40
0.074158648708478977
40
0.074158648708478977
40
0.074158648708478977
40
0.074158648708478977
10
14.539898236938411
20
-1.9955391854447635
30
0
10
14.609937974584049
20
-1.888196753115956
30
0
10
14.749206800718135
20
-1.6747542839215868
30
0
10
14.990245653338686
20
-1.5922898418393538
30
0
10
15.110063566079305
20
-1.5512976232895626
30
0
0
SPLINE
5
209
100
AcDbEntity
8
0
100
AcDbSpline
70
0
71
3
72
9
73
5
74
0
42
0.000000001
43
0.0000000001
44
0.0000000001
40
0
40
0
40
0
40
0
40
0.038672293364458335
40
0.080106456526785302
40
0.080106456526785302
40
0.080106456526785302
40
0.080106456526785302
10
15.110063566079305
20
-1.5512976232895626
30
0
10
15.240513986566713
20
-1.5352482921962785
30
0
10
15.510731241054124
20
-1.5020034305225283
30
0
10
15.75991006163531
20
-1.6128007025660329
30
0
10
15.888795002452845
20
-1.6701093446759963
30
0
0
SPLINE
5
210
100
AcDbEntity
8
0
100
AcDbSpline
70
0
71
3
72
9
73
5
74
0
42
0.000000001
43
0.0000000001
44
0.0000000001
40
0
40
0
40
0
40
0
40
0.041582766160690121
40
0.079757991455768631
40
0.079757991455768631
40
0.079757991455768631
40
0.079757991455768631
10
15.888795002452845
20
-1.6701093446759963
30
0
10
16.010000376151993
20
-1.7436897919351835
30
0
10
16.242478829425952
20
-1.8848210639898544
30
0
10
16.36443728617418
20
-2.1272469863608268
30
0
10
16.422811268241993
20
-2.2432813051163536
30
0
0
SPLINE
5
211
100
AcDbEntity
8
0
100
AcDbSpline
70
0
71
3
72
9
73
5
74
0
42
0.000000001
43
0.0000000001
44
0.0000000001
40
0
40
0
40
0
40
0
40
0.03641752951263974
40
0.073315918581632888
40
0.073315918581632888
40
0.073315918581632888
40
0.073315918581632888
10
16.422811268241993
20
-2.2432813051163536
30
0
10
16.453990259689981
20
-2.3642089364713037
30
0
10
16.516759932126561
20
-2.607660935916023
30
0
10
16.420892039908807
20
-2.8401981034108648
30
0
10
16.372643707831564
20
-2.9572292617898266
30
0
0
SPLINE
5
212
100
AcDbEntity
8
0
100
AcDbSpline
70
0
71
3
72
9
73
5
74
0
42
0.000000001
43
0.0000000001
44
0.0000000001
40
0
40
0
40
0
40
0
40
0.037746272206227442
40
0.074636644884843811
40
0.074636644884843811
40
0.074636644884843811
40
0.074636644884843811
10
16.372643707831564
20
-2.9572292617898266
30
0
10
16.302364545991225
20
-3.0661252001486194
30
0
10
16.163399807528478
20
-3.281447853370687
30
0
10
15.922566357980115
20
-3.3684633514210427
30
0
10
15.803530518131961
20
-3.4114721731177533
30
0
0
SPLINE
5
213
100
AcDbEntity
8
0
100
AcDbSpline
70
0
71
3
72
9
73
5
74
0
42
0.000000001
43
0.0000000001
44
0.0000000001
40
0
40
0
40
0
40
0
40
0.038897545789106168
40
0.08185849964143066
40
0.08185849964143066
40
0.08185849964143066
40
0.08185849964143066
10
15.803530518131961
20
-3.4114721731177533
30
0
10
15.672325017721709
20
-3.4280145414940932
30
0
10
15.396207715449792
20
-3.4628273665279607
30
0
10
15.142063097547034
20
-3.347749335445378
30
0
10
15.008682993472771
20
-3.2873541168130882
30
0
0
LINE
5
214
100
AcDbEntity
8
0
100
AcDbLine
10
20.459339439956853
20
-3.6100191274991547
30
0
11
20.663088906515071
21
-3.2834260276440688
31
0
0
LINE
5
215
100
AcDbEntity
8
0
100
AcDbLine
10
20.663088906515071
20
-3.2834260276440688
30
0
11
19.711838588763591
21
-2.8477859787068334
31
0
0
SPLINE
5
216
100
AcDbEntity
8
0
100
AcDbSpline
70
0
71
3
72
9
73
5
74
0
42
0.000000001
43
0.0000000001
44
0.0000000001
40
0
40
0
40
0
40
0
40
0.069102436585287044
40
0.12590023441670614
40
0.12590023441670614
40
0.12590023441670614
40
0.12590023441670614
10
19.711838588763591
20
-2.8477859787068329
30
0
10
19.474719962754538
20
-2.7558838886101169
30
0
10
19.042704941659554
20
-2.5884441388947588
30
0
10
18.718658230103333
20
-2.9071712844195376
30
0
10
18.57246994303479
20
-3.05095973770378
30
0
0
SPLINE
5
217
100
AcDbEntity
8
0
100
AcDbSpline
70
0
71
3
72
9
73
5
74
0
42
0.000000001
43
0.0000000001
44
0.0000000001
40
0
40
0
40
0
40
0
40
0.027900453433597254
40
0.054895243830557668
40
0.054895243830557668
40
0.054895243830557668
40
0.054895243830557668
10
18.57246994303479
20
-3.05095973770378
30
0
10
18.528903379175937
20
-3.1361476349054653
30
0
10
18.443184444478938
20
-3.3037581864482526
30
0
10
18.473652545874437
20
-3.4893295084923039
30
0
10
18.488635264841918
20
-3.5805843894748621
30
0
0
SPLINE
5
218
100
AcDbEntity
8
0
100
AcDbSpline
70
0
71
3
72
9
73
5
74
0
42
0.000000001
43
0.0000000001
44
0.0000000001
40
0
40
0
40
0
40
0
40
0.028536662368802295
40
0.060904664061003463
40
0.060904664061003463
40
0.060904664061003463
40
0.060904664061003463
10
18.488635264841918
20
-3.5805843894748621
30
0
10
18.526184352744004
20
-3.6701042660237535
30
0
10
18.606323878345062
20
-3.8611629798119997
30
0
10
18.776658589434806
20
-3.9802887532158024
30
0
10
18.86718358126911
20
-4.0435985718408061
30
0
0
SPLINE
5
219
100
AcDbEntity
8
0
100
AcDbSpline
70
0
71
3
72
9
73
5
74
0
42
0.000000001
43
0.0000000001
44
0.0000000001
40
0
40
0
40
0
40
0
40
0.045858102207720595
40
0.08998212696975566
40
0.08998212696975566
40
0.08998212696975566
40
0.08998212696975566
10
18.86718358126911
20
-4.0435985718408061
30
0
10
19.0071708845554
20
-4.1154194761999898
30
0
10
19.281852013778838
20
-4.256345450542697
30
0
10
19.585974077814775
20
-4.205571553847661
30
0
10
19.735104687815955
20
-4.1806738463752655
30
0
0
SPLINE
5
220
100
AcDbEntity
8
0
100
AcDbSpline
70
0
71
3
72
9
73
5
74
0
42
0.000000001
43
0.0000000001
44
0.0000000001
40
0
40
0
40
0
40
0
40
0.045362381192588966
40
0.093902686861981069
40
0.093902686861981069
40
0.093902686861981069
40
0.093902686861981069
10
19.735104687815955
20
-4.1806738463752655
30
0
10
19.878394719835285
20
-4.1230886308323669
30
0
10
20.175013165635754
20
-4.0038839876711743
30
0
10
20.362449561275419
20
-3.7442364755443478
30
0
10
20.459339439956853
20
-3.6100191274991547
30
0
0
LINE
5
221
100
AcDbEntity
8
0
100
AcDbLine
10
20.636706800952762
20
-6.4560501816532359
30
0
11
19.221471383459519
21
-5.573136667875735
31
0
0
LINE
5
222
100
AcDbEntity
8
0
100
AcDbLine
10
19.221471383459519
20
-5.573136667875735
30
0
11
19.655545977311629
21
-4.8773519398504748
31
0
0
LINE
5
223
100
AcDbEntity
8
0
100
AcDbLine
10
19.655545977311629
20
-4.8773519398504748
30
0
11
19.636613157586996
21
-4.8655404474428003
31
0
0
SPLINE
5
224
100
AcDbEntity
8
0
100
AcDbSpline
70
0
71
3
72
9
73
5
74
0
42
0.000000001
43
0.0000000001
44
0.0000000001
40
0
40
0
40
0
40
0
40
0.10128414445948425
40
0.20303659117770628
40
0.20303659117770628
40
0.20303659117770628
40
0.20303659117770628
10
19.636613157586996
20
-4.8655404474428012
30
0
10
19.306078594577578
20
-4.9891988993241378
30
0
10
18.643481193000163
20
-5.2370875562732202
30
0
10
18.005038600679747
20
-4.9319470183793799
30
0
10
17.685081023176544
20
-4.7790248473386034
30
0
0
SPLINE
5
225
100
AcDbEntity
8
0
100
AcDbSpline
70
0
71
3
72
9
73
5
74
0
42
0.000000001
43
0.0000000001
44
0.0000000001
40
0
40
0
40
0
40
0
40
0.075197036780736567
40
0.14189414260228073
40
0.14189414260228073
40
0.14189414260228073
40
0.14189414260228073
10
17.685081023176544
20
-4.7790248473386034
30
0
10
17.474838682583844
20
-4.6307892406327502
30
0
10
17.078118839166549
20
-4.3510739058651362
30
0
10
16.905701783860042
20
-3.8990757013111397
30
0
10
16.824657433668296
20
-3.6866146967382765
30
0
0
SPLINE
5
226
100
AcDbEntity
8
0
100
AcDbSpline
70
0
71
3
72
9
73
5
74
0
42
0.000000001
43
0.0000000001
44
0.0000000001
40
0
40
0
40
0
40
0
40
0.065628392483172163
40
0.13740696835654431
40
0.13740696835654431
40
0.13740696835654431
40
0.13740696835654431
10
16.824657433668296
20
-3.6866146967382765
30
0
10
16.799678270192139
20
-3.4639605545526928
30
0
10
16.747379089982584
20
-2.9977868527117923
30
0
10
16.969704753774707
20
-2.5833118583390591
30
0
10
17.085843110642397
20
-2.3667986407997423
30
0
0
SPLINE
5
227
100
AcDbEntity
8
0
100
AcDbSpline
70
0
71
3
72
9
73
5
74
0
42
0.000000001
43
0.0000000001
44
0.0000000001
40
0
40
0
40
0
40
0
40
0.14004121978992573
40
0.29976804962689091
40
0.29976804962689091
40
0.29976804962689091
40
0.29976804962689091
10
17.085843110642397
20
-2.3667986407997423
30
0
10
17.435425007651983
20
-1.9984294928502733
30
0
10
18.18372956832798
20
-1.2099095043127595
30
0
10
19.220199776025439
20
-1.582440093998595
30
0
10
19.772467106389804
20
-1.7809373327199163
30
0
0
LINE
5
228
100
AcDbEntity
8
0
100
AcDbLine
10
19.772467106389808
20
-1.7809373327199161
30
0
11
21.19756205343139
21
-2.4267109412719017
31
0
0
SPLINE
5
229
100
AcDbEntity
8
0
100
AcDbSpline
70
0
71
3
72
9
73
5
74
0
42
0.000000001
43
0.0000000001
44
0.0000000001
40
0
40
0
40
0
40
0
40
0.074735571947291482
40
0.15440947911522235
40
0.15440947911522235
40
0.15440947911522235
40
0.15440947911522235
10
21.19756205343139
20
-2.4267109412719003
30
0
10
21.301940542659725
20
-2.1697243447467485
30
0
10
21.517594584405035
20
-1.6387701354576512
30
0
10
21.065483984690697
20
-1.2794889970541257
30
0
10
20.832198967749491
20
-1.0941031500687204
30
0
0
SPLINE
5
230
100
AcDbEntity
8
0
100
AcDbSpline
70
0
71
3
72
9
73
5
74
0
42
0.000000001
43
0.0000000001
44
0.0000000001
40
0
40
0
40
0
40
0
40
0.10073531823965189
40
0.20571953557949113
40
0.20571953557949113
40
0.20571953557949113
40
0.20571953557949113
10
20.832198967749491
20
-1.0941031500687204
30
0
10
20.529959724220461
20
-0.93780318711282895
30
0
10
19.912733135778367
20
-0.61861070971495402
30
0
10
19.217808729081987
20
-0.59464827027836398
30
0
10
18.863170095751116
20
-0.58241959232263607
30
0
0
LINE
5
231
100
AcDbEntity
8
0
100
AcDbLine
10
18.863170095751116
20
-0.58241959232263618
30
0
11
19.565957758766825
21
0.54408937617388942
31
0
0
SPLINE
5
232
100
AcDbEntity
8
0
100
AcDbSpline
70
0
71
3
72
9
73
5
74
0
42
0.000000001
43
0.0000000001
44
0.0000000001
40
0
40
0
40
0
40
0
40
0.047098807186127495
40
0.10630942111816136
40
0.10630942111816136
40
0.10630942111816136
40
0.10630942111816136
10
19.565957758766825
20
0.54408937617388964
30
0
10
19.721680983605619
20
0.52180005337444602
30
0
10
20.07317281272654
20
0.47148954350185845
30
0
10
20.409921742641743
20
0.3581901987475411
30
0
10
20.597479069842993
20
0.29508644283917529
30
0
0
SPLINE
5
233
100
AcDbEntity
8
0
100
AcDbSpline
70
0
71
3
72
9
73
5
74
0
42
0.000000001
43
0.0000000001
44
0.0000000001
40
0
40
0
40
0
40
0
40
0.061980296939361246
40
0.11739892554989328
40
0.11739892554989328
40
0.11739892554989328
40
0.11739892554989328
10
20.597479069842993
20
0.29508644283917529
30
0
10
20.791797190524619
20
0.22367511268971074
30
0
10
21.159861554675956
20
0.08841255594788211
30
0
10
21.500386534692421
20
-0.10583246631215126
30
0
10
21.661132702613024
20
-0.197526599777611
30
0
0
SPLINE
5
234
100
AcDbEntity
8
0
100
AcDbSpline
70
0
71
3
72
9
73
5
74
0
42
0.000000001
43
0.0000000001
44
0.0000000001
40
0
40
0
40
0
40
0
40
0.1931327291630337
40
0.38591266830681692
40
0.38591266830681692
40
0.38591266830681692
40
0.38591266830681692
10
21.661132702613024
20
-0.197526599777611
30
0
10
22.212232458627806
20
-0.66062656986403567
30
0
10
23.313425292533072
20
-1.5859805785985948
30
0
10
22.733548236515972
20
-2.9019367555499045
30
0
10
22.443874761788329
20
-3.5593133397952901
30
0
0
LINE
5
235
100
AcDbEntity
8
0
100
AcDbLine
10
22.443874761788333
20
-3.5593133397952901
30
0
11
20.636706800952762
21
-6.4560501816532359
31
0
0
LWPOLYLINE
5
236
100
AcDbEntity
8
0
100
AcDbPolyline
90
4
70
1
43
0.0
10
22.678699059925009
20
-7.9911949325689458
10
21.257917533985218
20
-6.9475474177239427
10
24.639863897804609
20
-2.3434959088699725
10
26.060645423744404
20
-3.3871434237149742
0
LINE
5
237
100
AcDbEntity
8
0
100
AcDbLine
10
25.729762004940227
20
2.2684938470533966
30
0
11
26.348633766019894
21
3.1427462706479972
31
0
0
SPLINE
5
238
100
AcDbEntity
8
0
100
AcDbSpline
70
0
71
3
72
9
73
5
74
0
42
0.000000001
43
0.0000000001
44
0.0000000001
40
0
40
0
40
0
40
0
40
0.036823688680047748
40
0.071495318594786389
40
0.071495318594786389
40
0.071495318594786389
40
0.071495318594786389
10
26.348633766019894
20
3.1427462706479972
30
0
10
26.400788129528081
20
3.0312783571863733
30
0
10
26.502048838837364
20
2.8148569645529697
30
0
10
26.642391696134329
20
2.6215304122758623
30
0
10
26.710450916024733
20
2.5277767679116145
30
0
0
SPLINE
5
239
100
AcDbEntity
8
0
100
AcDbSpline
70
0
71
3
72
9
73
5
74
0
42
0.000000001
43
0.0000000001
44
0.0000000001
40
0
40
0
40
0
40
0
40
0.032353000671690724
40
0.062209500386274132
40
0.062209500386274132
40
0.062209500386274132
40
0.062209500386274132
10
26.710450916024733
20
2.5277767679116145
30
0
10
26.779542328754591
20
2.4444954205727401
30
0
10
26.91239375451638
20
2.2843590838532668
30
0
10
27.076427993722127
20
2.1564567388074227
30
0
10
27.155153721876488
20
2.0950719614881308
30
0
0
SPLINE
5
240
100
AcDbEntity
8
0
100
AcDbSpline
70
0
71
3
72
9
73
5
74
0
42
0.000000001
43
0.0000000001
44
0.0000000001
40
0
40
0
40
0
40
0
40
0.03152499468519817
40
0.056592814985190629
40
0.056592814985190629
40
0.056592814985190629
40
0.056592814985190629
10
27.155153721876488
20
2.0950719614881308
30
0
10
27.242669174760287
20
2.0353581488754946
30
0
10
27.399774540926249
20
1.9281615328889445
30
0
10
27.582368990137756
20
1.8762829849478746
30
0
10
27.663249307573956
20
1.8533033519758868
30
0
0
SPLINE
5
241
100
AcDbEntity
8
0
100
AcDbSpline
70
0
71
3
72
9
73
5
74
0
42
0.000000001
43
0.0000000001
44
0.0000000001
40
0
40
0
40
0
40
0
40
0.019464569066792409
40
0.037353816091763602
40
0.037353816091763602
40
0.037353816091763602
40
0.037353816091763602
10
27.663249307573956
20
1.8533033519758868
30
0
10
27.731623771477992
20
1.8475066755709879
30
0
10
27.862838962591667
20
1.8363824640033399
30
0
10
27.954299893627574
20
1.9301858947088812
30
0
10
27.998101768767071
20
1.9751096245778421
30
0
0
SPLINE
5
242
100
AcDbEntity
8
0
100
AcDbSpline
70
0
71
3
72
9
73
5
74
0
42
0.000000001
43
0.0000000001
44
0.0000000001
40
0
40
0
40
0
40
0
40
0.011734127115065414
40
0.023408419105406364
40
0.023408419105406364
40
0.023408419105406364
40
0.023408419105406364
10
27.998101768767071
20
1.9751096245778421
30
0
10
28.018150122458998
20
2.0100011043582433
30
0
10
28.058144598485384
20
2.0796061439064206
30
0
10
28.048602648552912
20
2.1593005182518379
30
0
10
28.043843868852015
20
2.1990458505575585
30
0
0
SPLINE
5
243
100
AcDbEntity
8
0
100
AcDbSpline
70
0
71
3
72
9
73
5
74
0
42
0.000000001
43
0.0000000001
44
0.0000000001
40
0
40
0
40
0
40
0
40
0.01311719603073928
40
0.027901091097377761
40
0.027901091097377761
40
0.027901091097377761
40
0.027901091097377761
10
28.043843868852015
20
2.1990458505575585
30
0
10
28.03189834974836
20
2.2412814338351241
30
0
10
28.006489488286238
20
2.3311191441061805
30
0
10
27.960090443778022
20
2.4121984480010541
30
0
10
27.935505075313117
20
2.4551597758098631
30
0
0
SPLINE
5
244
100
AcDbEntity
8
0
100
AcDbSpline
70
0
71
3
72
9
73
5
74
0
42
0.000000001
43
0.0000000001
44
0.0000000001
40
0
40
0
40
0
40
0
40
0.016248528816824565
40
0.03356562480011327
40
0.03356562480011327
40
0.03356562480011327
40
0.03356562480011327
10
27.935505075313117
20
2.4551597758098631
30
0
10
27.906537321722258
20
2.5009617124591434
30
0
10
27.846696781123516
20
2.5955777012677039
30
0
10
27.778252460784095
20
2.6841757852705097
30
0
10
27.742940832536831
20
2.7298850945340405
30
0
0
SPLINE
5
245
100
AcDbEntity
8
0
100
AcDbSpline
70
0
71
3
72
9
73
5
74
0
42
0.000000001
43
0.0000000001
44
0.0000000001
40
0
40
0
40
0
40
0
40
0.017665725336176098
40
0.034940672628170466
40
0.034940672628170466
40
0.034940672628170466
40
0.034940672628170466
10
27.742940832536831
20
2.7298850945340405
30
0
10
27.706845770621964
20
2.7764357541910458
30
0
10
27.635454094488612
20
2.8685073407660964
30
0
10
27.570525074903998
20
2.9652437561607323
30
0
10
27.538423649640052
20
3.0130710116615766
30
0
0
SPLINE
5
246
100
AcDbEntity
8
0
100
AcDbSpline
70
0
71
3
72
9
73
5
74
0
42
0.000000001
43
0.0000000001
44
0.0000000001
40
0
40
0
40
0
40
0
40
0.026001788604411175
40
0.049556290579714835
40
0.049556290579714835
40
0.049556290579714835
40
0.049556290579714835
10
27.538423649640052
20
3.0130710116615766
30
0
10
27.490807259838618
20
3.0855972261386153
30
0
10
27.400056131704424
20
3.2238234925678864
30
0
10
27.326115258136934
20
3.3717046239572488
30
0
10
27.29097056848952
20
3.4419937105832501
30
0
0
SPLINE
5
247
100
AcDbEntity
8
0
100
AcDbSpline
70
0
71
3
72
9
73
5
74
0
42
0.000000001
43
0.0000000001
44
0.0000000001
40
0
40
0
40
0
40
0
40
0.0215266029861991
40
0.041694330004171151
40
0.041694330004171151
40
0.041694330004171151
40
0.041694330004171151
10
27.29097056848952
20
3.4419937105832501
30
0
10
27.262522014869333
20
3.508194221025728
30
0
10
27.207420734674685
20
3.6364163065355881
30
0
10
27.184404286653113
20
3.7740213840981616
30
0
10
27.173271131603592
20
3.8405815528379215
30
0
0
SPLINE
5
248
100
AcDbEntity
8
0
100
AcDbSpline
70
0
71
3
72
9
73
5
74
0
42
0.000000001
43
0.0000000001
44
0.0000000001
40
0
40
0
40
0
40
0
40
0.019603426543497268
40
0.039584945726318821
40
0.039584945726318821
40
0.039584945726318821
40
0.039584945726318821
10
27.173271131603592
20
3.8405815528379215
30
0
10
27.168945619781823
20
3.9061692092992315
30
0
10
27.16021116969354
20
4.0386095158740343
30
0
10
27.190084362253273
20
4.1679505147828095
30
0
10
27.205163624311922
20
4.2332387096609612
30
0
0
SPLINE
5
249
100
AcDbEntity
8
0
100
AcDbSpline
70
0
71
3
72
9
73
5
74
0
42
0.000000001
43
0.0000000001
44
0.0000000001
40
0
40
0
40
0
40
0
40
0.021653304617274174
40
0.046295432822391909
40
0.046295432822391909
40
0.046295432822391909
40
0.046295432822391909
10
27.205163624311922
20
4.2332387096609612
30
0
10
27.22898071400148
20
4.3016960001457916
30
0
10
27.279902386015827
20
4.4480597976751053
30
0
10
27.366320715310373
20
4.5768271420735376
30
0
10
27.412319454709095
20
4.6453674108614331
30
0
0
SPLINE
5
250
100
AcDbEntity
8
0
100
AcDbSpline
70
0
71
3
72
9
73
5
74
0
42
0.000000001
43
0.0000000001
44
0.0000000001
40
0
40
0
40
0
40
0
40
0.033701832660454685
40
0.064491263221085726
40
0.064491263221085726
40
0.064491263221085726
40
0.064491263221085726
10
27.412319454709095
20
4.6453674108614331
30
0
10
27.482261261110729
20
4.7350447874671779
30
0
10
27.616100731867427
20
4.906649915233527
30
0
10
27.807019919319885
20
5.0105398506472092
30
0
10
27.898168592351887
20
5.0601390024176158
30
0
0
SPLINE
5
251
100
AcDbEntity
8
0
100
AcDbSpline
70
0
71
3
72
9
73
5
74
0
42
0.000000001
43
0.0000000001
44
0.0000000001
40
0
40
0
40
0
40
0
40
0.029857617404619331
40
0.060030525715871912
40
0.060030525715871912
40
0.060030525715871912
40
0.060030525715871912
10
27.898168592351887
20
5.0601390024176158
30
0
10
27.992376365040737
20
5.0947642380430835
30
0
10
28.181786727039615
20
5.1643803453655366
30
0
10
28.383606343574787
20
5.1648057304067807
30
0
10
28.485046147949479
20
5.1650195400260257
30
0
0
SPLINE
5
252
100
AcDbEntity
8
0
100
AcDbSpline
70
0
71
3
72
9
73
5
74
0
42
0.000000001
43
0.0000000001
44
0.0000000001
40
0
40
0
40
0
40
0
40
0.031483975380145114
40
0.064799686224532471
40
0.064799686224532471
40
0.064799686224532471
40
0.064799686224532471
10
28.485046147949479
20
5.1650195400260257
30
0
10
28.58989277628524
20
5.1542266258576008
30
0
10
28.805686002389152
20
5.1320128665366251
30
0
10
29.009053329600988
20
5.0563140736540859
30
0
10
29.113611352383828
20
5.017394763362903
30
0
0
SPLINE
5
253
100
AcDbEntity
8
0
100
AcDbSpline
70
0
71
3
72
9
73
5
74
0
42
0.000000001
43
0.0000000001
44
0.0000000001
40
0
40
0
40
0
40
0
40
0.034848861472147247
40
0.070623018448753933
40
0.070623018448753933
40
0.070623018448753933
40
0.070623018448753933
10
29.113611352383828
20
5.017394763362903
30
0
10
29.219849180387968
20
4.9698499051329135
30
0
10
29.435145628252943
20
4.8734977932395704
30
0
10
29.631096047387587
20
4.7421711017898174
30
0
10
29.730354918046615
20
4.6756474416810239
30
0
0
SPLINE
5
254
100
AcDbEntity
8
0
100
AcDbSpline
70
0
71
3
72
9
73
5
74
0
42
0.000000001
43
0.0000000001
44
0.0000000001
40
0
40
0
40
0
40
0
40
0.028682124332682375
40
0.057947716103295258
40
0.057947716103295258
40
0.057947716103295258
40
0.057947716103295258
10
29.730354918046615
20
4.6756474416810239
30
0
10
29.807340837174287
20
4.6188183253670525
30
0
10
29.962878765042422
20
4.5040040438178028
30
0
10
30.104649199637315
20
4.372561758867767
30
0
10
30.176248150260339
20
4.3061788794133404
30
0
0
SPLINE
5
255
100
AcDbEntity
8
0
100
AcDbSpline
70
0
71
3
72
9
73
5
74
0
42
0.000000001
43
0.0000000001
44
0.0000000001
40
0
40
0
40
0
40
0
40
0.029574267801459869
40
0.059168858585282244
40
0.059168858585282244
40
0.059168858585282244
40
0.059168858585282244
10
30.176248150260339
20
4.3061788794133404
30
0
10
30.246240454322617
20
4.2366549602353887
30
0
10
30.386273160082951
20
4.0975593461106063
30
0
10
30.5112712999472
20
3.9448103336615068
30
0
10
30.573791836703705
20
3.8684095947567942
30
0
0
LINE
5
256
100
AcDbEntity
8
0
100
AcDbLine
10
30.573791836703709
20
3.8684095947567942
30
0
11
29.983930001519493
21
3.0351381944005991
31
0
0
SPLINE
5
257
100
AcDbEntity
8
0
100
AcDbSpline
70
0
71
3
72
9
73
5
74
0
42
0.000000001
43
0.0000000001
44
0.0000000001
40
0
40
0
40
0
40
0
40
0.028980447320549441
40
0.058221751438719098
40
0.058221751438719098
40
0.058221751438719098
40
0.058221751438719098
10
29.983930001519493
20
3.0351381944005995
30
0
10
29.940718770728591
20
3.1218625118367482
30
0
10
29.853907359205458
20
3.2960917636357614
30
0
10
29.732825330143939
20
3.4485176787683369
30
0
10
29.672013067586708
20
3.5250721009514843
30
0
0
SPLINE
5
258
100
AcDbEntity
8
0
100
AcDbSpline
70
0
71
3
72
9
73
5
74
0
42
0.000000001
43
0.0000000001
44
0.0000000001
40
0
40
0
40
0
40
0
40
0.02892566942240242
40
0.056862265228036654
40
0.056862265228036654
40
0.056862265228036654
40
0.056862265228036654
10
29.672013067586708
20
3.5250721009514843
30
0
10
29.607406642662685
20
3.5969694057646628
30
0
10
29.4804029209573
20
3.738305585604349
30
0
10
29.329254616596103
20
3.8534258976876079
30
0
10
29.254995016337269
20
3.9099848408600426
30
0
0
SPLINE
5
259
100
AcDbEntity
8
0
100
AcDbSpline
70
0
71
3
72
9
73
5
74
0
42
0.000000001
43
0.0000000001
44
0.0000000001
40
0
40
0
40
0
40
0
40
0.012617716530652247
40
0.024614920794508555
40
0.024614920794508555
40
0.024614920794508555
40
0.024614920794508555
10
29.254995016337269
20
3.9099848408600426
30
0
10
29.220123935761009
20
3.9336179053525533
30
0
10
29.152096659643476
20
3.9797218108572832
30
0
10
29.078022279943099
20
4.0152890217066828
30
0
10
29.041918752679983
20
4.0326243240307535
30
0
0
SPLINE
5
260
100
AcDbEntity
8
0
100
AcDbSpline
70
0
71
3
72
9
73
5
74
0
42
0.000000001
43
0.0000000001
44
0.0000000001
40
0
40
0
40
0
40
0
40
0.011188679341357564
40
0.021415799904087839
40
0.021415799904087839
40
0.021415799904087839
40
0.021415799904087839
10
29.041918752679983
20
4.0326243240307535
30
0
10
29.007400031487308
20
4.0470293026200483
30
0
10
28.941329139342358
20
4.0746012912059291
30
0
10
28.871132163663113
20
4.0885631979871375
30
0
10
28.837609580494338
20
4.095230710037888
30
0
0
SPLINE
5
261
100
AcDbEntity
8
0
100
AcDbSpline
70
0
71
3
72
9
73
5
74
0
42
0.000000001
43
0.0000000001
44
0.0000000001
40
0
40
0
40
0
40
0
40
0.009314357529392114
40
0.017971108575539452
40
0.017971108575539452
40
0.017971108575539452
40
0.017971108575539452
10
28.837609580494338
20
4.095230710037888
30
0
10
28.806451769383234
20
4.098614312162649
30
0
10
28.746335931582621
20
4.1051426294372062
30
0
10
28.687825744689732
20
4.0900640038079725
30
0
10
28.659641166122064
20
4.082800572749079
30
0
0
SPLINE
5
262
100
AcDbEntity
8
0
100
AcDbSpline
70
0
71
3
72
9
73
5
74
0
42
0.000000001
43
0.0000000001
44
0.0000000001
40
0
40
0
40
0
40
0
40
0.0082802863533698312
40
0.016690348662767689
40
0.016690348662767689
40
0.016690348662767689
40
0.016690348662767689
10
28.659641166122064
20
4.082800572749079
30
0
10
28.633874551317263
20
4.0717469060125779
30
0
10
28.581937484578468
20
4.0494663297183564
30
0
10
28.546076043430961
20
4.005766227408869
30
0
10
28.52800590237824
20
3.9837462809849988
30
0
0
SPLINE
5
263
100
AcDbEntity
8
0
100
AcDbSpline
70
0
71
3
72
9
73
5
74
0
42
0.000000001
43
0.0000000001
44
0.0000000001
40
0
40
0
40
0
40
0
40
0.011040419076385262
40
0.021840356157596531
40
0.021840356157596531
40
0.021840356157596531
40
0.021840356157596531
10
28.52800590237824
20
3.9837462809849988
30
0
10
28.508786182777115
20
3.9514072787731811
30
0
10
28.470765386787992
20
3.8874336812855539
30
0
10
28.472553717345583
20
3.8130778356361539
30
0
10
28.473438037059189
20
3.7763092752317737
30
0
0
SPLINE
5
264
100
AcDbEntity
8
0
100
AcDbSpline
70
0
71
3
72
9
73
5
74
0
42
0.000000001
43
0.0000000001
44
0.0000000001
40
0
40
0
40
0
40
0
40
0.011666468091466854
40
0.024502008026987418
40
0.024502008026987418
40
0.024502008026987418
40
0.024502008026987418
10
28.473438037059189
20
3.7763092752317737
30
0
10
28.480402776844137
20
3.7378460023146975
30
0
10
28.495030178108927
20
3.6570651340716589
30
0
10
28.531459237879119
20
3.5834390050612597
30
0
10
28.550542843230104
20
3.5448694674882644
30
0
0
SPLINE
5
265
100
AcDbEntity
8
0
100
AcDbSpline
70
0
71
3
72
9
73
5
74
0
42
0.000000001
43
0.0000000001
44
0.0000000001
40
0
40
0
40
0
40
0
40
0.014046097830522892
40
0.029118028826962107
40
0.029118028826962107
40
0.029118028826962107
40
0.029118028826962107
10
28.550542843230104
20
3.5448694674882644
30
0
10
28.573611845692565
20
3.5040815388085953
30
0
10
28.621434656470047
20
3.4195268035777318
30
0
10
28.67844819775474
20
3.3408668987923376
30
0
10
28.707959266831978
20
3.3001513454093381
30
0
0
SPLINE
5
266
100
AcDbEntity
8
0
100
AcDbSpline
70
0
71
3
72
9
73
5
74
0
42
0.000000001
43
0.0000000001
44
0.0000000001
40
0
40
0
40
0
40
0
40
0.015579967407628468
40
0.031093786058589295
40
0.031093786058589295
40
0.031093786058589295
40
0.031093786058589295
10
28.707959266831978
20
3.3001513454093381
30
0
10
28.738949820188896
20
3.2584775337852436
30
0
10
28.800799348541911
20
3.1753068474171089
30
0
10
28.86158261525815
20
3.0913537624504164
30
0
10
28.891909593615562
20
3.0494665206424267
30
0
0
SPLINE
5
267
100
AcDbEntity
8
0
100
AcDbSpline
70
0
71
3
72
9
73
5
74
0
42
0.000000001
43
0.0000000001
44
0.0000000001
40
0
40
0
40
0
40
0
40
0.026885919812163192
40
0.051783967470563463
40
0.051783967470563463
40
0.051783967470563463
40
0.051783967470563463
10
28.891909593615562
20
3.0494665206424267
30
0
10
28.943011494307719
20
2.9757626397184547
30
0
10
29.041436959443917
20
2.8338043433727766
30
0
10
29.125006002665813
20
2.6826354466806315
30
0
10
29.165186508767217
20
2.6099525183891981
30
0
0
SPLINE
5
268
100
AcDbEntity
8
0
100
AcDbSpline
70
0
71
3
72
9
73
5
74
0
42
0.000000001
43
0.0000000001
44
0.0000000001
40
0
40
0
40
0
40
0
40
0.023078844688853409
40
0.044749802644066916
40
0.044749802644066916
40
0.044749802644066916
40
0.044749802644066916
10
29.165186508767217
20
2.6099525183891981
30
0
10
29.19909151510354
20
2.5405989785289771
30
0
10
29.264833208964376
20
2.4061226967542995
30
0
10
29.299668151243637
20
2.2605855300900912
30
0
10
29.316537646188916
20
2.1901063406110479
30
0
0
SPLINE
5
269
100
AcDbEntity
8
0
100
AcDbSpline
70
0
71
3
72
9
73
5
74
0
42
0.000000001
43
0.0000000001
44
0.0000000001
40
0
40
0
40
0
40
0
40
0.020853693565838969
40
0.041774491010337561
40
0.041774491010337561
40
0.041774491010337561
40
0.041774491010337561
10
29.316537646188916
20
2.1901063406110479
30
0
10
29.32624352282766
20
2.1208011540369864
30
0
10
29.345686508076909
20
1.9819677677897374
30
0
10
29.321607117034159
20
1.8438593456717256
30
0
10
29.309548081713594
20
1.7746942103312302
30
0
0
SPLINE
5
270
100
AcDbEntity
8
0
100
AcDbSpline
70
0
71
3
72
9
73
5
74
0
42
0.000000001
43
0.0000000001
44
0.0000000001
40
0
40
0
40
0
40
0
40
0.022400123224160025
40
0.047795963403513192
40
0.047795963403513192
40
0.047795963403513192
40
0.047795963403513192
10
29.309548081713594
20
1.7746942103312302
30
0
10
29.287802733839314
20
1.7028315176226161
30
0
10
29.241403888583186
20
1.5494954579765596
30
0
10
29.15258056120566
20
1.4159999759943009
30
0
10
29.105385298977467
20
1.3450686737739537
30
0
0
SPLINE
5
271
100
AcDbEntity
8
0
100
AcDbSpline
70
0
71
3
72
9
73
5
74
0
42
0.000000001
43
0.0000000001
44
0.0000000001
40
0
40
0
40
0
40
0
40
0.03554431802270467
40
0.067782006207959766
40
0.067782006207959766
40
0.067782006207959766
40
0.067782006207959766
10
29.105385298977467
20
1.3450686737739537
30
0
10
29.031696458243626
20
1.250385752233224
30
0
10
28.891173929245085
20
1.0698281066606763
30
0
10
28.690172621681114
20
0.96118863453743653
30
0
10
28.594574721285611
20
0.90951879437108696
30
0
0
SPLINE
5
272
100
AcDbEntity
8
0
100
AcDbSpline
70
0
71
3
72
9
73
5
74
0
42
0.000000001
43
0.0000000001
44
0.0000000001
40
0
40
0
40
0
40
0
40
0.031137883513269366
40
0.062569474558193894
40
0.062569474558193894
40
0.062569474558193894
40
0.062569474558193894
10
28.594574721285611
20
0.90951879437108696
30
0
10
28.496102761777003
20
0.87397469665217775
30
0
10
28.298230007755578
20
0.80255123214568513
30
0
10
28.087846279779065
20
0.80402970672336149
30
0
10
27.982160634391164
20
0.80477241406786137
30
0
0
SPLINE
5
273
100
AcDbEntity
8
0
100
AcDbSpline
70
0
71
3
72
9
73
5
74
0
42
0.000000001
43
0.0000000001
44
0.0000000001
40
0
40
0
40
0
40
0
40
0.032933017157723364
40
0.068080090719378109
40
0.068080090719378109
40
0.068080090719378109
40
0.068080090719378109
10
27.982160634391164
20
0.80477241406786137
30
0
10
27.872621752627012
20
0.81733518884843481
30
0
10
27.646179790990537
20
0.84330532218461207
30
0
10
27.433602969248717
20
0.92575634207213819
30
0
10
27.323857915851839
20
0.96832256122077909
30
0
0
SPLINE
5
274
100
AcDbEntity
8
0
100
AcDbSpline
70
0
71
3
72
9
73
5
74
0
42
0.000000001
43
0.0000000001
44
0.0000000001
40
0
40
0
40
0
40
0
40
0.036913345977959734
40
0.074776641156606705
40
0.074776641156606705
40
0.074776641156606705
40
0.074776641156606705
10
27.323857915851839
20
0.96832256122077909
30
0
10
27.211911578023692
20
1.0199079858477023
30
0
10
26.985138011152515
20
1.1244063639828572
30
0
10
26.777899398396627
20
1.2637084257036346
30
0
10
26.672963730709235
20
1.3342442909196384
30
0
0
SPLINE
5
275
100
AcDbEntity
8
0
100
AcDbSpline
70
0
71
3
72
9
73
5
74
0
42
0.000000001
43
0.0000000001
44
0.0000000001
40
0
40
0
40
0
40
0
40
0.068313125076669201
40
0.13326253755150283
40
0.13326253755150283
40
0.13326253755150283
40
0.13326253755150283
10
26.672963730709235
20
1.3342442909196384
30
0
10
26.491008988312949
20
1.4729894540006838
30
0
10
26.13605888664442
20
1.7436480204829852
30
0
10
25.862895974680896
20
2.0965141653485975
30
0
10
25.729762004940227
20
2.2684938470533966
30
0
0
SPLINE
5
276
100
AcDbEntity
8
0
100
AcDbSpline
70
0
71
3
72
9
73
5
74
0
42
0.000000001
43
0.0000000001
44
0.0000000001
40
0
40
0
40
0
40
0
40
0.041122916302445786
40
0.079215166970251688
40
0.079215166970251688
40
0.079215166970251688
40
0.079215166970251688
10
25.894281332076137
20
-2.1435498558136086
30
0
10
25.786888478568674
20
-2.0531851691448182
30
0
10
25.580017381211718
20
-1.8791154682015305
30
0
10
25.500433513496258
20
-1.6213049427248021
30
0
10
25.462163965452902
20
-1.4973314217834621
30
0
0
SPLINE
5
277
100
AcDbEntity
8
0
100
AcDbSpline
70
0
71
3
72
9
73
5
74
0
42
0.000000001
43
0.0000000001
44
0.0000000001
40
0
40
0
40
0
40
0
40
0.036407093334475345
40
0.072607876084146178
40
0.072607876084146178
40
0.072607876084146178
40
0.072607876084146178
10
25.462163965452902
20
-1.4973314217834621
30
0
10
25.450426658667574
20
-1.3731350460572056
30
0
10
25.427018557702155
20
-1.1254460867660505
30
0
10
25.554208686802468
20
-0.91167550864906355
30
0
10
25.617623050088984
20
-0.80509392722783957
30
0
0
SPLINE
5
278
100
AcDbEntity
8
0
100
AcDbSpline
70
0
71
3
72
9
73
5
74
0
42
0.000000001
43
0.0000000001
44
0.0000000001
40
0
40
0
40
0
40
0
40
0.036679554211002802
40
0.072467939192205871
40
0.072467939192205871
40
0.072467939192205871
40
0.072467939192205871
10
25.617623050088984
20
-0.80509392722783957
30
0
10
25.700970895361955
20
-0.71064903576383454
30
0
10
25.865641560340507
20
-0.52405389307873251
30
0
10
26.109572019928962
20
-0.47580559981823756
30
0
10
26.230037391149736
20
-0.45197811813267763
30
0
0
SPLINE
5
279
100
AcDbEntity
8
0
100
AcDbSpline
70
0
71
3
72
9
73
5
74
0
42
0.000000001
43
0.0000000001
44
0.0000000001
40
0
40
0
40
0
40
0
40
0.037557117726653731
40
0.078625288375115898
40
0.078625288375115898
40
0.078625288375115898
40
0.078625288375115898
10
26.230037391149736
20
-0.45197811813267763
30
0
10
26.357697840619821
20
-0.45494812966679954
30
0
10
26.6249531642774
20
-0.46116580630129023
30
0
10
26.85006898277798
20
-0.60642815257187843
30
0
10
26.967653223687119
20
-0.68230270831245332
30
0
0
SPLINE
5
280
100
AcDbEntity
8
0
100
AcDbSpline
70
0
71
3
72
9
73
5
74
0
42
0.000000001
43
0.0000000001
44
0.0000000001
40
0
40
0
40
0
40
0
40
0.041412805349251298
40
0.078909555815177196
40
0.078909555815177196
40
0.078909555815177196
40
0.078909555815177196
10
26.967653223687119
20
-0.68230270831245332
30
0
10
27.076364452673637
20
-0.77235848747123914
30
0
10
27.283507019304981
20
-0.94395424081563151
30
0
10
27.36944072713451
20
-1.1981444452891981
30
0
10
27.410275259350641
20
-1.3189321822060358
30
0
0
SPLINE
5
281
100
AcDbEntity
8
0
100
AcDbSpline
70
0
71
3
72
9
73
5
74
0
42
0.000000001
43
0.0000000001
44
0.0000000001
40
0
40
0
40
0
40
0
40
0.035664037129736266
40
0.072330132974298883
40
0.072330132974298883
40
0.072330132974298883
40
0.072330132974298883
10
27.410275259350641
20
-1.3189321822060358
30
0
10
27.422849998350603
20
-1.4406070000128179
30
0
10
27.448352791000676
20
-1.687375354351766
30
0
10
27.319525508308796
20
-1.8996582468454388
30
0
10
27.254219483000458
20
-2.007270172363393
30
0
0
SPLINE
5
282
100
AcDbEntity
8
0
100
AcDbSpline
70
0
71
3
72
9
73
5
74
0
42
0.000000001
43
0.0000000001
44
0.0000000001
40
0
40
0
40
0
40
0
40
0.037213759887986343
40
0.073328751283586679
40
0.073328751283586679
40
0.073328751283586679
40
0.073328751283586679
10
27.254219483000458
20
-2.007270172363393
30
0
10
27.170044871254483
20
-2.1032490317680526
30
0
10
27.004180976079901
20
-2.2923728916239465
30
0
10
26.75846480229194
20
-2.3450741491049425
30
0
10
26.637447638535896
20
-2.3710299362572824
30
0
0
SPLINE
5
283
100
AcDbEntity
8
0
100
AcDbSpline
70
0
71
3
72
9
73
5
74
0
42
0.000000001
43
0.0000000001
44
0.0000000001
40
0
40
0
40
0
40
0
40
0.037708592516559128
40
0.079142755678886095
40
0.079142755678886095
40
0.079142755678886095
40
0.079142755678886095
10
26.637447638535896
20
-2.3710299362572824
30
0
10
26.509139923797012
20
-2.3695965913887891
30
0
10
26.239847822405622
20
-2.3665882886344276
30
0
10
26.013029252336068
20
-2.2201931380087476
30
0
10
25.894281332076137
20
-2.1435498558136086
30
0
0
SPLINE
5
284
100
AcDbEntity
8
0
100
AcDbSpline
70
0
71
3
72
9
73
5
74
0
42
0.000000001
43
0.0000000001
44
0.0000000001
40
0
40
0
40
0
40
0
40
0.05806379248104887
40
0.13292685529856332
40
0.13292685529856332
40
0.13292685529856332
40
0.13292685529856332
10
25.259231883255353
20
2.6355535769591389
30
0
10
25.066462145002063
20
2.6662834327332128
30
0
10
24.625149684898805
20
2.7366340405265142
30
0
10
24.240225793566065
20
2.9662915238568042
30
0
10
24.023440544324437
20
3.0956322997478147
30
0
0
SPLINE
5
285
100
AcDbEntity
8
0
100
AcDbSpline
70
0
71
3
72
9
73
5
74
0
42
0.000000001
43
0.0000000001
44
0.0000000001
40
0
40
0
40
0
40
0
40
0.090574230696271088
40
0.17414615319360005
40
0.17414615319360005
40
0.17414615319360005
40
0.17414615319360005
10
24.023440544324437
20
3.0956322997478147
30
0
10
23.771633174538735
20
3.2758603367995063
30
0
10
23.287485702825407
20
3.6223829526573748
30
0
10
23.07938334766996
20
4.1787627715626101
30
0
10
22.979516003042324
20
4.4457668382727942
30
0
0
SPLINE
5
286
100
AcDbEntity
8
0
100
AcDbSpline
70
0
71
3
72
9
73
5
74
0
42
0.000000001
43
0.0000000001
44
0.0000000001
40
0
40
0
40
0
40
0
40
0.082421801017818624
40
0.16964782308472287
40
0.16964782308472287
40
0.16964782308472287
40
0.16964782308472287
10
22.979516003042324
20
4.4457668382727942
30
0
10
22.942910769111414
20
4.7250190282748905
30
0
10
22.867566646886488
20
5.2998005246808599
30
0
10
23.135287632392362
20
5.8150872145282637
30
0
10
23.272938892307707
20
6.0800267071910428
30
0
0
SPLINE
5
287
100
AcDbEntity
8
0
100
AcDbSpline
70
0
71
3
72
9
73
5
74
0
42
0.000000001
43
0.0000000001
44
0.0000000001
40
0
40
0
40
0
40
0
40
0.099009135400695697
40
0.1882643527657204
40
0.1882643527657204
40
0.1882643527657204
40
0.1882643527657204
10
23.272938892307707
20
6.0800267071910428
30
0
10
23.469195158309823
20
6.3567743565469659
30
0
10
23.84237343873388
20
6.8830057681694266
30
0
10
24.448646332912446
20
7.0974768363545486
30
0
10
24.736077374198153
20
7.1991565305088283
30
0
0
SPLINE
5
288
100
AcDbEntity
8
0
100
AcDbSpline
70
0
71
3
72
9
73
5
74
0
42
0.000000001
43
0.0000000001
44
0.0000000001
40
0
40
0
40
0
40
0
40
0.089918316245668733
40
0.18975518097666388
40
0.18975518097666388
40
0.18975518097666388
40
0.18975518097666388
10
24.736077374198153
20
7.1991565305088283
30
0
10
25.041302414860237
20
7.2260253993480559
30
0
10
25.685420712974313
20
7.2827269400585841
30
0
10
26.256089777037808
20
6.974747326849922
30
0
10
26.556338812989438
20
6.8127084363934918
30
0
0
SPLINE
5
289
100
AcDbEntity
8
0
100
AcDbSpline
70
0
71
3
72
9
73
5
74
0
42
0.000000001
43
0.0000000001
44
0.0000000001
40
0
40
0
40
0
40
0
40
0.065464800779139951
40
0.11230429580767765
40
0.11230429580767765
40
0.11230429580767765
40
0.11230429580767765
10
26.556338812989438
20
6.8127084363934918
30
0
10
26.743423208335678
20
6.6955006645243618
30
0
10
27.064364859817182
20
6.4944317522800894
30
0
10
27.288962623471683
20
6.1912834301302944
30
0
10
27.382637097439545
20
6.0648473554803894
30
0
0
LINE
5
290
100
AcDbEntity
8
0
100
AcDbLine
10
27.382637097439549
20
6.0648473554803894
30
0
11
26.792312722114918
21
5.1114750579615853
31
0
0
SPLINE
5
291
100
AcDbEntity
8
0
100
AcDbSpline
70
0
71
3
72
9
73
5
74
0
42
0.000000001
43
0.0000000001
44
0.0000000001
40
0
40
0
40
0
40
0
40
0.04960022832813913
40
0.098852481679424065
40
0.098852481679424065
40
0.098852481679424065
40
0.098852481679424065
10
26.792312722114918
20
5.1114750579615853
30
0
10
26.719308774809093
20
5.2628958899435414
30
0
10
26.573813046123497
20
5.5646752470939571
30
0
10
26.303711758634005
20
5.7628021175240871
30
0
10
26.169136512611534
20
5.861516835175463
30
0
0
SPLINE
5
292
100
AcDbEntity
8
0
100
AcDbSpline
70
0
71
3
72
9
73
5
74
0
42
0.000000001
43
0.0000000001
44
0.0000000001
40
0
40
0
40
0
40
0
40
0.051667345545089303
40
0.098110443963330518
40
0.098110443963330518
40
0.098110443963330518
40
0.098110443963330518
10
26.169136512611534
20
5.861516835175463
30
0
10
26.013475285609708
20
5.9453649703793303
30
0
10
25.717892225789107
20
6.1045830932296639
30
0
10
25.384995887380406
20
6.0698369348261094
30
0
10
25.227410855825902
20
6.0533889483610279
30
0
0
SPLINE
5
293
100
AcDbEntity
8
0
100
AcDbSpline
70
0
71
3
72
9
73
5
74
0
42
0.000000001
43
0.0000000001
44
0.0000000001
40
0
40
0
40
0
40
0
40
0.046796544036750529
40
0.099703134537803662
40
0.099703134537803662
40
0.099703134537803662
40
0.099703134537803662
10
25.227410855825902
20
6.0533889483610279
30
0
10
25.078258536726523
20
5.9966122977139911
30
0
10
24.760479648479723
20
5.8756458854588125
30
0
10
24.564893776120627
20
5.5960361959230589
30
0
10
24.461107854999256
20
5.4476637760089606
30
0
0
SPLINE
5
294
100
AcDbEntity
8
0
100
AcDbSpline
70
0
71
3
72
9
73
5
74
0
42
0.000000001
43
0.0000000001
44
0.0000000001
40
0
40
0
40
0
40
0
40
0.051403048898843631
40
0.096730566643162819
40
0.096730566643162819
40
0.096730566643162819
40
0.096730566643162819
10
24.461107854999256
20
5.4476637760089606
30
0
10
24.376842936995814
20
5.2933668453438143
30
0
10
24.218272707384479
20
5.0030099530141001
30
0
10
24.247496066101348
20
4.6746366404841577
30
0
10
24.261190003361889
20
4.5207623516528948
30
0
0
SPLINE
5
295
100
AcDbEntity
8
0
100
AcDbSpline
70
0
71
3
72
9
73
5
74
0
42
0.000000001
43
0.0000000001
44
0.0000000001
40
0
40
0
40
0
40
0
40
0.044915445033975557
40
0.095258632699187509
40
0.095258632699187509
40
0.095258632699187509
40
0.095258632699187509
10
24.261190003361889
20
4.5207623516528948
30
0
10
24.314072524978968
20
4.3768743752021457
30
0
10
24.426228080804325
20
4.0717104858499837
30
0
10
24.692988468434681
20
3.8839380576809237
30
0
10
24.83396853371158
20
3.784702300019791
30
0
0
SPLINE
5
296
100
AcDbEntity
8
0
100
AcDbSpline
70
0
71
3
72
9
73
5
74
0
42
0.000000001
43
0.0000000001
44
0.0000000001
40
0
40
0
40
0
40
0
40
0.049458847250207667
40
0.10260403618225403
40
0.10260403618225403
40
0.10260403618225403
40
0.10260403618225403
10
24.83396853371158
20
3.784702300019791
30
0
10
24.983105289327892
20
3.7095983508267039
30
0
10
25.292494487016796
20
3.5537926911950923
30
0
10
25.639158725563156
20
3.5441283985105185
30
0
10
25.818718293968491
20
3.5391226435740952
30
0
0
LINE
5
297
100
AcDbEntity
8
0
100
AcDbLine
10
25.818718293968491
20
3.5391226435740952
30
0
11
25.259231883255353
21
2.6355535769591389
31
0
0
LWPOLYLINE
5
298
100
AcDbEntity
8
0
100
AcDbPolyline
90
4
70
1
43
0.0
10
21.445161358584485
20
4.7564058861287704
10
20.28691400233344
20
5.3940672912452232
10
22.353259683171949
20
9.1473749286972215
10
23.511507039422987
20
8.5097135235807677
0
SPLINE
5
299
100
AcDbEntity
8
0
100
AcDbSpline
70
0
71
3
72
9
73
5
74
0
42
0.000000001
43
0.0000000001
44
0.0000000001
40
0
40
0
40
0
40
0
40
0.042403784516568878
40
0.081843890317075979
40
0.081843890317075979
40
0.081843890317075979
40
0.081843890317075979
10
15.702294300650783
20
11.291778121623368
30
0
10
15.563189942896333
20
11.33685380194061
30
0
10
15.294703487536818
20
11.423854740133059
30
0
10
15.03268325525497
20
11.321072048819023
30
0
10
14.906417193817354
20
11.271541653768377
30
0
0
SPLINE
5
300
100
AcDbEntity
8
0
100
AcDbSpline
70
0
71
3
72
9
73
5
74
0
42
0.000000001
43
0.0000000001
44
0.0000000001
40
0
40
0
40
0
40
0
40
0.043505123230269144
40
0.096206909936250015
40
0.096206909936250015
40
0.096206909936250015
40
0.096206909936250015
10
14.906417193817354
20
11.271541653768377
30
0
10
14.788405119453961
20
11.183384632389131
30
0
10
14.52743408508692
20
10.988434842885253
30
0
10
14.392642808881945
20
10.690461462798249
30
0
10
14.318804650135458
20
10.527232755714619
30
0
0
SPLINE
5
301
100
AcDbEntity
8
0
100
AcDbSpline
70
0
71
3
72
9
73
5
74
0
42
0.000000001
43
0.0000000001
44
0.0000000001
40
0
40
0
40
0
40
0
40
0.095862312776109529
40
0.17667212894958639
40
0.17667212894958639
40
0.17667212894958639
40
0.17667212894958639
10
14.318804650135458
20
10.527232755714619
30
0
10
14.205304284870728
20
10.185502391920949
30
0
10
13.996125614054504
20
9.5557008656511755
30
0
10
14.526261475775112
20
9.1788434433310613
30
0
10
14.768745572091369
20
9.0064688916552313
30
0
0
SPLINE
5
302
100
AcDbEntity
8
0
100
AcDbSpline
70
0
71
3
72
9
73
5
74
0
42
0.000000001
43
0.0000000001
44
0.0000000001
40
0
40
0
40
0
40
0
40
0.077967115164406603
40
0.1759708207000025
40
0.1759708207000025
40
0.1759708207000025
40
0.1759708207000025
10
14.768745572091369
20
9.0064688916552313
30
0
10
15.051896461202311
20
8.9688558096488098
30
0
10
15.690964537964183
20
8.8839635458300243
30
0
10
15.973071933072449
20
9.4828037584277176
30
0
10
16.130186447681318
20
9.8163167785116059
30
0
0
SPLINE
5
303
100
AcDbEntity
8
0
100
AcDbSpline
70
0
71
3
72
9
73
5
74
0
42
0.000000001
43
0.0000000001
44
0.0000000001
40
0
40
0
40
0
40
0
40
0.093193885519468431
40
0.17107449885636422
40
0.17107449885636422
40
0.17107449885636422
40
0.17107449885636422
10
16.130186447681318
20
9.8163167785116059
30
0
10
16.241654988394266
20
10.148254924699824
30
0
10
16.446275974357285
20
10.757588377146092
30
0
10
15.93503404457174
20
11.12466757477959
30
0
10
15.702294300650783
20
11.291778121623368
30
0
0
SPLINE
5
304
100
AcDbEntity
8
0
100
AcDbSpline
70
0
71
3
72
9
73
5
74
0
42
0.000000001
43
0.0000000001
44
0.0000000001
40
0
40
0
40
0
40
0
40
0.09682952749015844
40
0.18238970584263448
40
0.18238970584263448
40
0.18238970584263448
40
0.18238970584263448
10
14.343979342992931
20
8.086367462022249
30
0
10
14.045254158592478
20
8.2292925831176973
30
0
10
13.482570440899819
20
8.4985087144963352
30
0
10
13.165016565107218
20
9.0328907047777314
30
0
10
13.016050009545264
20
9.2835727166028708
30
0
0
SPLINE
5
305
100
AcDbEntity
8
0
100
AcDbSpline
70
0
71
3
72
9
73
5
74
0
42
0.000000001
43
0.0000000001
44
0.0000000001
40
0
40
0
40
0
40
0
40
0.084385926345095549
40
0.17785778693871263
40
0.17785778693871263
40
0.17785778693871263
40
0.17785778693871263
10
13.016050009545264
20
9.2835727166028708
30
0
10
12.93706836630744
20
9.5606291474175098
30
0
10
12.770601031249512
20
10.1445730083916
30
0
10
12.967380051081033
20
10.720964945449827
30
0
10
13.070795827393251
20
11.023883517165537
30
0
0
SPLINE
5
306
100
AcDbEntity
8
0
100
AcDbSpline
70
0
71
3
72
9
73
5
74
0
42
0.000000001
43
0.0000000001
44
0.0000000001
40
0
40
0
40
0
40
0
40
0.096042767724279832
40
0.18207643989445735
40
0.18207643989445735
40
0.18207643989445735
40
0.18207643989445735
10
13.070795827393251
20
11.023883517165537
30
0
10
13.214779429953619
20
11.320085483755486
30
0
10
13.487741386158707
20
11.881620733564841
30
0
10
14.034534566342558
20
12.178589918392554
30
0
10
14.292902014849872
20
12.318912024354878
30
0
0
SPLINE
5
307
100
AcDbEntity
8
0
100
AcDbSpline
70
0
71
3
72
9
73
5
74
0
42
0.000000001
43
0.0000000001
44
0.0000000001
40
0
40
0
40
0
40
0
40
0.08730113841731367
40
0.18562935070865888
40
0.18562935070865888
40
0.18562935070865888
40
0.18562935070865888
10
14.292902014849872
20
12.318912024354878
30
0
10
14.581756986198538
20
12.389023767002962
30
0
10
15.195952422277605
20
12.538103120385543
30
0
10
15.794524049367798
20
12.32901532907033
30
0
10
16.111588553420685
20
12.218261137163264
30
0
0
SPLINE
5
308
100
AcDbEntity
8
0
100
AcDbSpline
70
0
71
3
72
9
73
5
74
0
42
0.000000001
43
0.0000000001
44
0.0000000001
40
0
40
0
40
0
40
0
40
0.096364571275999442
40
0.18143605583489941
40
0.18143605583489941
40
0.18143605583489941
40
0.18143605583489941
10
16.111588553420685
20
12.218261137163264
30
0
10
16.408975311487286
20
12.075947150098729
30
0
10
16.968897695063234
20
11.807997133186664
30
0
10
17.282708703168062
20
11.274969566622037
30
0
10
17.42984797054001
20
11.025044345365394
30
0
0
SPLINE
5
309
100
AcDbEntity
8
0
100
AcDbSpline
70
0
71
3
72
9
73
5
74
0
42
0.000000001
43
0.0000000001
44
0.0000000001
40
0
40
0
40
0
40
0
40
0.083252522973388268
40
0.17360371005723271
40
0.17360371005723271
40
0.17360371005723271
40
0.17360371005723271
10
17.42984797054001
20
11.025044345365394
30
0
10
17.508510715109843
20
10.7518959158682
30
0
10
17.672543513310714
20
10.182308604115768
30
0
10
17.483592665316117
20
9.618985569072434
30
0
10
17.385254136656894
20
9.3258068984607299
30
0
0
SPLINE
5
310
100
AcDbEntity
8
0
100
AcDbSpline
70
0
71
3
72
9
73
5
74
0
42
0.000000001
43
0.0000000001
44
0.0000000001
40
0
40
0
40
0
40
0
40
0.096774004958333951
40
0.18364782000784202
40
0.18364782000784202
40
0.18364782000784202
40
0.18364782000784202
10
17.385254136656894
20
9.3258068984607299
30
0
10
17.240710204588993
20
9.0277191831446117
30
0
10
16.966409497172151
20
8.462038770181513
30
0
10
16.421710610551511
20
8.1521210099201191
30
0
10
16.164043134117897
20
8.005515740201389
30
0
0
SPLINE
5
311
100
AcDbEntity
8
0
100
AcDbSpline
70
0
71
3
72
9
73
5
74
0
42
0.000000001
43
0.0000000001
44
0.0000000001
40
0
40
0
40
0
40
0
40
0.087460962796971367
40
0.18591377662339098
40
0.18591377662339098
40
0.18591377662339098
40
0.18591377662339098
10
16.164043134117897
20
8.005515740201389
30
0
10
15.875754982107061
20
7.9292339493767452
30
0
10
15.262947423373337
20
7.7670834840002527
30
0
10
14.662142574429513
20
7.9758256223629722
30
0
10
14.343979342992931
20
8.086367462022249
30
0
0
SPLINE
5
312
100
AcDbEntity
8
0
100
AcDbSpline
70
0
71
3
72
9
73
5
74
0
42
0.000000001
43
0.0000000001
44
0.0000000001
40
0
40
0
40
0
40
0
40
0.038507660108746934
40
0.090221731556050233
40
0.090221731556050233
40
0.090221731556050233
40
0.090221731556050233
10
19.657021915161451
20
5.7999758333946829
30
0
10
19.528468840992019
20
5.8132986740953632
30
0
10
19.227274717130285
20
5.8445134961298963
30
0
10
18.953616399631056
20
5.976166824398117
30
0
10
18.796758561289614
20
6.0516290163436137
30
0
0
SPLINE
5
313
100
AcDbEntity
8
0
100
AcDbSpline
70
0
71
3
72
9
73
5
74
0
42
0.000000001
43
0.0000000001
44
0.0000000001
40
0
40
0
40
0
40
0
40
0.11091875704694924
40
0.22527746810880306
40
0.22527746810880306
40
0.22527746810880306
40
0.22527746810880306
10
18.796758561289614
20
6.0516290163436137
30
0
10
18.459577303027732
20
6.2894006092282639
30
0
10
17.774757691112811
20
6.7723178710091432
30
0
10
18.04726560993393
20
7.5679868358235778
30
0
10
18.185600147391888
20
7.9718961926357368
30
0
0
LINE
5
314
100
AcDbEntity
8
0
100
AcDbLine
10
18.185600147391888
20
7.9718961926357377
30
0
11
19.053578018498914
21
9.7318411486334586
31
0
0
LINE
5
315
100
AcDbEntity
8
0
100
AcDbLine
10
19.053578018498914
20
9.7318411486334586
30
0
11
18.430655150677008
21
10.039057157198581
31
0
0
LINE
5
316
100
AcDbEntity
8
0
100
AcDbLine
10
18.430655150677008
20
10.039057157198581
30
0
11
18.861867941477108
21
10.913400618469556
31
0
0
LINE
5
317
100
AcDbEntity
8
0
100
AcDbLine
10
18.861867941477108
20
10.913400618469556
30
0
11
19.48479080929901
21
10.606184609904432
31
0
0
LINE
5
318
100
AcDbEntity
8
0
100
AcDbLine
10
19.48479080929901
20
10.606184609904432
30
0
11
19.89379523299619
21
11.435497541060773
31
0
0
LINE
5
319
100
AcDbEntity
8
0
100
AcDbLine
10
19.89379523299619
20
11.435497541060773
30
0
11
21.242410469094494
21
11.190256686381179
31
0
0
LINE
5
320
100
AcDbEntity
8
0
100
AcDbLine
10
21.242410469094494
20
11.190256686381179
30
0
11
20.666843160304715
21
10.023214512080351
31
0
0
LINE
5
321
100
AcDbEntity
8
0
100
AcDbLine
10
20.666843160304715
20
10.023214512080351
30
0
11
21.529929122689403
21
9.5975537471456143
31
0
0
LINE
5
322
100
AcDbEntity
8
0
100
AcDbLine
10
21.529929122689403
20
9.5975537471456143
30
0
11
21.098716331889307
21
8.7232102858746412
31
0
0
LINE
5
323
100
AcDbEntity
8
0
100
AcDbLine
10
21.098716331889307
20
8.7232102858746412
30
0
11
20.235630369504619
21
9.1488710508093778
31
0
0
LINE
5
324
100
AcDbEntity
8
0
100
AcDbLine
10
20.235630369504619
20
9.1488710508093778
30
0
11
19.46944104535039
21
7.5953164254308376
31
0
0
SPLINE
5
325
100
AcDbEntity
8
0
100
AcDbSpline
70
0
71
3
72
9
73
5
74
0
42
0.000000001
43
0.0000000001
44
0.0000000001
40
0
40
0
40
0
40
0
40
0.05193693335690068
40
0.095162060115410119
40
0.095162060115410119
40
0.095162060115410119
40
0.095162060115410119
10
19.46944104535039
20
7.5953164254308376
30
0
10
19.394789376618064
20
7.414994005514127
30
0
10
19.258007974088887
20
7.0845961199410379
30
0
10
19.527494718633541
20
6.8612979932216636
30
0
10
19.649902731643703
20
6.7598700730959678
30
0
0
SPLINE
5
326
100
AcDbEntity
8
0
100
AcDbSpline
70
0
71
3
72
9
73
5
74
0
42
0.000000001
43
0.0000000001
44
0.0000000001
40
0
40
0
40
0
40
0
40
0.0214498841210349
40
0.045130306506536461
40
0.045130306506536461
40
0.045130306506536461
40
0.045130306506536461
10
19.649902731643703
20
6.7598700730959678
30
0
10
19.717047484863599
20
6.7334281830363967
30
0
10
19.858319264049953
20
6.6777947541438687
30
0
10
20.010325790380353
20
6.677976570974935
30
0
10
20.090085469130493
20
6.6780719724842488
30
0
0
LINE
5
327
100
AcDbEntity
8
0
100
AcDbLine
10
20.090085469130493
20
6.6780719724842488
30
0
11
19.657021915161451
21
5.7999758333946829
31
0
0
SPLINE
5
328
100
AcDbEntity
8
0
100
AcDbSpline
70
0
71
3
72
9
73
5
74
0
42
0.000000001
43
0.0000000001
44
0.0000000001
40
0
40
0
40
0
40
0
40
0.030842179873570106
40
0.05941136009979292
40
0.05941136009979292
40
0.05941136009979292
40
0.05941136009979292
10
23.266616392794568
20
9.4182934219463199
30
0
10
23.177949348703876
20
9.4750282185498129
30
0
10
23.007149823279587
20
9.5843165841911535
30
0
10
22.922846802294735
20
9.7682809726019908
30
0
10
22.882307952551425
20
9.8567440503515673
30
0
0
SPLINE
5
329
100
AcDbEntity
8
0
100
AcDbSpline
70
0
71
3
72
9
73
5
74
0
42
0.000000001
43
0.0000000001
44
0.0000000001
40
0
40
0
40
0
40
0
40
0.027305312294504704
40
0.054455884380087596
40
0.054455884380087596
40
0.054455884380087596
40
0.054455884380087596
10
22.882307952551425
20
9.8567440503515673
30
0
10
22.861477894389584
20
9.9479581581188636
30
0
10
22.819935822771527
20
10.129869459950349
30
0
10
22.893690212357747
20
10.301231821060867
30
0
10
22.930462618019401
20
10.386669532541465
30
0
0
SPLINE
5
330
100
AcDbEntity
8
0
100
AcDbSpline
70
0
71
3
72
9
73
5
74
0
42
0.000000001
43
0.0000000001
44
0.0000000001
40
0
40
0
40
0
40
0
40
0.027509679915336364
40
0.054350985056273435
40
0.054350985056273435
40
0.054350985056273435
40
0.054350985056273435
10
22.930462618019401
20
10.386669532541465
30
0
10
22.98324104683315
20
10.465024277382646
30
0
10
23.087515600538531
20
10.619830061348788
30
0
10
23.264211690230084
20
10.679478097190987
30
0
10
23.351473285502202
20
10.708935357798872
30
0
0
SPLINE
5
331
100
AcDbEntity
8
0
100
AcDbSpline
70
0
71
3
72
9
73
5
74
0
42
0.000000001
43
0.0000000001
44
0.0000000001
40
0
40
0
40
0
40
0
40
0.02816781368420718
40
0.058968945352085703
40
0.058968945352085703
40
0.058968945352085703
40
0.058968945352085703
10
23.351473285502202
20
10.708935357798872
30
0
10
23.446696454053754
20
10.719165801179276
30
0
10
23.646044897831526
20
10.740583099070761
30
0
10
23.827605017083236
20
10.654494934770455
30
0
10
23.922438952221768
20
10.609528675533024
30
0
0
SPLINE
5
332
100
AcDbEntity
8
0
100
AcDbSpline
70
0
71
3
72
9
73
5
74
0
42
0.000000001
43
0.0000000001
44
0.0000000001
40
0
40
0
40
0
40
0
40
0.031059586190286908
40
0.05918216940849387
40
0.05918216940849387
40
0.05918216940849387
40
0.05918216940849387
10
23.922438952221768
20
10.609528675533024
30
0
10
24.012056389602105
20
10.553152226674838
30
0
10
24.182817014953145
20
10.445730301394391
30
0
10
24.271489131388044
20
10.265076672690741
30
0
10
24.313624946930101
20
10.179232460529089
30
0
0
SPLINE
5
333
100
AcDbEntity
8
0
100
AcDbSpline
70
0
71
3
72
9
73
5
74
0
42
0.000000001
43
0.0000000001
44
0.0000000001
40
0
40
0
40
0
40
0
40
0.02674803543741482
40
0.054247621944494326
40
0.054247621944494326
40
0.054247621944494326
40
0.054247621944494326
10
24.313624946930101
20
10.179232460529089
30
0
10
24.334831946984199
20
10.089975024284001
30
0
10
24.377841809304872
20
9.9089522471724756
30
0
10
24.302724953619041
20
9.7385365458620718
30
0
10
24.264646188190646
20
9.6521482185517034
30
0
0
SPLINE
5
334
100
AcDbEntity
8
0
100
AcDbSpline
70
0
71
3
72
9
73
5
74
0
42
0.000000001
43
0.0000000001
44
0.0000000001
40
0
40
0
40
0
40
0
40
0.027910305284150078
40
0.054996532387144734
40
0.054996532387144734
40
0.054996532387144734
40
0.054996532387144734
10
24.264646188190646
20
9.6521482185517034
30
0
10
24.211402442671883
20
9.5725722862695992
30
0
10
24.106487023617021
20
9.4157699764261711
30
0
10
23.928897084509924
20
9.3526366266453635
30
0
10
23.841432635151545
20
9.3215429526315532
30
0
0
SPLINE
5
335
100
AcDbEntity
8
0
100
AcDbSpline
70
0
71
3
72
9
73
5
74
0
42
0.000000001
43
0.0000000001
44
0.0000000001
40
0
40
0
40
0
40
0
40
0.028281449595677022
40
0.059357060926334762
40
0.059357060926334762
40
0.059357060926334762
40
0.059357060926334762
10
23.841432635151545
20
9.3215429526315532
30
0
10
23.74587776184044
20
9.3101066928085086
30
0
10
23.54532734741607
20
9.2861042890848502
30
0
10
23.362390553650954
20
9.3728689308590081
30
0
10
23.266616392794568
20
9.4182934219463199
30
0
0
ENDSEC
0
SECTION
2
OBJECTS
0
DICTIONARY
5
C
100
AcDbDictionary
3
ACAD_GROUP
350
D
3
ACAD_MLINESTYLE
350
17
0
DICTIONARY
5
D
100
AcDbDictionary
0
DICTIONARY
5
1A
330
C
100
AcDbDictionary
0
DICTIONARY
5
17
100
AcDbDictionary
0
ENDSEC
0
EOF
