0
SECTION
2
HEADER
9
$INSUNITS
70
4
9
$ACADVER
1
AC1014
9
$HANDSEED
5
FFFF
0
ENDSEC
0
SECTION
2
TABLES
0
TABLE
2
VPORT
5
8
100
AcDbSymbolTable
0
ENDTAB
0
TABLE
2
LTYPE
5
5
100
AcDbSymbolTable
0
LTYPE
5
14
100
AcDbSymbolTableRecord
100
AcDbLinetypeTableRecord
2
BYBLOCK
70
0
0
LTYPE
5
15
100
AcDbSymbolTableRecord
100
AcDbLinetypeTableRecord
2
BYLAYER
70
0
0
LTYPE
5
16
100
AcDbSymbolTableRecord
100
AcDbLinetypeTableRecord
2
DASHED
70
0
3
Dashed __ __ __ __ __ __ __ __ __ __ __ __ __ _
72
65
73
2
40
0.75
49
0.5
74
0
49
-0.25
74
0
0
ENDTAB
0
TABLE
2
LAYER
5
2
100
AcDbSymbolTable
70
2
0
LAYER
5
50
100
AcDbSymbolTableRecord
100
AcDbLayerTableRecord
2
0
70
0
62
7
6
CONTINUOUS
0
ENDTAB
0
TABLE
2
STYLE
5
3
100
AcDbSymbolTable
70
1
0
STYLE
5
11
100
AcDbSymbolTableRecord
100
AcDbTextStyleTableRecord
2
STANDARD
70
0
0
ENDTAB
0
TABLE
2
VIEW
5
6
100
AcDbSymbolTable
70
0
0
ENDTAB
0
TABLE
2
UCS
5
7
100
AcDbSymbolTable
70
0
0
ENDTAB
0
TABLE
2
APPID
5
9
100
AcDbSymbolTable
70
2
0
APPID
5
12
100
AcDbSymbolTableRecord
100
AcDbRegAppTableRecord
2
ACAD
70
0
0
ENDTAB
0
TABLE
2
DIMSTYLE
5
A
100
AcDbSymbolTable
70
1
0
ENDTAB
0
TABLE
2
BLOCK_RECORD
5
1
100
AcDbSymbolTable
70
1
0
BLOCK_RECORD
5
1F
100
AcDbSymbolTableRecord
100
AcDbBlockTableRecord
2
*MODEL_SPACE
0
BLOCK_RECORD
5
1B
100
AcDbSymbolTableRecord
100
AcDbBlockTableRecord
2
*PAPER_SPACE
0
ENDTAB
0
ENDSEC
0
SECTION
2
BLOCKS
0
BLOCK
5
20
100
AcDbEntity
100
AcDbBlockBegin
2
*MODEL_SPACE
0
ENDBLK
5
21
100
AcDbEntity
100
AcDbBlockEnd
0
BLOCK
5
1C
100
AcDbEntity
100
AcDbBlockBegin
2
*PAPER_SPACE
0
ENDBLK
5
1D
100
AcDbEntity
100
AcDbBlockEnd
0
ENDSEC
0
SECTION
2
ENTITIES
0
LINE
5
100
100
AcDbEntity
8
0
100
AcDbLine
10
-45.500000000000028
20
-1.4500000000001423
30
0
11
-45.500000000000028
21
1.4499999999999398
31
0
0
ARC
5
101
100
AcDbEntity
8
0
100
AcDbCircle
10
-45.200000000000031
20
1.4499999999999398
30
0
40
0.30000000000003879
210
0
220
0
230
1
100
AcDbArc
50
90.000048719559516
51
180
0
ARC
5
102
100
AcDbEntity
8
0
100
AcDbCircle
10
-45.200000000000024
20
-1.4500000000001423
30
0
40
0.30000000000000249
210
0
220
0
230
1
100
AcDbArc
50
180
51
270
0
CIRCLE
5
103
100
AcDbEntity
8
0
100
AcDbCircle
10
0
20
0
30
0
40
0.5
210
0
220
0
230
1
0
LINE
5
104
100
AcDbEntity
8
0
100
AcDbLine
10
1.4497474683058309
20
4.5
30
0
11
-1.4497474683058345
21
4.4999999999999991
31
0
0
LINE
5
105
100
AcDbEntity
8
0
100
AcDbLine
10
-2.156854249492381
20
4.2071067811865461
30
0
11
-4.3210678118656052
21
2.0428932188133229
31
0
0
LINE
5
106
100
AcDbEntity
8
0
100
AcDbLine
10
-4.3210678118653414
20
-2.0428932188135875
30
0
11
-2.1568542494923797
21
-4.2071067811865479
31
0
0
LINE
5
107
100
AcDbEntity
8
0
100
AcDbLine
10
-1.4497474683058311
20
-4.5
30
0
11
1.449747468305834
21
-4.4999999999999991
31
0
0
ARC
5
108
100
AcDbEntity
8
0
100
AcDbCircle
10
-1.4497474683058333
20
3.4999999999999987
30
0
40
1.0000000000000004
210
0
220
0
230
1
100
AcDbArc
50
90.000000000000057
51
135.00000000000003
0
ARC
5
109
100
AcDbEntity
8
0
100
AcDbCircle
10
1.4497474683058298
20
3.4999999999999973
30
0
40
1.0000000000000027
210
0
220
-0
230
1
100
AcDbArc
50
45.000000000000071
51
89.999999999999929
0
ARC
5
110
100
AcDbEntity
8
0
100
AcDbCircle
10
3.4999999999999973
20
1.449747468305832
30
0
40
1.000000000000002
210
0
220
0
230
1
100
AcDbArc
50
0
51
44.999999999999957
0
ARC
5
111
100
AcDbEntity
8
0
100
AcDbCircle
10
3.5000000000000062
20
-1.4497474683058345
30
0
40
0.99999999999999301
210
0
220
0
230
1
100
AcDbArc
50
-45.000000000000156
51
0
0
ARC
5
112
100
AcDbEntity
8
0
100
AcDbCircle
10
1.4497474683058336
20
-3.4999999999999991
30
0
40
0.99999999999999978
210
0
220
0
230
1
100
AcDbArc
50
270
51
315.00000000000006
0
ARC
5
113
100
AcDbEntity
8
0
100
AcDbCircle
10
-1.4497474683058305
20
-3.499999999999996
30
0
40
1.000000000000004
210
0
220
0
230
1
100
AcDbArc
50
225.00000000000011
51
269.99999999999994
0
ARC
5
114
100
AcDbEntity
8
0
100
AcDbCircle
10
-5.0281745930521495
20
2.7499999999998623
30
0
40
1.0000000000000029
210
0
220
0
230
1
100
AcDbArc
50
270
51
315.00000000000017
0
ARC
5
115
100
AcDbEntity
8
0
100
AcDbCircle
10
-5.028174593051884
20
-2.750000000000139
30
0
40
0.99999999999999933
210
0
220
-0
230
1
100
AcDbArc
50
45.000000000000355
51
90
0
LWPOLYLINE
5
116
100
AcDbEntity
8
0
100
AcDbPolyline
90
4
70
1
43
0.0
10
10.250000000000004
20
10.250000000000002
10
-59.75
20
10.250000000000002
10
-59.75
20
-59.75
10
10.250000000000004
20
-59.75
0
LWPOLYLINE
5
117
100
AcDbEntity
8
0
100
AcDbPolyline
90
4
70
1
43
0.0
10
-54.75
20
5.2500000000000018
10
-54.75
20
-54.75
10
5.2500000000000036
20
-54.75
10
5.2500000000000018
20
5.2500000000000018
0
CIRCLE
5
118
100
AcDbEntity
8
0
100
AcDbCircle
10
6.4000000000000039
20
0
30
0
40
0.5
210
0
220
0
230
1
0
CIRCLE
5
119
100
AcDbEntity
8
0
100
AcDbCircle
10
2.7500000000000018
20
7.7500000000000382
30
0
40
1.0000000000000004
210
0
220
0
230
1
0
CIRCLE
5
120
100
AcDbEntity
8
0
100
AcDbCircle
10
-4.7499999999999973
20
6.4000000000000012
30
0
40
0.50000000000000033
210
0
220
0
230
1
0
CIRCLE
5
121
100
AcDbEntity
8
0
100
AcDbCircle
10
-57.250000000000028
20
7.7500000000000373
30
0
40
0.99999999999999978
210
0
220
0
230
1
0
CIRCLE
5
122
100
AcDbEntity
8
0
100
AcDbCircle
10
-57.250000000000028
20
-57.250000000000028
30
0
40
0.999999999999998
210
0
220
0
230
1
0
CIRCLE
5
123
100
AcDbEntity
8
0
100
AcDbCircle
10
7.7500000000000391
20
-57.250000000000028
30
0
40
0.99999999999999978
210
0
220
0
230
1
0
CIRCLE
5
124
100
AcDbEntity
8
0
100
AcDbCircle
10
-49.75
20
6.4000000000000012
30
0
40
0.49999999999999789
210
0
220
0
230
1
0
CIRCLE
5
125
100
AcDbEntity
8
0
100
AcDbCircle
10
-49.75
20
-55.899999999999999
30
0
40
0.49999999999999878
210
0
220
0
230
1
0
CIRCLE
5
126
100
AcDbEntity
8
0
100
AcDbCircle
10
0.25000000000000355
20
-55.899999999999999
30
0
40
0.49999999999999978
210
0
220
0
230
1
0
CIRCLE
5
127
100
AcDbEntity
8
0
100
AcDbCircle
10
-57.250000000000028
20
7.7500000000000373
30
0
40
1.4999999999999996
210
0
220
0
230
1
0
CIRCLE
5
128
100
AcDbEntity
8
0
100
AcDbCircle
10
-49.75
20
6.4000000000000012
30
0
40
1.499999999999998
210
0
220
0
230
1
0
CIRCLE
5
129
100
AcDbEntity
8
0
100
AcDbCircle
10
6.4000000000000039
20
0
30
0
40
1.5000000000000002
210
0
220
0
230
1
0
CIRCLE
5
130
100
AcDbEntity
8
0
100
AcDbCircle
10
2.7500000000000018
20
7.7500000000000382
30
0
40
1.5000000000000002
210
0
220
0
230
1
0
CIRCLE
5
131
100
AcDbEntity
8
0
100
AcDbCircle
10
-4.7499999999999973
20
6.4000000000000012
30
0
40
1.5000000000000004
210
0
220
0
230
1
0
CIRCLE
5
132
100
AcDbEntity
8
0
100
AcDbCircle
10
-57.250000000000028
20
-57.250000000000028
30
0
40
1.499999999999998
210
0
220
0
230
1
0
CIRCLE
5
133
100
AcDbEntity
8
0
100
AcDbCircle
10
-49.75
20
-55.899999999999999
30
0
40
1.4999999999999989
210
0
220
0
230
1
0
CIRCLE
5
134
100
AcDbEntity
8
0
100
AcDbCircle
10
0.25000000000000355
20
-55.899999999999999
30
0
40
1.4999999999999996
210
0
220
0
230
1
0
CIRCLE
5
135
100
AcDbEntity
8
0
100
AcDbCircle
10
7.7500000000000391
20
-57.250000000000028
30
0
40
1.4999999999999996
210
0
220
0
230
1
0
LWPOLYLINE
5
136
100
AcDbEntity
8
0
100
AcDbPolyline
90
6
70
1
43
0.0
10
-45.099999999999994
20
1.6499999999998696
10
-39.399999999999991
20
1.6499999999998192
10
-39.400000000000013
20
-1.6500000000001811
10
-45.099999999999966
20
-1.6500000000001811
42
-0.41421356237309503
10
-45.399999999999999
20
-1.3500000000001431
10
-45.399999999999999
20
1.34999999999987
42
-0.41421356237309503
0
LINE
5
137
100
AcDbEntity
8
0
100
AcDbLine
10
4.5
20
1.449747468305832
30
0
11
4.5
21
0.40000000000000008
31
0
0
LINE
5
138
100
AcDbEntity
8
0
100
AcDbLine
10
4.5
20
-0.40000000000000008
30
0
11
4.5
21
-1.449747468305832
31
0
0
LINE
5
139
100
AcDbEntity
8
0
100
AcDbLine
10
3.4648232278140818
20
2.8991378028648436
30
0
11
4.207106781186547
21
2.1568542494923806
31
0
0
LINE
5
140
100
AcDbEntity
8
0
100
AcDbLine
10
2.8991378028648436
20
3.4648232278140823
30
0
11
2.1568542494923784
21
4.2071067811865479
31
0
0
LINE
5
141
100
AcDbEntity
8
0
100
AcDbLine
10
4.207106781186547
20
-2.1568542494923788
30
0
11
3.4648232278140831
21
-2.8991378028648436
31
0
0
LINE
5
142
100
AcDbEntity
8
0
100
AcDbLine
10
2.8991378028648458
20
-3.4648232278140818
30
0
11
2.1568542494923819
21
-4.2071067811865461
31
0
0
LINE
5
143
100
AcDbEntity
8
0
100
AcDbLine
10
-45.200000255095048
20
1.7499999999998699
30
0
11
-37.549999999999997
21
1.7499999999998661
31
0
0
LINE
5
144
100
AcDbEntity
8
0
100
AcDbLine
10
-45.200000000000024
20
-1.7500000000001448
30
0
11
-37.549999999999997
21
-1.750000000000139
31
0
0
LINE
5
145
100
AcDbEntity
8
0
100
AcDbLine
10
-5.0281745930521495
20
1.7499999999998597
30
0
11
-11.949999999999994
21
1.7499999999998463
31
0
0
LINE
5
146
100
AcDbEntity
8
0
100
AcDbLine
10
-12.75
20
1.7499999999998468
30
0
11
-36.75
21
1.7499999999998672
31
0
0
LINE
5
147
100
AcDbEntity
8
0
100
AcDbLine
10
-5.028174593051884
20
-1.7500000000001339
30
0
11
-11.949999999999994
21
-1.7500000000001323
31
0
0
LINE
5
148
100
AcDbEntity
8
0
100
AcDbLine
10
-12.750000000000007
20
-1.7500000000001326
30
0
11
-36.75
21
-1.750000000000139
31
0
0
LINE
5
149
100
AcDbEntity
8
0
100
AcDbLine
10
-53.999999999999993
20
-6.9497474683061133
30
0
11
-53.999999999999993
21
-5.9000000000002819
31
0
0
ARC
5
150
100
AcDbEntity
8
0
100
AcDbCircle
10
-52.999999999999986
20
-6.9497474683061133
30
0
40
1.000000000000002
210
0
220
0
230
1
100
AcDbArc
50
180
51
224.99999999999977
0
LINE
5
151
100
AcDbEntity
8
0
100
AcDbLine
10
-52.96482322781408
20
-8.3991378028651251
30
0
11
-53.707106781186539
21
-7.6568542494926621
31
0
0
LINE
5
152
100
AcDbEntity
8
0
100
AcDbLine
10
-52.399137802864843
20
-8.9648232278143638
30
0
11
-51.656854249492376
21
-9.7071067811868303
31
0
0
ARC
5
153
100
AcDbEntity
8
0
100
AcDbCircle
10
-50.949747468305816
20
-9.0000000000002807
30
0
40
1.0000000000000027
210
0
220
0
230
1
100
AcDbArc
50
224.99999999999957
51
269.9999999999992
0
LINE
5
154
100
AcDbEntity
8
0
100
AcDbLine
10
-50.94974746830583
20
-10.000000000000282
30
0
11
-48.050252531694156
21
-10.000000000000282
31
0
0
ARC
5
155
100
AcDbEntity
8
0
100
AcDbCircle
10
-48.050252531694156
20
-9.0000000000002807
30
0
40
1.0000000000000004
210
-0
220
0
230
1
100
AcDbArc
50
270
51
314.99999999999983
0
LINE
5
156
100
AcDbEntity
8
0
100
AcDbLine
10
-47.34314575050761
20
-9.7071067811868303
30
0
11
-45.178932188134382
21
-7.5428932188136057
31
0
0
ARC
5
157
100
AcDbEntity
8
0
100
AcDbCircle
10
-44.471825406947843
20
-8.2500000000001457
30
0
40
1.0000000000000029
210
0
220
-0
230
1
100
AcDbArc
50
90
51
134.99999999999997
0
LINE
5
158
100
AcDbEntity
8
0
100
AcDbLine
10
-44.471825406947843
20
-7.250000000000143
30
0
11
-37.549999999999997
21
-7.2500000000001297
31
0
0
LINE
5
159
100
AcDbEntity
8
0
100
AcDbLine
10
-36.749999999999993
20
-7.2500000000001306
30
0
11
-12.749999999999995
21
-7.2500000000001545
31
0
0
LINE
5
160
100
AcDbEntity
8
0
100
AcDbLine
10
-36.749999999999986
20
-3.7500000000001514
30
0
11
-12.749999999999995
21
-3.7500000000001474
31
0
0
LINE
5
161
100
AcDbEntity
8
0
100
AcDbLine
10
-52.399137802864843
20
-2.0351767721862002
30
0
11
-51.656854249492376
21
-1.2928932188137365
31
0
0
ARC
5
162
100
AcDbEntity
8
0
100
AcDbCircle
10
-50.94974746830583
20
-2.0000000000002833
30
0
40
0.99999999999999978
210
0
220
0
230
1
100
AcDbArc
50
90
51
134.99999999999997
0
LINE
5
163
100
AcDbEntity
8
0
100
AcDbLine
10
-48.050252531694156
20
-1.0000000000002824
30
0
11
-50.94974746830583
21
-1.0000000000002833
31
0
0
ARC
5
164
100
AcDbEntity
8
0
100
AcDbCircle
10
-48.05025253169417
20
-2.0000000000002864
30
0
40
1.000000000000004
210
0
220
-0
230
1
100
AcDbArc
50
44.999999999999638
51
89.99999999999919
0
LINE
5
165
100
AcDbEntity
8
0
100
AcDbLine
10
-45.178932188134652
20
-3.4571067811866953
30
0
11
-47.34314575050761
21
-1.292893218813735
31
0
0
ARC
5
166
100
AcDbEntity
8
0
100
AcDbCircle
10
-44.471825406948113
20
-2.7500000000001439
30
0
40
0.99999999999999933
210
0
220
0
230
1
100
AcDbArc
50
225.00000000000045
51
270
0
LINE
5
167
100
AcDbEntity
8
0
100
AcDbLine
10
-44.471825406948113
20
-3.7500000000001488
30
0
11
-37.549999999999997
21
-3.7500000000001514
31
0
0
LINE
5
168
100
AcDbEntity
8
0
100
AcDbLine
10
-53.999999999999993
20
-5.1000000000002821
30
0
11
-53.999999999999993
21
-4.0502525316944498
31
0
0
ARC
5
169
100
AcDbEntity
8
0
100
AcDbCircle
10
-53
20
-4.0502525316944471
30
0
40
0.99999999999999301
210
0
220
0
230
1
100
AcDbArc
50
134.9999999999998
51
180
0
LINE
5
170
100
AcDbEntity
8
0
100
AcDbLine
10
-53.707106781186539
20
-3.3431457505079032
30
0
11
-52.96482322781408
21
-2.6008621971354384
31
0
0
LINE
5
171
100
AcDbEntity
8
0
100
AcDbLine
10
-4.299999744904941
20
-7.2500000000001581
30
0
11
-11.949999999999994
21
-7.2500000000001528
31
0
0
ARC
5
172
100
AcDbEntity
8
0
100
AcDbCircle
10
-4.2999999999999616
20
-6.9500000000002267
30
0
40
0.30000000000003879
210
-0
220
0
230
1
100
AcDbArc
50
-89.999951280439817
51
0
0
LINE
5
173
100
AcDbEntity
8
0
100
AcDbLine
10
-3.999999999999968
20
-4.0500000000001455
30
0
11
-3.999999999999968
21
-6.9500000000002267
31
0
0
ARC
5
174
100
AcDbEntity
8
0
100
AcDbCircle
10
-4.2999999999999705
20
-4.0500000000001455
30
0
40
0.30000000000000249
210
-0
220
0
230
1
100
AcDbArc
50
0
51
90
0
LINE
5
175
100
AcDbEntity
8
0
100
AcDbLine
10
-4.2999999999999705
20
-3.750000000000143
30
0
11
-11.949999999999994
21
-3.7500000000001483
31
0
0
CIRCLE
5
176
100
AcDbEntity
8
0
100
AcDbCircle
10
-49.499999999999993
20
-5.5000000000002824
30
0
40
0.5
210
0
220
0
230
1
0
CIRCLE
5
177
100
AcDbEntity
8
0
100
AcDbCircle
10
-55.899999999999999
20
-5.5000000000002816
30
0
40
1.5000000000000002
210
0
220
0
230
1
0
CIRCLE
5
178
100
AcDbEntity
8
0
100
AcDbCircle
10
-55.899999999999999
20
-5.5000000000002816
30
0
40
0.5
210
0
220
0
230
1
0
LINE
5
179
100
AcDbEntity
8
0
100
AcDbLine
10
-45.200000000000024
20
-12.750000000000146
30
0
11
-37.549999999999997
21
-12.750000000000139
31
0
0
ARC
5
180
100
AcDbEntity
8
0
100
AcDbCircle
10
-45.200000000000024
20
-12.450000000000143
30
0
40
0.30000000000000249
210
0
220
0
230
1
100
AcDbArc
50
180
51
270
0
LINE
5
181
100
AcDbEntity
8
0
100
AcDbLine
10
-45.500000000000028
20
-12.450000000000143
30
0
11
-45.500000000000028
21
-9.5500000000000611
31
0
0
ARC
5
182
100
AcDbEntity
8
0
100
AcDbCircle
10
-45.200000000000031
20
-9.5500000000000611
30
0
40
0.30000000000003879
210
0
220
0
230
1
100
AcDbArc
50
90.000048719559516
51
180
0
LINE
5
183
100
AcDbEntity
8
0
100
AcDbLine
10
-45.200000255095048
20
-9.2500000000001315
30
0
11
-37.549999999999997
21
-9.250000000000135
31
0
0
LINE
5
184
100
AcDbEntity
8
0
100
AcDbLine
10
-12.75
20
-9.2500000000001528
30
0
11
-36.75
21
-9.2500000000001332
31
0
0
LINE
5
185
100
AcDbEntity
8
0
100
AcDbLine
10
-44.471825406948113
20
-14.750000000000149
30
0
11
-37.549999999999997
21
-14.750000000000153
31
0
0
ARC
5
186
100
AcDbEntity
8
0
100
AcDbCircle
10
-44.471825406948113
20
-13.750000000000144
30
0
40
0.99999999999999523
210
0
220
0
230
1
100
AcDbArc
50
225.00000000000057
51
270
0
LINE
5
187
100
AcDbEntity
8
0
100
AcDbLine
10
-45.178932188134652
20
-14.457106781186697
30
0
11
-47.34314575050761
21
-12.292893218813736
31
0
0
ARC
5
188
100
AcDbEntity
8
0
100
AcDbCircle
10
-48.05025253169417
20
-13.000000000000288
30
0
40
1.0000000000000082
210
0
220
-0
230
1
100
AcDbArc
50
44.999999999999638
51
89.99999999999919
0
ARC
5
189
100
AcDbEntity
8
0
100
AcDbCircle
10
-50.94974746830583
20
-13.000000000000284
30
0
40
0.99999999999999978
210
0
220
-0
230
1
100
AcDbArc
50
90
51
134.99999999999994
0
LINE
5
190
100
AcDbEntity
8
0
100
AcDbLine
10
-52.399137802864843
20
-13.035176772186201
30
0
11
-51.656854249492376
21
-12.292893218813736
31
0
0
LINE
5
191
100
AcDbEntity
8
0
100
AcDbLine
10
-48.050252531694156
20
-12.000000000000284
30
0
11
-50.94974746830583
21
-12.000000000000284
31
0
0
LINE
5
192
100
AcDbEntity
8
0
100
AcDbLine
10
-53.999999999999993
20
-16.100000000000282
30
0
11
-53.999999999999993
21
-15.050252531694451
31
0
0
ARC
5
193
100
AcDbEntity
8
0
100
AcDbCircle
10
-53
20
-15.050252531694447
30
0
40
0.99999999999999023
210
0
220
0
230
1
100
AcDbArc
50
134.99999999999986
51
180
0
LINE
5
194
100
AcDbEntity
8
0
100
AcDbLine
10
-53.707106781186539
20
-14.343145750507905
30
0
11
-52.96482322781408
21
-13.60086219713544
31
0
0
CIRCLE
5
195
100
AcDbEntity
8
0
100
AcDbCircle
10
-55.899999999999999
20
-16.500000000000284
30
0
40
1.5000000000000002
210
0
220
0
230
1
0
CIRCLE
5
196
100
AcDbEntity
8
0
100
AcDbCircle
10
-55.899999999999999
20
-16.500000000000284
30
0
40
0.5
210
0
220
0
230
1
0
LINE
5
197
100
AcDbEntity
8
0
100
AcDbLine
10
-52.96482322781408
20
-19.399137802865127
30
0
11
-53.707106781186539
21
-18.656854249492664
31
0
0
ARC
5
198
100
AcDbEntity
8
0
100
AcDbCircle
10
-52.999999999999986
20
-17.949747468306114
30
0
40
1.0000000000000053
210
0
220
0
230
1
100
AcDbArc
50
180
51
224.99999999999986
0
LINE
5
199
100
AcDbEntity
8
0
100
AcDbLine
10
-53.999999999999993
20
-17.949747468306114
30
0
11
-53.999999999999993
21
-16.900000000000283
31
0
0
ARC
5
200
100
AcDbEntity
8
0
100
AcDbCircle
10
-50.949747468305816
20
-20.000000000000281
30
0
40
1.0000000000000067
210
0
220
0
230
1
100
AcDbArc
50
224.99999999999957
51
269.9999999999992
0
LINE
5
201
100
AcDbEntity
8
0
100
AcDbLine
10
-50.94974746830583
20
-21.000000000000281
30
0
11
-48.050252531694156
21
-21.000000000000281
31
0
0
ARC
5
202
100
AcDbEntity
8
0
100
AcDbCircle
10
-48.050252531694156
20
-20.000000000000284
30
0
40
1.0000000000000009
210
-0
220
0
230
1
100
AcDbArc
50
270
51
315
0
LINE
5
203
100
AcDbEntity
8
0
100
AcDbLine
10
-47.34314575050761
20
-20.70710678118683
30
0
11
-45.178932188134382
21
-18.542893218813607
31
0
0
ARC
5
204
100
AcDbEntity
8
0
100
AcDbCircle
10
-44.471825406947843
20
-19.250000000000146
30
0
40
1.0000000000000031
210
0
220
-0
230
1
100
AcDbArc
50
90
51
135
0
LINE
5
205
100
AcDbEntity
8
0
100
AcDbLine
10
-44.471825406947843
20
-18.250000000000142
30
0
11
-37.549999999999997
21
-18.250000000000131
31
0
0
LINE
5
206
100
AcDbEntity
8
0
100
AcDbLine
10
-52.399137802864843
20
-19.964823227814364
30
0
11
-51.656854249492376
21
-20.70710678118683
31
0
0
CIRCLE
5
207
100
AcDbEntity
8
0
100
AcDbCircle
10
-49.499999999999993
20
-16.500000000000284
30
0
40
0.5
210
0
220
0
230
1
0
LINE
5
208
100
AcDbEntity
8
0
100
AcDbLine
10
-36.749999999999993
20
-18.250000000000131
30
0
11
-12.749999999999995
21
-18.250000000000156
31
0
0
LINE
5
209
100
AcDbEntity
8
0
100
AcDbLine
10
-36.749999999999986
20
-14.750000000000153
30
0
11
-12.749999999999995
21
-14.750000000000147
31
0
0
LINE
5
210
100
AcDbEntity
8
0
100
AcDbLine
10
2.899137802864844
20
-7.5351767721859186
30
0
11
2.1568542494923788
21
-6.7928932188134539
31
0
0
ARC
5
211
100
AcDbEntity
8
0
100
AcDbCircle
10
1.44974746830583
20
-7.5000000000000036
30
0
40
1.0000000000000027
210
0
220
-0
230
1
100
AcDbArc
50
45.000000000000028
51
89.999999999999929
0
LINE
5
212
100
AcDbEntity
8
0
100
AcDbLine
10
1.4497474683058311
20
-6.5000000000000018
30
0
11
-1.4497474683058342
21
-6.5000000000000018
31
0
0
ARC
5
213
100
AcDbEntity
8
0
100
AcDbCircle
10
-1.4497474683058331
20
-7.5000000000000018
30
0
40
1.0000000000000004
210
0
220
0
230
1
100
AcDbArc
50
90.000000000000057
51
135
0
LINE
5
214
100
AcDbEntity
8
0
100
AcDbLine
10
-2.156854249492381
20
-6.7928932188134539
30
0
11
-4.3210678118656043
21
-8.9571067811866776
31
0
0
ARC
5
215
100
AcDbEntity
8
0
100
AcDbCircle
10
-5.0281745930521495
20
-8.2500000000001386
30
0
40
1.0000000000000029
210
-0
220
0
230
1
100
AcDbArc
50
270
51
315.00000000000028
0
LINE
5
216
100
AcDbEntity
8
0
100
AcDbLine
10
-5.0281745930521495
20
-9.2500000000001421
30
0
11
-11.949999999999994
21
-9.2500000000001545
31
0
0
LINE
5
217
100
AcDbEntity
8
0
100
AcDbLine
10
-4.2999997449049445
20
-18.250000000000099
30
0
11
-11.949999999999992
21
-18.250000000000114
31
0
0
ARC
5
218
100
AcDbEntity
8
0
100
AcDbCircle
10
-4.2999999999999625
20
-17.950000000000369
30
0
40
0.29999999999984006
210
-0
220
0
230
1
100
AcDbArc
50
-89.999951280440328
51
0
0
LINE
5
219
100
AcDbEntity
8
0
100
AcDbLine
10
-3.9999999999999347
20
-15.050000000000274
30
0
11
-3.9999999999999538
21
-17.950000000000351
31
0
0
ARC
5
220
100
AcDbEntity
8
0
100
AcDbCircle
10
-4.299999999999975
20
-15.050000000000308
30
0
40
0.30000000000004023
210
0
220
-0
230
1
100
AcDbArc
50
0
51
89.999999999999673
0
LINE
5
221
100
AcDbEntity
8
0
100
AcDbLine
10
-4.2999999999999732
20
-14.750000000000272
30
0
11
-11.949999999999994
21
-14.750000000000149
31
0
0
LINE
5
222
100
AcDbEntity
8
0
100
AcDbLine
10
2.8991378028648462
20
-14.464823227814083
30
0
11
2.1568542494923819
21
-15.207106781186548
31
0
0
ARC
5
223
100
AcDbEntity
8
0
100
AcDbCircle
10
1.449747468305834
20
-14.5
30
0
40
0.99999999999999978
210
-0
220
0
230
1
100
AcDbArc
50
270
51
315
0
LINE
5
224
100
AcDbEntity
8
0
100
AcDbLine
10
-1.4497474683058309
20
-15.5
30
0
11
1.4497474683058342
21
-15.5
31
0
0
ARC
5
225
100
AcDbEntity
8
0
100
AcDbCircle
10
-1.44974746830583
20
-14.499999999999996
30
0
40
1.000000000000004
210
0
220
0
230
1
100
AcDbArc
50
225.00000000000006
51
269.99999999999994
0
LINE
5
226
100
AcDbEntity
8
0
100
AcDbLine
10
-4.3210678118653405
20
-13.042893218813589
30
0
11
-2.1568542494923792
21
-15.207106781186548
31
0
0
ARC
5
227
100
AcDbEntity
8
0
100
AcDbCircle
10
-5.028174593051884
20
-13.75000000000014
30
0
40
0.99999999999999933
210
0
220
-0
230
1
100
AcDbArc
50
45.000000000000327
51
90
0
LINE
5
228
100
AcDbEntity
8
0
100
AcDbLine
10
-5.028174593051884
20
-12.750000000000135
30
0
11
-11.949999999999994
21
-12.750000000000131
31
0
0
LINE
5
229
100
AcDbEntity
8
0
100
AcDbLine
10
4.2071067811865479
20
-13.15685424949238
30
0
11
3.464823227814084
21
-13.899137802864844
31
0
0
LINE
5
230
100
AcDbEntity
8
0
100
AcDbLine
10
4.5
20
-11.400000000000002
30
0
11
4.5
21
-12.449747468305832
31
0
0
ARC
5
231
100
AcDbEntity
8
0
100
AcDbCircle
10
3.5000000000000071
20
-12.449747468305837
30
0
40
0.99999999999999301
210
-0
220
0
230
1
100
AcDbArc
50
-45.00000000000005
51
0
0
LINE
5
232
100
AcDbEntity
8
0
100
AcDbLine
10
4.5
20
-9.5502525316941682
30
0
11
4.5
21
-10.600000000000001
31
0
0
LINE
5
233
100
AcDbEntity
8
0
100
AcDbLine
10
3.4648232278140823
20
-8.1008621971351573
30
0
11
4.2071067811865479
21
-8.8431457505076203
31
0
0
ARC
5
234
100
AcDbEntity
8
0
100
AcDbCircle
10
3.4999999999999982
20
-9.5502525316941682
30
0
40
1.000000000000002
210
0
220
0
230
1
100
AcDbArc
50
0
51
44.999999999999922
0
CIRCLE
5
235
100
AcDbEntity
8
0
100
AcDbCircle
10
6.4000000000000039
20
-11
30
0
40
1.5000000000000002
210
0
220
0
230
1
0
CIRCLE
5
236
100
AcDbEntity
8
0
100
AcDbCircle
10
6.4000000000000039
20
-11
30
0
40
0.5
210
0
220
0
230
1
0
CIRCLE
5
237
100
AcDbEntity
8
0
100
AcDbCircle
10
4.0708177569589076e-16
20
-11
30
0
40
0.5
210
0
220
0
230
1
0
LINE
5
238
100
AcDbEntity
8
0
100
AcDbLine
10
-12.750000000000007
20
-12.750000000000131
30
0
11
-36.75
21
-12.750000000000139
31
0
0
LINE
5
239
100
AcDbEntity
8
0
100
AcDbLine
10
-45.200000000000024
20
-23.750000000000146
30
0
11
-37.549999999999997
21
-23.750000000000142
31
0
0
ARC
5
240
100
AcDbEntity
8
0
100
AcDbCircle
10
-45.200000000000024
20
-23.450000000000145
30
0
40
0.30000000000000249
210
0
220
0
230
1
100
AcDbArc
50
180
51
270
0
LINE
5
241
100
AcDbEntity
8
0
100
AcDbLine
10
-45.500000000000028
20
-23.450000000000145
30
0
11
-45.500000000000028
21
-20.550000000000065
31
0
0
ARC
5
242
100
AcDbEntity
8
0
100
AcDbCircle
10
-45.200000000000031
20
-20.550000000000065
30
0
40
0.30000000000003879
210
0
220
0
230
1
100
AcDbArc
50
90.000048719559516
51
180
0
LINE
5
243
100
AcDbEntity
8
0
100
AcDbLine
10
-45.200000255095048
20
-20.250000000000131
30
0
11
-37.549999999999997
21
-20.250000000000135
31
0
0
LINE
5
244
100
AcDbEntity
8
0
100
AcDbLine
10
-12.75
20
-20.250000000000156
30
0
11
-36.75
21
-20.250000000000135
31
0
0
LINE
5
245
100
AcDbEntity
8
0
100
AcDbLine
10
-44.471825406948113
20
-25.750000000000153
30
0
11
-37.549999999999997
21
-25.750000000000153
31
0
0
ARC
5
246
100
AcDbEntity
8
0
100
AcDbCircle
10
-44.471825406948113
20
-24.750000000000149
30
0
40
0.99999999999999523
210
0
220
0
230
1
100
AcDbArc
50
225.0000000000004
51
270
0
LINE
5
247
100
AcDbEntity
8
0
100
AcDbLine
10
-45.178932188134652
20
-25.457106781186699
30
0
11
-47.34314575050761
21
-23.292893218813738
31
0
0
ARC
5
248
100
AcDbEntity
8
0
100
AcDbCircle
10
-48.05025253169417
20
-24.000000000000288
30
0
40
1.0000000000000082
210
0
220
-0
230
1
100
AcDbArc
50
44.999999999999567
51
89.99999999999919
0
ARC
5
249
100
AcDbEntity
8
0
100
AcDbCircle
10
-50.94974746830583
20
-24.000000000000284
30
0
40
0.99999999999999978
210
0
220
-0
230
1
100
AcDbArc
50
90
51
135
0
LINE
5
250
100
AcDbEntity
8
0
100
AcDbLine
10
-52.399137802864843
20
-24.035176772186201
30
0
11
-51.656854249492376
21
-23.292893218813738
31
0
0
LINE
5
251
100
AcDbEntity
8
0
100
AcDbLine
10
-48.050252531694156
20
-23.000000000000284
30
0
11
-50.94974746830583
21
-23.000000000000288
31
0
0
LINE
5
252
100
AcDbEntity
8
0
100
AcDbLine
10
-53.999999999999993
20
-27.100000000000286
30
0
11
-53.999999999999993
21
-26.050252531694454
31
0
0
ARC
5
253
100
AcDbEntity
8
0
100
AcDbCircle
10
-53
20
-26.050252531694447
30
0
40
0.99999999999999023
210
0
220
0
230
1
100
AcDbArc
50
134.99999999999972
51
180
0
LINE
5
254
100
AcDbEntity
8
0
100
AcDbLine
10
-53.707106781186539
20
-25.343145750507901
30
0
11
-52.96482322781408
21
-24.600862197135438
31
0
0
CIRCLE
5
255
100
AcDbEntity
8
0
100
AcDbCircle
10
-55.899999999999999
20
-27.500000000000284
30
0
40
1.5000000000000002
210
0
220
0
230
1
0
CIRCLE
5
256
100
AcDbEntity
8
0
100
AcDbCircle
10
-55.899999999999999
20
-27.500000000000284
30
0
40
0.5
210
0
220
0
230
1
0
LINE
5
257
100
AcDbEntity
8
0
100
AcDbLine
10
-52.96482322781408
20
-30.399137802865127
30
0
11
-53.707106781186539
21
-29.656854249492667
31
0
0
ARC
5
258
100
AcDbEntity
8
0
100
AcDbCircle
10
-52.999999999999986
20
-28.949747468306114
30
0
40
1.0000000000000053
210
0
220
0
230
1
100
AcDbArc
50
180
51
225
0
LINE
5
259
100
AcDbEntity
8
0
100
AcDbLine
10
-53.999999999999993
20
-28.949747468306114
30
0
11
-53.999999999999993
21
-27.900000000000283
31
0
0
ARC
5
260
100
AcDbEntity
8
0
100
AcDbCircle
10
-50.949747468305816
20
-31.000000000000281
30
0
40
1.0000000000000067
210
0
220
0
230
1
100
AcDbArc
50
224.99999999999957
51
269.9999999999992
0
LINE
5
261
100
AcDbEntity
8
0
100
AcDbLine
10
-50.94974746830583
20
-32.000000000000284
30
0
11
-48.050252531694156
21
-32.000000000000284
31
0
0
ARC
5
262
100
AcDbEntity
8
0
100
AcDbCircle
10
-48.050252531694156
20
-31.000000000000281
30
0
40
1.0000000000000009
210
-0
220
0
230
1
100
AcDbArc
50
270
51
314.99999999999983
0
LINE
5
263
100
AcDbEntity
8
0
100
AcDbLine
10
-47.34314575050761
20
-31.70710678118683
30
0
11
-45.178932188134382
21
-29.54289321881361
31
0
0
ARC
5
264
100
AcDbEntity
8
0
100
AcDbCircle
10
-44.471825406947843
20
-30.250000000000146
30
0
40
1.0000000000000031
210
0
220
-0
230
1
100
AcDbArc
50
90
51
135.00000000000017
0
LINE
5
265
100
AcDbEntity
8
0
100
AcDbLine
10
-44.471825406947843
20
-29.250000000000146
30
0
11
-37.549999999999997
21
-29.250000000000131
31
0
0
LINE
5
266
100
AcDbEntity
8
0
100
AcDbLine
10
-52.399137802864843
20
-30.964823227814367
30
0
11
-51.656854249492376
21
-31.70710678118683
31
0
0
CIRCLE
5
267
100
AcDbEntity
8
0
100
AcDbCircle
10
-49.499999999999993
20
-27.500000000000284
30
0
40
0.5
210
0
220
0
230
1
0
LINE
5
268
100
AcDbEntity
8
0
100
AcDbLine
10
-36.749999999999993
20
-29.250000000000131
30
0
11
-12.749999999999995
21
-29.250000000000156
31
0
0
LINE
5
269
100
AcDbEntity
8
0
100
AcDbLine
10
-36.749999999999986
20
-25.750000000000153
30
0
11
-12.749999999999995
21
-25.750000000000149
31
0
0
LINE
5
270
100
AcDbEntity
8
0
100
AcDbLine
10
2.899137802864844
20
-18.53517677218592
30
0
11
2.1568542494923792
21
-17.792893218813454
31
0
0
ARC
5
271
100
AcDbEntity
8
0
100
AcDbCircle
10
1.4497474683058307
20
-18.500000000000007
30
0
40
1.0000000000000027
210
0
220
-0
230
1
100
AcDbArc
50
45.000000000000185
51
89.999999999999929
0
LINE
5
272
100
AcDbEntity
8
0
100
AcDbLine
10
1.4497474683058318
20
-17.500000000000004
30
0
11
-1.4497474683058336
21
-17.500000000000004
31
0
0
ARC
5
273
100
AcDbEntity
8
0
100
AcDbCircle
10
-1.4497474683058327
20
-18.500000000000004
30
0
40
1.0000000000000004
210
0
220
0
230
1
100
AcDbArc
50
90.000000000000057
51
134.99999999999994
0
LINE
5
274
100
AcDbEntity
8
0
100
AcDbLine
10
-2.1568542494923806
20
-17.792893218813454
30
0
11
-4.3210678118656043
21
-19.957106781186681
31
0
0
ARC
5
275
100
AcDbEntity
8
0
100
AcDbCircle
10
-5.0281745930521478
20
-19.250000000000142
30
0
40
1.0000000000000029
210
-0
220
0
230
1
100
AcDbArc
50
270
51
315.00000000000017
0
LINE
5
276
100
AcDbEntity
8
0
100
AcDbLine
10
-5.0281745930521478
20
-20.250000000000142
30
0
11
-11.949999999999994
21
-20.250000000000156
31
0
0
LINE
5
277
100
AcDbEntity
8
0
100
AcDbLine
10
-4.2999997449049445
20
-29.250000000000099
30
0
11
-11.949999999999992
21
-29.250000000000114
31
0
0
ARC
5
278
100
AcDbEntity
8
0
100
AcDbCircle
10
-4.2999999999999625
20
-28.950000000000369
30
0
40
0.29999999999984006
210
-0
220
0
230
1
100
AcDbArc
50
-89.999951280440328
51
0
0
LINE
5
279
100
AcDbEntity
8
0
100
AcDbLine
10
-3.9999999999999347
20
-26.050000000000274
30
0
11
-3.9999999999999538
21
-28.950000000000351
31
0
0
ARC
5
280
100
AcDbEntity
8
0
100
AcDbCircle
10
-4.299999999999975
20
-26.05000000000031
30
0
40
0.30000000000004023
210
0
220
-0
230
1
100
AcDbArc
50
0
51
89.999999999999673
0
LINE
5
281
100
AcDbEntity
8
0
100
AcDbLine
10
-4.2999999999999732
20
-25.750000000000274
30
0
11
-11.949999999999994
21
-25.750000000000149
31
0
0
LINE
5
282
100
AcDbEntity
8
0
100
AcDbLine
10
2.8991378028648462
20
-25.464823227814083
30
0
11
2.1568542494923824
21
-26.20710678118655
31
0
0
ARC
5
283
100
AcDbEntity
8
0
100
AcDbCircle
10
1.4497474683058345
20
-25.500000000000004
30
0
40
0.99999999999999978
210
-0
220
0
230
1
100
AcDbArc
50
270
51
315.00000000000006
0
LINE
5
284
100
AcDbEntity
8
0
100
AcDbLine
10
-1.4497474683058305
20
-26.500000000000004
30
0
11
1.4497474683058349
21
-26.5
31
0
0
ARC
5
285
100
AcDbEntity
8
0
100
AcDbCircle
10
-1.4497474683058296
20
-25.5
30
0
40
1.000000000000004
210
0
220
0
230
1
100
AcDbArc
50
225
51
269.99999999999994
0
LINE
5
286
100
AcDbEntity
8
0
100
AcDbLine
10
-4.3210678118653405
20
-24.042893218813589
30
0
11
-2.1568542494923788
21
-26.20710678118655
31
0
0
ARC
5
287
100
AcDbEntity
8
0
100
AcDbCircle
10
-5.0281745930518831
20
-24.750000000000139
30
0
40
0.99999999999999933
210
0
220
-0
230
1
100
AcDbArc
50
45.000000000000291
51
90
0
LINE
5
288
100
AcDbEntity
8
0
100
AcDbLine
10
-5.0281745930518831
20
-23.750000000000139
30
0
11
-11.949999999999994
21
-23.750000000000135
31
0
0
LINE
5
289
100
AcDbEntity
8
0
100
AcDbLine
10
4.2071067811865479
20
-24.15685424949238
30
0
11
3.464823227814084
21
-24.899137802864843
31
0
0
LINE
5
290
100
AcDbEntity
8
0
100
AcDbLine
10
4.5
20
-22.400000000000002
30
0
11
4.5
21
-23.449747468305834
31
0
0
ARC
5
291
100
AcDbEntity
8
0
100
AcDbCircle
10
3.5000000000000071
20
-23.449747468305837
30
0
40
0.99999999999999301
210
-0
220
0
230
1
100
AcDbArc
50
-45.00000000000005
51
0
0
LINE
5
292
100
AcDbEntity
8
0
100
AcDbLine
10
4.5
20
-20.55025253169417
30
0
11
4.5
21
-21.600000000000001
31
0
0
LINE
5
293
100
AcDbEntity
8
0
100
AcDbLine
10
3.4648232278140823
20
-19.100862197135157
30
0
11
4.2071067811865479
21
-19.84314575050762
31
0
0
ARC
5
294
100
AcDbEntity
8
0
100
AcDbCircle
10
3.4999999999999982
20
-20.55025253169417
30
0
40
1.000000000000002
210
0
220
0
230
1
100
AcDbArc
50
0
51
45
0
CIRCLE
5
295
100
AcDbEntity
8
0
100
AcDbCircle
10
6.4000000000000048
20
-22
30
0
40
1.5000000000000002
210
0
220
0
230
1
0
CIRCLE
5
296
100
AcDbEntity
8
0
100
AcDbCircle
10
6.4000000000000048
20
-22
30
0
40
0.5
210
0
220
0
230
1
0
CIRCLE
5
297
100
AcDbEntity
8
0
100
AcDbCircle
10
8.1416355139178153e-16
20
-22
30
0
40
0.5
210
0
220
0
230
1
0
LINE
5
298
100
AcDbEntity
8
0
100
AcDbLine
10
-12.750000000000007
20
-23.750000000000135
30
0
11
-36.75
21
-23.750000000000142
31
0
0
LINE
5
299
100
AcDbEntity
8
0
100
AcDbLine
10
-45.200000000000024
20
-34.750000000000149
30
0
11
-37.549999999999997
21
-34.750000000000142
31
0
0
ARC
5
300
100
AcDbEntity
8
0
100
AcDbCircle
10
-45.200000000000024
20
-34.450000000000145
30
0
40
0.30000000000000249
210
0
220
0
230
1
100
AcDbArc
50
180
51
270
0
LINE
5
301
100
AcDbEntity
8
0
100
AcDbLine
10
-45.500000000000028
20
-34.450000000000145
30
0
11
-45.500000000000028
21
-31.550000000000065
31
0
0
ARC
5
302
100
AcDbEntity
8
0
100
AcDbCircle
10
-45.200000000000031
20
-31.550000000000065
30
0
40
0.30000000000003879
210
0
220
0
230
1
100
AcDbArc
50
90.000048719559516
51
180
0
LINE
5
303
100
AcDbEntity
8
0
100
AcDbLine
10
-45.200000255095048
20
-31.250000000000135
30
0
11
-37.549999999999997
21
-31.250000000000139
31
0
0
LINE
5
304
100
AcDbEntity
8
0
100
AcDbLine
10
-12.749999999999996
20
-31.250000000000156
30
0
11
-36.75
21
-31.250000000000135
31
0
0
LINE
5
305
100
AcDbEntity
8
0
100
AcDbLine
10
-44.471825406948113
20
-36.750000000000149
30
0
11
-37.549999999999997
21
-36.750000000000156
31
0
0
ARC
5
306
100
AcDbEntity
8
0
100
AcDbCircle
10
-44.471825406948113
20
-35.750000000000149
30
0
40
0.99999999999999523
210
0
220
0
230
1
100
AcDbArc
50
225.00000000000028
51
270
0
LINE
5
307
100
AcDbEntity
8
0
100
AcDbLine
10
-45.178932188134652
20
-36.457106781186695
30
0
11
-47.34314575050761
21
-34.292893218813738
31
0
0
ARC
5
308
100
AcDbEntity
8
0
100
AcDbCircle
10
-48.05025253169417
20
-35.000000000000291
30
0
40
1.0000000000000082
210
0
220
-0
230
1
100
AcDbArc
50
44.999999999999709
51
89.99999999999919
0
ARC
5
309
100
AcDbEntity
8
0
100
AcDbCircle
10
-50.94974746830583
20
-35.000000000000284
30
0
40
0.99999999999999978
210
0
220
-0
230
1
100
AcDbArc
50
90
51
135
0
LINE
5
310
100
AcDbEntity
8
0
100
AcDbLine
10
-52.399137802864843
20
-35.035176772186205
30
0
11
-51.656854249492376
21
-34.292893218813738
31
0
0
LINE
5
311
100
AcDbEntity
8
0
100
AcDbLine
10
-48.050252531694156
20
-34.000000000000284
30
0
11
-50.94974746830583
21
-34.000000000000284
31
0
0
LINE
5
312
100
AcDbEntity
8
0
100
AcDbLine
10
-53.999999999999993
20
-38.100000000000286
30
0
11
-53.999999999999993
21
-37.050252531694454
31
0
0
ARC
5
313
100
AcDbEntity
8
0
100
AcDbCircle
10
-53
20
-37.050252531694447
30
0
40
0.99999999999999023
210
0
220
0
230
1
100
AcDbArc
50
135
51
180
0
LINE
5
314
100
AcDbEntity
8
0
100
AcDbLine
10
-53.707106781186539
20
-36.343145750507908
30
0
11
-52.96482322781408
21
-35.600862197135442
31
0
0
CIRCLE
5
315
100
AcDbEntity
8
0
100
AcDbCircle
10
-55.899999999999999
20
-38.500000000000284
30
0
40
1.5000000000000002
210
0
220
0
230
1
0
CIRCLE
5
316
100
AcDbEntity
8
0
100
AcDbCircle
10
-55.899999999999999
20
-38.500000000000284
30
0
40
0.5
210
0
220
0
230
1
0
LINE
5
317
100
AcDbEntity
8
0
100
AcDbLine
10
-52.96482322781408
20
-41.399137802865127
30
0
11
-53.707106781186539
21
-40.65685424949266
31
0
0
ARC
5
318
100
AcDbEntity
8
0
100
AcDbCircle
10
-52.999999999999986
20
-39.949747468306114
30
0
40
1.0000000000000053
210
0
220
0
230
1
100
AcDbArc
50
180
51
224.99999999999972
0
LINE
5
319
100
AcDbEntity
8
0
100
AcDbLine
10
-53.999999999999993
20
-39.949747468306114
30
0
11
-53.999999999999993
21
-38.900000000000283
31
0
0
ARC
5
320
100
AcDbEntity
8
0
100
AcDbCircle
10
-50.949747468305816
20
-42.000000000000284
30
0
40
1.0000000000000067
210
0
220
0
230
1
100
AcDbArc
50
224.99999999999943
51
269.9999999999992
0
LINE
5
321
100
AcDbEntity
8
0
100
AcDbLine
10
-50.94974746830583
20
-43.000000000000284
30
0
11
-48.050252531694156
21
-43.000000000000284
31
0
0
ARC
5
322
100
AcDbEntity
8
0
100
AcDbCircle
10
-48.050252531694156
20
-42.000000000000284
30
0
40
1.0000000000000009
210
-0
220
0
230
1
100
AcDbArc
50
270
51
315
0
LINE
5
323
100
AcDbEntity
8
0
100
AcDbLine
10
-47.34314575050761
20
-42.70710678118683
30
0
11
-45.178932188134382
21
-40.542893218813603
31
0
0
ARC
5
324
100
AcDbEntity
8
0
100
AcDbCircle
10
-44.471825406947843
20
-41.250000000000149
30
0
40
1.0000000000000031
210
0
220
-0
230
1
100
AcDbArc
50
90
51
134.99999999999972
0
LINE
5
325
100
AcDbEntity
8
0
100
AcDbLine
10
-44.471825406947843
20
-40.250000000000142
30
0
11
-37.549999999999997
21
-40.250000000000128
31
0
0
LINE
5
326
100
AcDbEntity
8
0
100
AcDbLine
10
-52.399137802864843
20
-41.964823227814364
30
0
11
-51.656854249492376
21
-42.70710678118683
31
0
0
CIRCLE
5
327
100
AcDbEntity
8
0
100
AcDbCircle
10
-49.499999999999993
20
-38.500000000000284
30
0
40
0.5
210
0
220
0
230
1
0
LINE
5
328
100
AcDbEntity
8
0
100
AcDbLine
10
-36.749999999999993
20
-40.250000000000135
30
0
11
-12.749999999999993
21
-40.250000000000156
31
0
0
LINE
5
329
100
AcDbEntity
8
0
100
AcDbLine
10
-36.749999999999986
20
-36.750000000000156
30
0
11
-12.749999999999993
21
-36.750000000000149
31
0
0
LINE
5
330
100
AcDbEntity
8
0
100
AcDbLine
10
2.8991378028648445
20
-29.53517677218592
30
0
11
2.1568542494923797
21
-28.792893218813454
31
0
0
ARC
5
331
100
AcDbEntity
8
0
100
AcDbCircle
10
1.4497474683058309
20
-29.500000000000007
30
0
40
1.0000000000000027
210
0
220
-0
230
1
100
AcDbArc
50
45.000000000000185
51
89.999999999999929
0
LINE
5
332
100
AcDbEntity
8
0
100
AcDbLine
10
1.449747468305832
20
-28.5
30
0
11
-1.4497474683058333
21
-28.500000000000007
31
0
0
ARC
5
333
100
AcDbEntity
8
0
100
AcDbCircle
10
-1.4497474683058322
20
-29.5
30
0
40
1.0000000000000004
210
0
220
0
230
1
100
AcDbArc
50
90.000000000000057
51
135.00000000000009
0
LINE
5
334
100
AcDbEntity
8
0
100
AcDbLine
10
-2.1568542494923801
20
-28.792893218813454
30
0
11
-4.3210678118656034
21
-30.957106781186678
31
0
0
ARC
5
335
100
AcDbEntity
8
0
100
AcDbCircle
10
-5.0281745930521478
20
-30.250000000000142
30
0
40
1.0000000000000029
210
-0
220
0
230
1
100
AcDbArc
50
270
51
315.00000000000034
0
LINE
5
336
100
AcDbEntity
8
0
100
AcDbLine
10
-5.0281745930521478
20
-31.250000000000142
30
0
11
-11.949999999999992
21
-31.250000000000156
31
0
0
LINE
5
337
100
AcDbEntity
8
0
100
AcDbLine
10
-4.2999997449049436
20
-40.250000000000099
30
0
11
-11.949999999999989
21
-40.250000000000114
31
0
0
ARC
5
338
100
AcDbEntity
8
0
100
AcDbCircle
10
-4.2999999999999616
20
-39.950000000000372
30
0
40
0.29999999999984006
210
-0
220
0
230
1
100
AcDbArc
50
-89.999951280440328
51
0
0
LINE
5
339
100
AcDbEntity
8
0
100
AcDbLine
10
-3.9999999999999343
20
-37.050000000000274
30
0
11
-3.9999999999999529
21
-39.950000000000351
31
0
0
ARC
5
340
100
AcDbEntity
8
0
100
AcDbCircle
10
-4.2999999999999741
20
-37.05000000000031
30
0
40
0.30000000000004023
210
0
220
-0
230
1
100
AcDbArc
50
0
51
89.999999999999673
0
LINE
5
341
100
AcDbEntity
8
0
100
AcDbLine
10
-4.2999999999999723
20
-36.75000000000027
30
0
11
-11.949999999999992
21
-36.750000000000149
31
0
0
LINE
5
342
100
AcDbEntity
8
0
100
AcDbLine
10
2.8991378028648467
20
-36.464823227814087
30
0
11
2.1568542494923828
21
-37.207106781186553
31
0
0
ARC
5
343
100
AcDbEntity
8
0
100
AcDbCircle
10
1.4497474683058349
20
-36.5
30
0
40
0.99999999999999978
210
-0
220
0
230
1
100
AcDbArc
50
270
51
314.99999999999977
0
LINE
5
344
100
AcDbEntity
8
0
100
AcDbLine
10
-1.44974746830583
20
-37.500000000000007
30
0
11
1.4497474683058351
21
-37.5
31
0
0
ARC
5
345
100
AcDbEntity
8
0
100
AcDbCircle
10
-1.4497474683058291
20
-36.5
30
0
40
1.000000000000004
210
0
220
0
230
1
100
AcDbArc
50
225.00000000000014
51
269.99999999999994
0
LINE
5
346
100
AcDbEntity
8
0
100
AcDbLine
10
-4.3210678118653405
20
-35.042893218813589
30
0
11
-2.1568542494923784
21
-37.207106781186553
31
0
0
ARC
5
347
100
AcDbEntity
8
0
100
AcDbCircle
10
-5.0281745930518831
20
-35.750000000000142
30
0
40
0.99999999999999933
210
0
220
-0
230
1
100
AcDbArc
50
45.000000000000433
51
90
0
LINE
5
348
100
AcDbEntity
8
0
100
AcDbLine
10
-5.0281745930518831
20
-34.750000000000142
30
0
11
-11.949999999999992
21
-34.750000000000135
31
0
0
LINE
5
349
100
AcDbEntity
8
0
100
AcDbLine
10
4.2071067811865479
20
-35.156854249492383
30
0
11
3.4648232278140845
21
-35.899137802864843
31
0
0
LINE
5
350
100
AcDbEntity
8
0
100
AcDbLine
10
4.5000000000000009
20
-33.400000000000006
30
0
11
4.5000000000000009
21
-34.44974746830583
31
0
0
ARC
5
351
100
AcDbEntity
8
0
100
AcDbCircle
10
3.5000000000000075
20
-34.449747468305837
30
0
40
0.99999999999999301
210
-0
220
0
230
1
100
AcDbArc
50
-45.000000000000256
51
0
0
LINE
5
352
100
AcDbEntity
8
0
100
AcDbLine
10
4.5000000000000009
20
-31.55025253169417
30
0
11
4.5000000000000009
21
-32.600000000000001
31
0
0
LINE
5
353
100
AcDbEntity
8
0
100
AcDbLine
10
3.4648232278140827
20
-30.100862197135161
30
0
11
4.2071067811865479
21
-30.84314575050762
31
0
0
ARC
5
354
100
AcDbEntity
8
0
100
AcDbCircle
10
3.4999999999999987
20
-31.55025253169417
30
0
40
1.000000000000002
210
0
220
0
230
1
100
AcDbArc
50
0
51
45.000000000000021
0
CIRCLE
5
355
100
AcDbEntity
8
0
100
AcDbCircle
10
6.4000000000000048
20
-33
30
0
40
1.5000000000000002
210
0
220
0
230
1
0
CIRCLE
5
356
100
AcDbEntity
8
0
100
AcDbCircle
10
6.4000000000000048
20
-33
30
0
40
0.5
210
0
220
0
230
1
0
CIRCLE
5
357
100
AcDbEntity
8
0
100
AcDbCircle
10
1.2212453270876722e-15
20
-33
30
0
40
0.5
210
0
220
0
230
1
0
LINE
5
358
100
AcDbEntity
8
0
100
AcDbLine
10
-12.750000000000005
20
-34.750000000000135
30
0
11
-36.75
21
-34.750000000000142
31
0
0
LINE
5
359
100
AcDbEntity
8
0
100
AcDbLine
10
-45.200000000000024
20
-45.750000000000156
30
0
11
-37.549999999999997
21
-45.750000000000142
31
0
0
ARC
5
360
100
AcDbEntity
8
0
100
AcDbCircle
10
-45.200000000000024
20
-45.450000000000145
30
0
40
0.30000000000000249
210
0
220
0
230
1
100
AcDbArc
50
180
51
270
0
LINE
5
361
100
AcDbEntity
8
0
100
AcDbLine
10
-45.500000000000028
20
-45.450000000000145
30
0
11
-45.500000000000028
21
-42.550000000000061
31
0
0
ARC
5
362
100
AcDbEntity
8
0
100
AcDbCircle
10
-45.200000000000031
20
-42.550000000000061
30
0
40
0.30000000000003879
210
0
220
0
230
1
100
AcDbArc
50
90.000048719559516
51
180
0
LINE
5
363
100
AcDbEntity
8
0
100
AcDbLine
10
-45.200000255095048
20
-42.250000000000128
30
0
11
-37.549999999999997
21
-42.250000000000142
31
0
0
LINE
5
364
100
AcDbEntity
8
0
100
AcDbLine
10
-12.749999999999996
20
-42.250000000000156
30
0
11
-36.75
21
-42.250000000000142
31
0
0
LINE
5
365
100
AcDbEntity
8
0
100
AcDbLine
10
-44.471825406948113
20
-47.750000000000156
30
0
11
-37.549999999999997
21
-47.750000000000156
31
0
0
ARC
5
366
100
AcDbEntity
8
0
100
AcDbCircle
10
-44.471825406948113
20
-46.750000000000149
30
0
40
0.99999999999999523
210
0
220
0
230
1
100
AcDbArc
50
225.00000000000028
51
270
0
LINE
5
367
100
AcDbEntity
8
0
100
AcDbLine
10
-45.178932188134652
20
-47.457106781186695
30
0
11
-47.34314575050761
21
-45.292893218813731
31
0
0
ARC
5
368
100
AcDbEntity
8
0
100
AcDbCircle
10
-48.05025253169417
20
-46.000000000000291
30
0
40
1.0000000000000082
210
0
220
-0
230
1
100
AcDbArc
50
45
51
89.99999999999919
0
ARC
5
369
100
AcDbEntity
8
0
100
AcDbCircle
10
-50.94974746830583
20
-46.000000000000291
30
0
40
0.99999999999999978
210
0
220
-0
230
1
100
AcDbArc
50
90
51
135
0
LINE
5
370
100
AcDbEntity
8
0
100
AcDbLine
10
-52.399137802864843
20
-46.035176772186205
30
0
11
-51.656854249492376
21
-45.292893218813745
31
0
0
LINE
5
371
100
AcDbEntity
8
0
100
AcDbLine
10
-48.050252531694156
20
-45.000000000000284
30
0
11
-50.94974746830583
21
-45.000000000000284
31
0
0
LINE
5
372
100
AcDbEntity
8
0
100
AcDbLine
10
-53.999999999999993
20
-49.100000000000286
30
0
11
-53.999999999999993
21
-48.050252531694454
31
0
0
ARC
5
373
100
AcDbEntity
8
0
100
AcDbCircle
10
-53
20
-48.050252531694454
30
0
40
0.99999999999999023
210
0
220
0
230
1
100
AcDbArc
50
134.99999999999943
51
180
0
LINE
5
374
100
AcDbEntity
8
0
100
AcDbLine
10
-53.707106781186539
20
-47.343145750507901
30
0
11
-52.96482322781408
21
-46.600862197135442
31
0
0
CIRCLE
5
375
100
AcDbEntity
8
0
100
AcDbCircle
10
-55.899999999999999
20
-49.500000000000284
30
0
40
1.5000000000000002
210
0
220
0
230
1
0
CIRCLE
5
376
100
AcDbEntity
8
0
100
AcDbCircle
10
-55.899999999999999
20
-49.500000000000284
30
0
40
0.5
210
0
220
0
230
1
0
LINE
5
377
100
AcDbEntity
8
0
100
AcDbLine
10
-52.96482322781408
20
-52.399137802865134
30
0
11
-53.707106781186539
21
-51.656854249492667
31
0
0
ARC
5
378
100
AcDbEntity
8
0
100
AcDbCircle
10
-52.999999999999986
20
-50.949747468306121
30
0
40
1.0000000000000053
210
0
220
0
230
1
100
AcDbArc
50
180
51
224.99999999999972
0
LINE
5
379
100
AcDbEntity
8
0
100
AcDbLine
10
-53.999999999999993
20
-50.949747468306121
30
0
11
-53.999999999999993
21
-49.90000000000029
31
0
0
ARC
5
380
100
AcDbEntity
8
0
100
AcDbCircle
10
-50.949747468305816
20
-53.000000000000284
30
0
40
1.0000000000000067
210
0
220
0
230
1
100
AcDbArc
50
224.99999999999972
51
269.9999999999992
0
LINE
5
381
100
AcDbEntity
8
0
100
AcDbLine
10
-50.94974746830583
20
-54.000000000000284
30
0
11
-48.050252531694156
21
-54.000000000000284
31
0
0
ARC
5
382
100
AcDbEntity
8
0
100
AcDbCircle
10
-48.050252531694156
20
-53.000000000000284
30
0
40
1.0000000000000009
210
-0
220
0
230
1
100
AcDbArc
50
270
51
314.99999999999972
0
LINE
5
383
100
AcDbEntity
8
0
100
AcDbLine
10
-47.34314575050761
20
-53.707106781186837
30
0
11
-45.178932188134382
21
-51.54289321881361
31
0
0
ARC
5
384
100
AcDbEntity
8
0
100
AcDbCircle
10
-44.471825406947843
20
-52.250000000000149
30
0
40
1.0000000000000031
210
0
220
-0
230
1
100
AcDbArc
50
90
51
135
0
LINE
5
385
100
AcDbEntity
8
0
100
AcDbLine
10
-44.471825406947843
20
-51.250000000000142
30
0
11
-37.549999999999997
21
-51.250000000000135
31
0
0
LINE
5
386
100
AcDbEntity
8
0
100
AcDbLine
10
-52.399137802864843
20
-52.964823227814364
30
0
11
-51.656854249492376
21
-53.707106781186837
31
0
0
CIRCLE
5
387
100
AcDbEntity
8
0
100
AcDbCircle
10
-49.499999999999993
20
-49.500000000000284
30
0
40
0.5
210
0
220
0
230
1
0
LINE
5
388
100
AcDbEntity
8
0
100
AcDbLine
10
-36.749999999999993
20
-51.250000000000135
30
0
11
-12.749999999999993
21
-51.250000000000156
31
0
0
LINE
5
389
100
AcDbEntity
8
0
100
AcDbLine
10
-36.749999999999986
20
-47.750000000000156
30
0
11
-12.749999999999993
21
-47.750000000000156
31
0
0
LINE
5
390
100
AcDbEntity
8
0
100
AcDbLine
10
2.8991378028648453
20
-40.53517677218592
30
0
11
2.1568542494923801
21
-39.792893218813454
31
0
0
ARC
5
391
100
AcDbEntity
8
0
100
AcDbCircle
10
1.4497474683058313
20
-40.500000000000007
30
0
40
1.0000000000000027
210
0
220
-0
230
1
100
AcDbArc
50
45.000000000000185
51
89.999999999999929
0
LINE
5
392
100
AcDbEntity
8
0
100
AcDbLine
10
1.4497474683058327
20
-39.5
30
0
11
-1.4497474683058329
21
-39.500000000000007
31
0
0
ARC
5
393
100
AcDbEntity
8
0
100
AcDbCircle
10
-1.4497474683058318
20
-40.500000000000007
30
0
40
1.0000000000000004
210
0
220
0
230
1
100
AcDbArc
50
90.000000000000057
51
134.9999999999998
0
LINE
5
394
100
AcDbEntity
8
0
100
AcDbLine
10
-2.1568542494923797
20
-39.792893218813454
30
0
11
-4.3210678118656034
21
-41.957106781186681
31
0
0
ARC
5
395
100
AcDbEntity
8
0
100
AcDbCircle
10
-5.0281745930521478
20
-41.250000000000142
30
0
40
1.0000000000000029
210
-0
220
0
230
1
100
AcDbArc
50
270
51
315.00000000000017
0
LINE
5
396
100
AcDbEntity
8
0
100
AcDbLine
10
-5.0281745930521478
20
-42.250000000000149
30
0
11
-11.949999999999992
21
-42.250000000000156
31
0
0
LINE
5
397
100
AcDbEntity
8
0
100
AcDbLine
10
-4.2999997449049427
20
-51.250000000000107
30
0
11
-11.949999999999989
21
-51.250000000000114
31
0
0
ARC
5
398
100
AcDbEntity
8
0
100
AcDbCircle
10
-4.2999999999999607
20
-50.950000000000372
30
0
40
0.29999999999984006
210
-0
220
0
230
1
100
AcDbArc
50
-89.999951280440328
51
0
0
LINE
5
399
100
AcDbEntity
8
0
100
AcDbLine
10
-3.9999999999999334
20
-48.050000000000281
30
0
11
-3.9999999999999525
21
-50.950000000000351
31
0
0
ARC
5
400
100
AcDbEntity
8
0
100
AcDbCircle
10
-4.2999999999999741
20
-48.05000000000031
30
0
40
0.30000000000004023
210
0
220
-0
230
1
100
AcDbArc
50
0
51
89.999999999999673
0
LINE
5
401
100
AcDbEntity
8
0
100
AcDbLine
10
-4.2999999999999723
20
-47.75000000000027
30
0
11
-11.949999999999992
21
-47.750000000000156
31
0
0
LINE
5
402
100
AcDbEntity
8
0
100
AcDbLine
10
2.8991378028648471
20
-47.46482322781408
30
0
11
2.1568542494923832
21
-48.207106781186546
31
0
0
ARC
5
403
100
AcDbEntity
8
0
100
AcDbCircle
10
1.4497474683058353
20
-47.5
30
0
40
0.99999999999999978
210
-0
220
0
230
1
100
AcDbArc
50
270
51
315.00000000000006
0
LINE
5
404
100
AcDbEntity
8
0
100
AcDbLine
10
-1.4497474683058296
20
-48.500000000000007
30
0
11
1.4497474683058356
21
-48.500000000000007
31
0
0
ARC
5
405
100
AcDbEntity
8
0
100
AcDbCircle
10
-1.4497474683058287
20
-47.5
30
0
40
1.000000000000004
210
0
220
0
230
1
100
AcDbArc
50
225.00000000000014
51
269.99999999999994
0
LINE
5
406
100
AcDbEntity
8
0
100
AcDbLine
10
-4.3210678118653396
20
-46.042893218813596
30
0
11
-2.1568542494923779
21
-48.207106781186553
31
0
0
ARC
5
407
100
AcDbEntity
8
0
100
AcDbCircle
10
-5.0281745930518831
20
-46.750000000000142
30
0
40
0.99999999999999933
210
0
220
-0
230
1
100
AcDbArc
50
45.000000000000107
51
90
0
LINE
5
408
100
AcDbEntity
8
0
100
AcDbLine
10
-5.0281745930518831
20
-45.750000000000135
30
0
11
-11.949999999999992
21
-45.750000000000135
31
0
0
LINE
5
409
100
AcDbEntity
8
0
100
AcDbLine
10
4.2071067811865488
20
-46.156854249492383
30
0
11
3.4648232278140849
21
-46.89913780286485
31
0
0
LINE
5
410
100
AcDbEntity
8
0
100
AcDbLine
10
4.5000000000000009
20
-44.400000000000006
30
0
11
4.5000000000000009
21
-45.449747468305837
31
0
0
ARC
5
411
100
AcDbEntity
8
0
100
AcDbCircle
10
3.500000000000008
20
-45.449747468305837
30
0
40
0.99999999999999301
210
-0
220
0
230
1
100
AcDbArc
50
-45.000000000000199
51
0
0
LINE
5
412
100
AcDbEntity
8
0
100
AcDbLine
10
4.5000000000000009
20
-42.55025253169417
30
0
11
4.5000000000000009
21
-43.600000000000001
31
0
0
LINE
5
413
100
AcDbEntity
8
0
100
AcDbLine
10
3.4648232278140831
20
-41.100862197135157
30
0
11
4.2071067811865488
21
-41.843145750507624
31
0
0
ARC
5
414
100
AcDbEntity
8
0
100
AcDbCircle
10
3.4999999999999991
20
-42.55025253169417
30
0
40
1.000000000000002
210
0
220
0
230
1
100
AcDbArc
50
0
51
44.999999999999858
0
CIRCLE
5
415
100
AcDbEntity
8
0
100
AcDbCircle
10
6.4000000000000048
20
-44
30
0
40
1.5000000000000002
210
0
220
0
230
1
0
CIRCLE
5
416
100
AcDbEntity
8
0
100
AcDbCircle
10
6.4000000000000048
20
-44
30
0
40
0.5
210
0
220
0
230
1
0
CIRCLE
5
417
100
AcDbEntity
8
0
100
AcDbCircle
10
1.6283271027835631e-15
20
-44
30
0
40
0.5
210
0
220
0
230
1
0
LINE
5
418
100
AcDbEntity
8
0
100
AcDbLine
10
-12.750000000000005
20
-45.750000000000135
30
0
11
-36.75
21
-45.750000000000142
31
0
0
ENDSEC
0
SECTION
2
OBJECTS
0
DICTIONARY
5
C
100
AcDbDictionary
3
ACAD_GROUP
350
D
3
ACAD_MLINESTYLE
350
17
0
DICTIONARY
5
D
100
AcDbDictionary
0
DICTIONARY
5
1A
330
C
100
AcDbDictionary
0
DICTIONARY
5
17
100
AcDbDictionary
0
ENDSEC
0
EOF
