0
SECTION
2
HEADER
9
$INSUNITS
70
4
9
$ACADVER
1
AC1014
9
$HANDSEED
5
FFFF
0
ENDSEC
0
SECTION
2
TABLES
0
TABLE
2
VPORT
5
8
100
AcDbSymbolTable
0
ENDTAB
0
TABLE
2
LTYPE
5
5
100
AcDbSymbolTable
0
LTYPE
5
14
100
AcDbSymbolTableRecord
100
AcDbLinetypeTableRecord
2
BYBLOCK
70
0
0
LTYPE
5
15
100
AcDbSymbolTableRecord
100
AcDbLinetypeTableRecord
2
BYLAYER
70
0
0
LTYPE
5
16
100
AcDbSymbolTableRecord
100
AcDbLinetypeTableRecord
2
DASHED
70
0
3
Dashed __ __ __ __ __ __ __ __ __ __ __ __ __ _
72
65
73
2
40
0.75
49
0.5
74
0
49
-0.25
74
0
0
ENDTAB
0
TABLE
2
LAYER
5
2
100
AcDbSymbolTable
70
2
0
LAYER
5
50
100
AcDbSymbolTableRecord
100
AcDbLayerTableRecord
2
0
70
0
62
7
6
CONTINUOUS
0
ENDTAB
0
TABLE
2
STYLE
5
3
100
AcDbSymbolTable
70
1
0
STYLE
5
11
100
AcDbSymbolTableRecord
100
AcDbTextStyleTableRecord
2
STANDARD
70
0
0
ENDTAB
0
TABLE
2
VIEW
5
6
100
AcDbSymbolTable
70
0
0
ENDTAB
0
TABLE
2
UCS
5
7
100
AcDbSymbolTable
70
0
0
ENDTAB
0
TABLE
2
APPID
5
9
100
AcDbSymbolTable
70
2
0
APPID
5
12
100
AcDbSymbolTableRecord
100
AcDbRegAppTableRecord
2
ACAD
70
0
0
ENDTAB
0
TABLE
2
DIMSTYLE
5
A
100
AcDbSymbolTable
70
1
0
ENDTAB
0
TABLE
2
BLOCK_RECORD
5
1
100
AcDbSymbolTable
70
1
0
BLOCK_RECORD
5
1F
100
AcDbSymbolTableRecord
100
AcDbBlockTableRecord
2
*MODEL_SPACE
0
BLOCK_RECORD
5
1B
100
AcDbSymbolTableRecord
100
AcDbBlockTableRecord
2
*PAPER_SPACE
0
ENDTAB
0
ENDSEC
0
SECTION
2
BLOCKS
0
BLOCK
5
20
100
AcDbEntity
100
AcDbBlockBegin
2
*MODEL_SPACE
0
ENDBLK
5
21
100
AcDbEntity
100
AcDbBlockEnd
0
BLOCK
5
1C
100
AcDbEntity
100
AcDbBlockBegin
2
*PAPER_SPACE
0
ENDBLK
5
1D
100
AcDbEntity
100
AcDbBlockEnd
0
ENDSEC
0
SECTION
2
ENTITIES
0
LINE
5
100
100
AcDbEntity
8
0
100
AcDbLine
10
0
20
0
30
0
11
18
21
0
31
0
0
LINE
5
101
100
AcDbEntity
8
0
100
AcDbLine
10
18
20
0
30
0
11
18
21
-34.5
31
0
0
LINE
5
102
100
AcDbEntity
8
0
100
AcDbLine
10
9.5
20
-34.5
30
0
11
8.5
21
-34.5
31
0
0
LINE
5
103
100
AcDbEntity
8
0
100
AcDbLine
10
21.299999999999997
20
0
30
0
11
31.200000000000006
21
0
31
0
0
LINE
5
104
100
AcDbEntity
8
0
100
AcDbLine
10
31.5
20
-0.29999999999999993
30
0
11
31.500000000000004
21
-8.7000000000000011
31
0
0
LINE
5
105
100
AcDbEntity
8
0
100
AcDbLine
10
21
20
-8.6999999999999886
30
0
11
21.000000000000007
21
-0.29999999999999977
31
0
0
LINE
5
106
100
AcDbEntity
8
0
100
AcDbLine
10
9.5
20
-34.5
30
0
11
9.5
21
-36.5
31
0
0
LINE
5
107
100
AcDbEntity
8
0
100
AcDbLine
10
18
20
-36.5
30
0
11
18
21
-34.5
31
0
0
LINE
5
108
100
AcDbEntity
8
0
100
AcDbLine
10
8.5
20
-34.5
30
0
11
8.5
21
-36.5
31
0
0
LINE
5
109
100
AcDbEntity
8
0
100
AcDbLine
10
0
20
-36.5
30
0
11
0
21
-34.5
31
0
0
LINE
5
110
100
AcDbEntity
8
0
100
AcDbLine
10
-8.5208152801712647
20
-26.000000000000014
30
0
11
1.7856784891216394e-15
21
-26
31
0
0
LINE
5
111
100
AcDbEntity
8
0
100
AcDbLine
10
-5
20
-12.999999999999993
30
0
11
0
21
-12.999999999999998
31
0
0
LINE
5
112
100
AcDbEntity
8
0
100
AcDbLine
10
0
20
-21.500000000000004
30
0
11
-5
21
-21.5
31
0
0
LINE
5
113
100
AcDbEntity
8
0
100
AcDbLine
10
-47.5
20
-14.19999999999998
30
0
11
-47.5
21
-4.3000000000000131
31
0
0
LINE
5
114
100
AcDbEntity
8
0
100
AcDbLine
10
-38.800000000000239
20
-14.499999999999982
30
0
11
-47.199999999999996
21
-14.499999999999982
31
0
0
LINE
5
115
100
AcDbEntity
8
0
100
AcDbLine
10
-47.19999999999996
20
-3.9999999999999778
30
0
11
-38.800000000000033
21
-3.9999999999999765
31
0
0
LINE
5
116
100
AcDbEntity
8
0
100
AcDbLine
10
-47.199999999999989
20
-22.499999999999982
30
0
11
-38.799999999999997
21
-22.499999999999982
31
0
0
LINE
5
117
100
AcDbEntity
8
0
100
AcDbLine
10
-47.5
20
-32.699999999999996
30
0
11
-47.5
21
-22.79999999999999
31
0
0
LINE
5
118
100
AcDbEntity
8
0
100
AcDbLine
10
-38.799999999999997
20
-32.999999999999979
30
0
11
-47.200000000000003
21
-32.999999999999986
31
0
0
LINE
5
119
100
AcDbEntity
8
0
100
AcDbLine
10
-47.199999999999982
20
-41
30
0
11
-38.800000000017278
21
-40.999999999999979
31
0
0
LINE
5
120
100
AcDbEntity
8
0
100
AcDbLine
10
-47.5
20
-51.199999999999974
30
0
11
-47.5
21
-41.300000000000026
31
0
0
LINE
5
121
100
AcDbEntity
8
0
100
AcDbLine
10
-38.799999999979732
20
-51.499999999999993
30
0
11
-47.199999999999989
21
-51.499999999999993
31
0
0
LINE
5
122
100
AcDbEntity
8
0
100
AcDbLine
10
-38.5
20
-69.000000169643585
30
0
11
-38.5
21
-69.699999999999775
31
0
0
LINE
5
123
100
AcDbEntity
8
0
100
AcDbLine
10
-47.19999999999974
20
-59.499999999999822
30
0
11
-38.79999999999999
21
-59.499999999999822
31
0
0
LINE
5
124
100
AcDbEntity
8
0
100
AcDbLine
10
-47.5
20
-69.699999999999875
30
0
11
-47.5
21
-59.800000000000075
31
0
0
LINE
5
125
100
AcDbEntity
8
0
100
AcDbLine
10
-38.800000000000068
20
-69.999999999999844
30
0
11
-47.200000000000031
21
-69.999999999999844
31
0
0
LINE
5
126
100
AcDbEntity
8
0
100
AcDbLine
10
21.999999999999996
20
-9
30
0
11
21.999999999999996
21
-10.999999999999998
31
0
0
LINE
5
127
100
AcDbEntity
8
0
100
AcDbLine
10
30.499999999999989
20
-10.999999999999998
30
0
11
30.5
21
-9
31
0
0
LINE
5
128
100
AcDbEntity
8
0
100
AcDbLine
10
-38.5
20
-31.999999999999986
30
0
11
-15.500000000000021
21
-32.000000000000014
31
0
0
LINE
5
129
100
AcDbEntity
8
0
100
AcDbLine
10
-19.020815280171327
20
-23.500000000000018
30
0
11
-8.5208152801713197
21
-13.000000000000016
31
0
0
LINE
5
130
100
AcDbEntity
8
0
100
AcDbLine
10
-8.5208152801713197
20
-13.000000000000016
30
0
11
-5
21
-12.999999999999993
31
0
0
LINE
5
131
100
AcDbEntity
8
0
100
AcDbLine
10
-15.500000000000021
20
-32.000000000000014
30
0
11
-5
21
-21.5
31
0
0
LINE
5
132
100
AcDbEntity
8
0
100
AcDbLine
10
-32.979184719828659
20
-42.000003001414463
30
0
11
-38.5
21
-42.000003001414441
31
0
0
LINE
5
133
100
AcDbEntity
8
0
100
AcDbLine
10
-1.0000000000004303
20
-60.500000169644721
30
0
11
-38.5
21
-60.500000169643606
31
0
0
LINE
5
134
100
AcDbEntity
8
0
100
AcDbLine
10
-15.499999999999979
20
-32.979184719828758
30
0
11
-15.499999999999991
21
-34.500000000000036
31
0
0
LINE
5
135
100
AcDbEntity
8
0
100
AcDbLine
10
0
20
-36.5
30
0
11
-2.880370428389158e-14
21
-59.500000169644807
31
0
0
LINE
5
136
100
AcDbEntity
8
0
100
AcDbLine
10
-2.880370428389158e-14
20
-59.500000169644807
30
0
11
-1.0000000000004303
21
-60.500000169644721
31
0
0
LINE
5
137
100
AcDbEntity
8
0
100
AcDbLine
10
-0.99999999999945033
20
-69.000000169644721
30
0
11
2.5208152801681543
21
-69.000000169647933
31
0
0
LINE
5
138
100
AcDbEntity
8
0
100
AcDbLine
10
2.5208152801681543
20
-69.000000169647933
30
0
11
8.500000000000016
21
-63.020815449825037
31
0
0
LINE
5
139
100
AcDbEntity
8
0
100
AcDbLine
10
8.500000000000016
20
-63.020815449825037
30
0
11
8.5
21
-36.5
31
0
0
LINE
5
140
100
AcDbEntity
8
0
100
AcDbLine
10
18.000000000000163
20
-59.500000169644792
30
0
11
19.000000000000629
21
-60.500000169644714
31
0
0
LINE
5
141
100
AcDbEntity
8
0
100
AcDbLine
10
18.000000000000004
20
-36.499999999999993
30
0
11
18.000000000000163
21
-59.500000169644792
31
0
0
LINE
5
142
100
AcDbEntity
8
0
100
AcDbLine
10
9.5000000000001279
20
-63.020815449825037
30
0
11
9.4999999999999911
21
-36.500000000000007
31
0
0
LINE
5
143
100
AcDbEntity
8
0
100
AcDbLine
10
15.479184719832002
20
-69.000000169647905
30
0
11
9.5000000000001279
21
-63.020815449825037
31
0
0
LINE
5
144
100
AcDbEntity
8
0
100
AcDbLine
10
15.479184719832002
20
-69.000000169647905
30
0
11
24.520815280167817
21
-69.000000169648857
31
0
0
LINE
5
145
100
AcDbEntity
8
0
100
AcDbLine
10
24.520815280167817
20
-69.000000169648857
30
0
11
30.500000000007166
21
-63.020815449812417
31
0
0
LINE
5
146
100
AcDbEntity
8
0
100
AcDbLine
10
19.000000000000629
20
-60.500000169644714
30
0
11
21.000000000000622
21
-60.500000169644736
31
0
0
LINE
5
147
100
AcDbEntity
8
0
100
AcDbLine
10
21.000000000000622
20
-60.500000169644736
30
0
11
22.000000000000149
21
-59.500000169645233
31
0
0
LINE
5
148
100
AcDbEntity
8
0
100
AcDbLine
10
21.999999999999996
20
-10.999999999999998
30
0
11
22.000000000000149
21
-59.500000169645233
31
0
0
LINE
5
149
100
AcDbEntity
8
0
100
AcDbLine
10
0
20
0
30
0
11
-5
21
-7.7037197775489434e-33
31
0
0
LINE
5
150
100
AcDbEntity
8
0
100
AcDbLine
10
-5
20
-8.5000000000000071
30
0
11
0
21
-8.5
31
0
0
LINE
5
151
100
AcDbEntity
8
0
100
AcDbLine
10
-5
20
-8.5000000000000071
30
0
11
-18.729184719829352
21
-22.229184719829242
31
0
0
LINE
5
152
100
AcDbEntity
8
0
100
AcDbLine
10
-5
20
-7.7037197775489434e-33
30
0
11
-8.5208152801712238
21
6.5402778688867501e-16
31
0
0
LINE
5
153
100
AcDbEntity
8
0
100
AcDbLine
10
-8.5208152801712238
20
6.5402778688867501e-16
30
0
11
-22.249999999998579
21
-13.72918471982925
31
0
0
LINE
5
154
100
AcDbEntity
8
0
100
AcDbLine
10
-38.5
20
-23.499999999999982
30
0
11
-19.020815280171327
21
-23.500000000000018
31
0
0
LINE
5
155
100
AcDbEntity
8
0
100
AcDbLine
10
-36.5
20
-50.500003001414441
30
0
11
-38.500000000000007
21
-50.500003001414441
31
0
0
LINE
5
156
100
AcDbEntity
8
0
100
AcDbLine
10
-0.99999999999945033
20
-69.000000169644721
30
0
11
-38.5
21
-69.000000169643585
31
0
0
LINE
5
157
100
AcDbEntity
8
0
100
AcDbLine
10
-18.729184719829352
20
-22.229184719829242
30
0
11
-27.770815280170773
21
-22.229184719829227
31
0
0
LINE
5
158
100
AcDbEntity
8
0
100
AcDbLine
10
-22.249999999998579
20
-13.72918471982925
30
0
11
-24.249999999998586
21
-13.729184719829263
31
0
0
LINE
5
159
100
AcDbEntity
8
0
100
AcDbLine
10
-27.770815280170773
20
-22.229184719829227
30
0
11
-36.500000000000128
21
-13.499999999999847
31
0
0
LINE
5
160
100
AcDbEntity
8
0
100
AcDbLine
10
-38.500000000000128
20
-4.9999999999998499
30
0
11
-32.979184719828801
21
-4.999999999999841
31
0
0
LINE
5
161
100
AcDbEntity
8
0
100
AcDbLine
10
-32.979184719828801
20
-4.999999999999841
30
0
11
-24.249999999998586
21
-13.729184719829263
31
0
0
LINE
5
162
100
AcDbEntity
8
0
100
AcDbLine
10
-36.500000000000128
20
-13.499999999999847
30
0
11
-38.500000000000128
21
-13.499999999999847
31
0
0
LINE
5
163
100
AcDbEntity
8
0
100
AcDbLine
10
-6.9999999999999973
20
-36.500000000000043
30
0
11
-7.0000000000000062
21
-47.520812618048481
31
0
0
LINE
5
164
100
AcDbEntity
8
0
100
AcDbLine
10
-15.500000000000009
20
-47.520812618048467
30
0
11
-15.499999999999991
21
-34.500000000000036
31
0
0
LINE
5
165
100
AcDbEntity
8
0
100
AcDbLine
10
-8.5208152801712647
20
-26.000000000000014
30
0
11
-15.499999999999979
21
-32.979184719828758
31
0
0
LINE
5
166
100
AcDbEntity
8
0
100
AcDbLine
10
-36.5
20
-50.500003001414441
30
0
11
-27.500002831769706
21
-59.50000016964475
31
0
0
LINE
5
167
100
AcDbEntity
8
0
100
AcDbLine
10
-27.500002831769706
20
-59.50000016964475
30
0
11
-15.458372271430225
21
-59.500000169644593
31
0
0
LINE
5
168
100
AcDbEntity
8
0
100
AcDbLine
10
-32.979184719828659
20
-42.000003001414463
30
0
11
-23.979187551598343
21
-51.000000169644785
31
0
0
LINE
5
169
100
AcDbEntity
8
0
100
AcDbLine
10
-23.979187551598343
20
-51.000000169644785
30
0
11
-18.979187551598351
21
-51.000000169644785
31
0
0
LINE
5
170
100
AcDbEntity
8
0
100
AcDbLine
10
-18.979187551598351
20
-51.000000169644785
30
0
11
-15.500000000000009
21
-47.520812618048467
31
0
0
LINE
5
171
100
AcDbEntity
8
0
100
AcDbLine
10
-7.0000000000000062
20
-47.520812618048481
30
0
11
-6.9999999999999645
21
-51.041627898217229
31
0
0
LINE
5
172
100
AcDbEntity
8
0
100
AcDbLine
10
-6.9999999999999645
20
-51.041627898217229
30
0
11
-15.458372271430225
21
-59.500000169644593
31
0
0
ARC
5
173
100
AcDbEntity
8
0
100
AcDbCircle
10
21.299999999999997
20
-0.30000000000000027
30
0
40
0.30000000000000027
210
0
220
-0
230
1
100
AcDbArc
50
90
51
180
0
ARC
5
174
100
AcDbEntity
8
0
100
AcDbCircle
10
31.200000000000003
20
-0.29999999999999877
30
0
40
0.29999999999999805
210
-0
220
0
230
1
100
AcDbArc
50
0
51
89.999999999999332
0
ARC
5
175
100
AcDbEntity
8
0
100
AcDbCircle
10
31.200000000000006
20
-8.7000000000000011
30
0
40
0.29999999999999805
210
0
220
0
230
1
100
AcDbArc
50
-90
51
0
0
ARC
5
176
100
AcDbEntity
8
0
100
AcDbCircle
10
21.300000000000011
20
-8.6999999999999886
30
0
40
0.30000000000001137
210
0
220
0
230
1
100
AcDbArc
50
180
51
269.99999999999591
0
ARC
5
177
100
AcDbEntity
8
0
100
AcDbCircle
10
-47.19999999999974
20
-59.800000000000075
30
0
40
0.30000000000025118
210
0
220
-0
230
1
100
AcDbArc
50
90
51
180
0
ARC
5
178
100
AcDbEntity
8
0
100
AcDbCircle
10
-47.200000000000031
20
-69.699999999999875
30
0
40
0.29999999999996696
210
0
220
0
230
1
100
AcDbArc
50
180
51
270
0
ARC
5
179
100
AcDbEntity
8
0
100
AcDbCircle
10
-38.800000000000068
20
-69.699999999999775
30
0
40
0.30000000000006466
210
0
220
0
230
1
100
AcDbArc
50
-90
51
0
0
ARC
5
180
100
AcDbEntity
8
0
100
AcDbCircle
10
-38.79999999999999
20
-59.800000000000011
30
0
40
0.30000000000018545
210
-0
220
0
230
1
100
AcDbArc
50
-6.4791238901827246e-05
51
90
0
ARC
5
181
100
AcDbEntity
8
0
100
AcDbCircle
10
-38.799999999979732
20
-51.200000000004778
30
0
40
0.29999999999521521
210
0
220
0
230
1
100
AcDbArc
50
270
51
359.9994179567625
0
ARC
5
182
100
AcDbEntity
8
0
100
AcDbCircle
10
-47.199999999999989
20
-51.199999999999982
30
0
40
0.30000000000001137
210
0
220
0
230
1
100
AcDbArc
50
180
51
270
0
ARC
5
183
100
AcDbEntity
8
0
100
AcDbCircle
10
-47.199999999999982
20
-41.300000000000026
30
0
40
0.30000000000002913
210
0
220
-0
230
1
100
AcDbArc
50
90
51
180
0
ARC
5
184
100
AcDbEntity
8
0
100
AcDbCircle
10
-38.800000000017278
20
-41.300000000031822
30
0
40
0.30000000003182881
210
-0
220
0
230
1
100
AcDbArc
50
-0.0005644083126800667
51
90
0
ARC
5
185
100
AcDbEntity
8
0
100
AcDbCircle
10
-38.799999999999997
20
-22.799999999999983
30
0
40
0.30000000000000249
210
0
220
-0
230
1
100
AcDbArc
50
0
51
90
0
ARC
5
186
100
AcDbEntity
8
0
100
AcDbCircle
10
-38.799999999999997
20
-32.699999999999974
30
0
40
0.30000000000000249
210
-0
220
0
230
1
100
AcDbArc
50
-90
51
0
0
ARC
5
187
100
AcDbEntity
8
0
100
AcDbCircle
10
-47.200000000000003
20
-32.699999999999996
30
0
40
0.29999999999999361
210
0
220
0
230
1
100
AcDbArc
50
180
51
270
0
ARC
5
188
100
AcDbEntity
8
0
100
AcDbCircle
10
-47.199999999999989
20
-22.79999999999999
30
0
40
0.30000000000000693
210
0
220
-0
230
1
100
AcDbArc
50
90
51
180
0
ARC
5
189
100
AcDbEntity
8
0
100
AcDbCircle
10
-47.199999999999996
20
-14.19999999999998
30
0
40
0.30000000000000249
210
0
220
0
230
1
100
AcDbArc
50
180
51
270
0
ARC
5
190
100
AcDbEntity
8
0
100
AcDbCircle
10
-47.19999999999996
20
-4.3000000000000131
30
0
40
0.30000000000003524
210
0
220
-0
230
1
100
AcDbArc
50
90
51
180
0
ARC
5
191
100
AcDbEntity
8
0
100
AcDbCircle
10
-38.800000000000033
20
-4.2999999999999705
30
0
40
0.29999999999999361
210
-0
220
0
230
1
100
AcDbArc
50
0
51
90
0
ARC
5
192
100
AcDbEntity
8
0
100
AcDbCircle
10
-38.800000000000239
20
-14.199999999999891
30
0
40
0.3000000000000913
210
0
220
0
230
1
100
AcDbArc
50
-90
51
0
0
LINE
5
193
100
AcDbEntity
8
0
100
AcDbLine
10
-4.9999999999999929
20
-34.50000000000005
30
0
11
0
21
-34.5
31
0
0
LINE
5
194
100
AcDbEntity
8
0
100
AcDbLine
10
30.499999999999972
20
-19
30
0
11
32.500000000000007
21
-19
31
0
0
LINE
5
195
100
AcDbEntity
8
0
100
AcDbLine
10
32.500000000000007
20
-20.999999999998785
30
0
11
30.499999999999968
21
-21
31
0
0
LINE
5
196
100
AcDbEntity
8
0
100
AcDbLine
10
30.500000000002142
20
-37.250000084822062
30
0
11
32.500000000000007
21
-37.250000084821927
31
0
0
LINE
5
197
100
AcDbEntity
8
0
100
AcDbLine
10
30.50000000000226
20
-39.250000084822069
30
0
11
32.500000000000007
21
-39.250000084822211
31
0
0
LINE
5
198
100
AcDbEntity
8
0
100
AcDbLine
10
30.500000000005695
20
-55.50000016964475
30
0
11
32.5
21
-55.50000016964475
31
0
0
LINE
5
199
100
AcDbEntity
8
0
100
AcDbLine
10
30.5000000000061
20
-57.500000169644743
30
0
11
32.5
21
-57.50000016964475
31
0
0
LINE
5
200
100
AcDbEntity
8
0
100
AcDbLine
10
30.500000000007166
20
-63.020815449812417
30
0
11
30.5000000000061
21
-57.500000169644743
31
0
0
LINE
5
201
100
AcDbEntity
8
0
100
AcDbLine
10
30.500000000005695
20
-55.50000016964475
30
0
11
30.50000000000226
21
-39.250000084822069
31
0
0
LINE
5
202
100
AcDbEntity
8
0
100
AcDbLine
10
30.500000000002142
20
-37.250000084822062
30
0
11
30.499999999999968
21
-21
31
0
0
LINE
5
203
100
AcDbEntity
8
0
100
AcDbLine
10
-6.9999999999999973
20
-36.500000000000043
30
0
11
-4.9999999999999929
21
-34.50000000000005
31
0
0
LINE
5
204
100
AcDbEntity
8
0
100
AcDbLine
10
31.200000000000006
20
-9
30
0
11
30.5
21
-9
31
0
0
LINE
5
205
100
AcDbEntity
8
0
100
AcDbLine
10
21.999999999999996
20
-9
30
0
11
21.29999999999999
21
-9
31
0
0
LINE
5
206
100
AcDbEntity
8
0
100
AcDbLine
10
0
20
-12.999999999999998
30
0
11
0
21
-8.5
31
0
0
LINE
5
207
100
AcDbEntity
8
0
100
AcDbLine
10
1.7856784891216394e-15
20
-26
30
0
11
0
21
-21.500000000000004
31
0
0
LINE
5
208
100
AcDbEntity
8
0
100
AcDbLine
10
-38.500000000000036
20
-4.2999999999999625
30
0
11
-38.500000000000128
21
-4.9999999999998499
31
0
0
LINE
5
209
100
AcDbEntity
8
0
100
AcDbLine
10
-38.500000000000128
20
-13.499999999999847
30
0
11
-38.500000000000149
21
-14.199999999999733
31
0
0
LINE
5
210
100
AcDbEntity
8
0
100
AcDbLine
10
-38.5
20
-22.799999999999983
30
0
11
-38.5
21
-23.499999999999982
31
0
0
LINE
5
211
100
AcDbEntity
8
0
100
AcDbLine
10
-38.5
20
-31.999999999999986
30
0
11
-38.5
21
-32.699999999999974
31
0
0
LINE
5
212
100
AcDbEntity
8
0
100
AcDbLine
10
-38.500000000000007
20
-41.300002955266393
30
0
11
-38.5
21
-42.000003001414441
31
0
0
LINE
5
213
100
AcDbEntity
8
0
100
AcDbLine
10
-38.500000000000007
20
-50.500003001414441
30
0
11
-38.5
21
-51.200003047577034
31
0
0
LINE
5
214
100
AcDbEntity
8
0
100
AcDbLine
10
-38.5
20
-59.800000339287422
30
0
11
-38.5
21
-60.500000169643606
31
0
0
LINE
5
215
100
AcDbEntity
8
0
100
AcDbLine
10
30.499999999999989
20
-10.999999999999998
30
0
11
30.499999999999972
21
-19
31
0
0
LINE
5
216
100
AcDbEntity
8
0
100
AcDbLine
10
43.000000000000007
20
-10.999999999999998
30
0
11
42.999999999999844
21
-59.500000169645233
31
0
0
LINE
5
217
100
AcDbEntity
8
0
100
AcDbLine
10
73.52081528017122
20
6.5402778688867491e-16
30
0
11
87.249999999998579
21
-13.72918471982925
31
0
0
LINE
5
218
100
AcDbEntity
8
0
100
AcDbLine
10
112.5
20
-32.699999999999996
30
0
11
112.5
21
-22.79999999999999
31
0
0
LINE
5
219
100
AcDbEntity
8
0
100
AcDbLine
10
103.79999999997975
20
-51.499999999999993
30
0
11
112.19999999999999
21
-51.499999999999993
31
0
0
LINE
5
220
100
AcDbEntity
8
0
100
AcDbLine
10
103.80000000000007
20
-69.999999999999844
30
0
11
112.20000000000002
21
-69.999999999999844
31
0
0
ARC
5
221
100
AcDbEntity
8
0
100
AcDbCircle
10
112.19999999999999
20
-51.199999999999982
30
0
40
0.30000000000001137
210
0
220
0
230
1
100
AcDbArc
50
-90
51
0
0
ARC
5
222
100
AcDbEntity
8
0
100
AcDbCircle
10
103.79999999999998
20
-32.699999999999974
30
0
40
0.29999999999999361
210
0
220
0
230
1
100
AcDbArc
50
180
51
270
0
LINE
5
223
100
AcDbEntity
8
0
100
AcDbLine
10
112.5
20
-69.699999999999875
30
0
11
112.5
21
-59.800000000000075
31
0
0
LINE
5
224
100
AcDbEntity
8
0
100
AcDbLine
10
103.50000000000001
20
-41.300002955266393
30
0
11
103.5
21
-42.000003001414441
31
0
0
LINE
5
225
100
AcDbEntity
8
0
100
AcDbLine
10
103.50000000000011
20
-13.499999999999847
30
0
11
103.50000000000016
21
-14.199999999999733
31
0
0
ARC
5
226
100
AcDbEntity
8
0
100
AcDbCircle
10
103.79999999999998
20
-59.800000000000011
30
0
40
0.300000000000189
210
-0
220
0
230
1
100
AcDbArc
50
90
51
180.00006479686388
0
ARC
5
227
100
AcDbEntity
8
0
100
AcDbCircle
10
103.80000000001728
20
-41.300000000031822
30
0
40
0.30000000003184368
210
-0
220
0
230
1
100
AcDbArc
50
90
51
180.0005644083127
0
LINE
5
228
100
AcDbEntity
8
0
100
AcDbLine
10
112.19999999999996
20
-3.9999999999999778
30
0
11
103.80000000000003
21
-3.9999999999999765
31
0
0
LINE
5
229
100
AcDbEntity
8
0
100
AcDbLine
10
80.499999999999972
20
-32.979184719828758
30
0
11
80.499999999999986
21
-34.500000000000036
31
0
0
LINE
5
230
100
AcDbEntity
8
0
100
AcDbLine
10
83.979187551598358
20
-51.000000169644785
30
0
11
80.5
21
-47.520812618048467
31
0
0
LINE
5
231
100
AcDbEntity
8
0
100
AcDbLine
10
87.249999999998579
20
-13.72918471982925
30
0
11
89.249999999998579
21
-13.729184719829263
31
0
0
LINE
5
232
100
AcDbEntity
8
0
100
AcDbLine
10
112.5
20
-51.199999999999974
30
0
11
112.5
21
-41.300000000000026
31
0
0
ARC
5
233
100
AcDbEntity
8
0
100
AcDbCircle
10
103.80000000000007
20
-69.699999999999775
30
0
40
0.30000000000006466
210
0
220
0
230
1
100
AcDbArc
50
180
51
270
0
LINE
5
234
100
AcDbEntity
8
0
100
AcDbLine
10
97.979184719828808
20
-4.999999999999841
30
0
11
89.249999999998579
21
-13.729184719829263
31
0
0
LINE
5
235
100
AcDbEntity
8
0
100
AcDbLine
10
101.5
20
-50.500003001414441
30
0
11
103.50000000000001
21
-50.500003001414441
31
0
0
LINE
5
236
100
AcDbEntity
8
0
100
AcDbLine
10
34.499999999994301
20
-55.50000016964475
30
0
11
32.5
21
-55.50000016964475
31
0
0
ARC
5
237
100
AcDbEntity
8
0
100
AcDbCircle
10
112.20000000000002
20
-69.699999999999875
30
0
40
0.29999999999996696
210
0
220
0
230
1
100
AcDbArc
50
-90
51
0
0
LINE
5
238
100
AcDbEntity
8
0
100
AcDbLine
10
103.5
20
-59.800000339287422
30
0
11
103.5
21
-60.500000169643606
31
0
0
LINE
5
239
100
AcDbEntity
8
0
100
AcDbLine
10
112.19999999999999
20
-22.499999999999982
30
0
11
103.79999999999998
21
-22.499999999999982
31
0
0
LINE
5
240
100
AcDbEntity
8
0
100
AcDbLine
10
112.19999999999999
20
-41
30
0
11
103.80000000001728
21
-40.999999999999979
31
0
0
ARC
5
241
100
AcDbEntity
8
0
100
AcDbCircle
10
112.19999999999999
20
-41.300000000000026
30
0
40
0.30000000000001137
210
0
220
-0
230
1
100
AcDbArc
50
0
51
90
0
LINE
5
242
100
AcDbEntity
8
0
100
AcDbLine
10
80.500000000000028
20
-32.000000000000014
30
0
11
70
21
-21.5
31
0
0
LINE
5
243
100
AcDbEntity
8
0
100
AcDbLine
10
34.499999999997854
20
-37.250000084822062
30
0
11
34.500000000000036
21
-21
31
0
0
LINE
5
244
100
AcDbEntity
8
0
100
AcDbLine
10
47
20
0
30
0
11
47
21
-34.5
31
0
0
LINE
5
245
100
AcDbEntity
8
0
100
AcDbLine
10
80.5
20
-47.520812618048467
30
0
11
80.499999999999986
21
-34.500000000000036
31
0
0
LINE
5
246
100
AcDbEntity
8
0
100
AcDbLine
10
66.000000000000426
20
-60.500000169644721
30
0
11
103.5
21
-60.500000169643606
31
0
0
LINE
5
247
100
AcDbEntity
8
0
100
AcDbLine
10
84.020815280171334
20
-23.500000000000018
30
0
11
73.52081528017132
21
-13.000000000000016
31
0
0
LINE
5
248
100
AcDbEntity
8
0
100
AcDbLine
10
65.999999999999446
20
-69.000000169644721
30
0
11
103.5
21
-69.000000169643585
31
0
0
LINE
5
249
100
AcDbEntity
8
0
100
AcDbLine
10
71.999999999999972
20
-51.041627898217229
30
0
11
80.458372271430221
21
-59.500000169644593
31
0
0
LINE
5
250
100
AcDbEntity
8
0
100
AcDbLine
10
73.520815280171263
20
-26.000000000000014
30
0
11
80.499999999999972
21
-32.979184719828758
31
0
0
LINE
5
251
100
AcDbEntity
8
0
100
AcDbLine
10
70
20
-8.5000000000000071
30
0
11
83.729184719829348
21
-22.229184719829242
31
0
0
LINE
5
252
100
AcDbEntity
8
0
100
AcDbLine
10
65
20
-36.5
30
0
11
65.000000000000028
21
-59.500000169644807
31
0
0
LINE
5
253
100
AcDbEntity
8
0
100
AcDbLine
10
72.000000000000014
20
-47.520812618048481
30
0
11
71.999999999999972
21
-51.041627898217229
31
0
0
LINE
5
254
100
AcDbEntity
8
0
100
AcDbLine
10
112.19999999999973
20
-59.499999999999822
30
0
11
103.79999999999998
21
-59.499999999999822
31
0
0
ARC
5
255
100
AcDbEntity
8
0
100
AcDbCircle
10
103.80000000000024
20
-14.199999999999891
30
0
40
0.30000000000008242
210
0
220
0
230
1
100
AcDbArc
50
180
51
270
0
LINE
5
256
100
AcDbEntity
8
0
100
AcDbLine
10
34.500000000000014
20
-10.999999999999998
30
0
11
34.5
21
-9
31
0
0
ARC
5
257
100
AcDbEntity
8
0
100
AcDbCircle
10
103.80000000000003
20
-4.2999999999999705
30
0
40
0.29999999999999416
210
-0
220
0
230
1
100
AcDbArc
50
90
51
180
0
LINE
5
258
100
AcDbEntity
8
0
100
AcDbLine
10
92.77081528017078
20
-22.229184719829227
30
0
11
101.50000000000013
21
-13.499999999999847
31
0
0
LINE
5
259
100
AcDbEntity
8
0
100
AcDbLine
10
103.50000000000001
20
-50.500003001414441
30
0
11
103.5
21
-51.200003047577034
31
0
0
LINE
5
260
100
AcDbEntity
8
0
100
AcDbLine
10
72
20
-36.500000000000043
30
0
11
69.999999999999986
21
-34.50000000000005
31
0
0
ARC
5
261
100
AcDbEntity
8
0
100
AcDbCircle
10
112.19999999999999
20
-22.79999999999999
30
0
40
0.30000000000001137
210
0
220
-0
230
1
100
AcDbArc
50
0
51
90
0
LINE
5
262
100
AcDbEntity
8
0
100
AcDbLine
10
55.5
20
-34.5
30
0
11
55.5
21
-36.5
31
0
0
LINE
5
263
100
AcDbEntity
8
0
100
AcDbLine
10
34.499999999994301
20
-55.50000016964475
30
0
11
34.49999999999774
21
-39.250000084822069
31
0
0
LINE
5
264
100
AcDbEntity
8
0
100
AcDbLine
10
97.979184719828666
20
-42.000003001414463
30
0
11
88.979187551598343
21
-51.000000169644785
31
0
0
LINE
5
265
100
AcDbEntity
8
0
100
AcDbLine
10
49.520815280167994
20
-69.000000169647905
30
0
11
55.499999999999872
21
-63.020815449825037
31
0
0
LINE
5
266
100
AcDbEntity
8
0
100
AcDbLine
10
101.5
20
-50.500003001414441
30
0
11
92.500002831769706
21
-59.50000016964475
31
0
0
LINE
5
267
100
AcDbEntity
8
0
100
AcDbLine
10
103.80000000000024
20
-14.499999999999982
30
0
11
112.19999999999999
21
-14.499999999999982
31
0
0
LINE
5
268
100
AcDbEntity
8
0
100
AcDbLine
10
101.50000000000013
20
-13.499999999999847
30
0
11
103.50000000000011
21
-13.499999999999847
31
0
0
LINE
5
269
100
AcDbEntity
8
0
100
AcDbLine
10
40.479184719832176
20
-69.000000169648857
30
0
11
34.499999999992838
21
-63.020815449812417
31
0
0
ARC
5
270
100
AcDbEntity
8
0
100
AcDbCircle
10
112.19999999999999
20
-14.19999999999998
30
0
40
0.30000000000000249
210
0
220
0
230
1
100
AcDbArc
50
-90
51
0
0
LINE
5
271
100
AcDbEntity
8
0
100
AcDbLine
10
88.979187551598343
20
-51.000000169644785
30
0
11
83.979187551598358
21
-51.000000169644785
31
0
0
LINE
5
272
100
AcDbEntity
8
0
100
AcDbLine
10
56.499999999999986
20
-63.020815449825037
30
0
11
56.5
21
-36.5
31
0
0
LINE
5
273
100
AcDbEntity
8
0
100
AcDbLine
10
103.50000000000011
20
-4.9999999999998499
30
0
11
97.979184719828808
21
-4.999999999999841
31
0
0
LINE
5
274
100
AcDbEntity
8
0
100
AcDbLine
10
34.499999999992838
20
-63.020815449812417
30
0
11
34.499999999993904
21
-57.500000169644743
31
0
0
LINE
5
275
100
AcDbEntity
8
0
100
AcDbLine
10
43.000000000000007
20
-9
30
0
11
43.000000000000007
21
-10.999999999999998
31
0
0
LINE
5
276
100
AcDbEntity
8
0
100
AcDbLine
10
103.5
20
-69.000000169643585
30
0
11
103.5
21
-69.699999999999775
31
0
0
LINE
5
277
100
AcDbEntity
8
0
100
AcDbLine
10
103.5
20
-22.799999999999983
30
0
11
103.5
21
-23.499999999999982
31
0
0
LINE
5
278
100
AcDbEntity
8
0
100
AcDbLine
10
56.5
20
-34.5
30
0
11
56.5
21
-36.5
31
0
0
ARC
5
279
100
AcDbEntity
8
0
100
AcDbCircle
10
112.19999999999973
20
-59.800000000000075
30
0
40
0.30000000000026006
210
0
220
-0
230
1
100
AcDbArc
50
0
51
90
0
ARC
5
280
100
AcDbEntity
8
0
100
AcDbCircle
10
103.79999999997975
20
-51.200000000004778
30
0
40
0.29999999999522264
210
0
220
0
230
1
100
AcDbArc
50
180.00058204323753
51
270
0
LINE
5
281
100
AcDbEntity
8
0
100
AcDbLine
10
72
20
-36.500000000000043
30
0
11
72.000000000000014
21
-47.520812618048481
31
0
0
LINE
5
282
100
AcDbEntity
8
0
100
AcDbLine
10
32.499999999999993
20
-20.999999999998785
30
0
11
34.500000000000036
21
-21
31
0
0
LINE
5
283
100
AcDbEntity
8
0
100
AcDbLine
10
34.499999999997854
20
-37.250000084822062
30
0
11
32.499999999999993
21
-37.250000084821927
31
0
0
ARC
5
284
100
AcDbEntity
8
0
100
AcDbCircle
10
103.79999999999998
20
-22.799999999999983
30
0
40
0.30000000000000249
210
0
220
-0
230
1
100
AcDbArc
50
90
51
180
0
LINE
5
285
100
AcDbEntity
8
0
100
AcDbLine
10
103.5
20
-23.499999999999982
30
0
11
84.020815280171334
21
-23.500000000000018
31
0
0
LINE
5
286
100
AcDbEntity
8
0
100
AcDbLine
10
97.979184719828666
20
-42.000003001414463
30
0
11
103.5
21
-42.000003001414441
31
0
0
LINE
5
287
100
AcDbEntity
8
0
100
AcDbLine
10
65
20
0
30
0
11
47
21
0
31
0
0
LINE
5
288
100
AcDbEntity
8
0
100
AcDbLine
10
45.999999999999375
20
-60.500000169644714
30
0
11
43.999999999999382
21
-60.500000169644736
31
0
0
LINE
5
289
100
AcDbEntity
8
0
100
AcDbLine
10
69.999999999999986
20
-34.50000000000005
30
0
11
65
21
-34.5
31
0
0
LINE
5
290
100
AcDbEntity
8
0
100
AcDbLine
10
103.79999999999998
20
-32.999999999999979
30
0
11
112.2
21
-32.999999999999986
31
0
0
ARC
5
291
100
AcDbEntity
8
0
100
AcDbCircle
10
43.700000000000003
20
-0.30000000000000027
30
0
40
0.29999999999999361
210
0
220
-0
230
1
100
AcDbArc
50
0
51
90
0
LINE
5
292
100
AcDbEntity
8
0
100
AcDbLine
10
44
20
-8.6999999999999886
30
0
11
43.999999999999993
21
-0.29999999999999977
31
0
0
LINE
5
293
100
AcDbEntity
8
0
100
AcDbLine
10
43.700000000000003
20
0
30
0
11
33.799999999999997
21
0
31
0
0
LINE
5
294
100
AcDbEntity
8
0
100
AcDbLine
10
33.799999999999997
20
-9
30
0
11
34.5
21
-9
31
0
0
LINE
5
295
100
AcDbEntity
8
0
100
AcDbLine
10
103.5
20
-31.999999999999986
30
0
11
103.5
21
-32.699999999999974
31
0
0
LINE
5
296
100
AcDbEntity
8
0
100
AcDbLine
10
70
20
0
30
0
11
73.52081528017122
21
6.5402778688867491e-16
31
0
0
LINE
5
297
100
AcDbEntity
8
0
100
AcDbLine
10
92.500002831769706
20
-59.50000016964475
30
0
11
80.458372271430221
21
-59.500000169644593
31
0
0
LINE
5
298
100
AcDbEntity
8
0
100
AcDbLine
10
65
20
-36.5
30
0
11
65
21
-34.5
31
0
0
ARC
5
299
100
AcDbEntity
8
0
100
AcDbCircle
10
112.19999999999996
20
-4.3000000000000131
30
0
40
0.3000000000000469
210
0
220
-0
230
1
100
AcDbArc
50
0
51
90
0
LINE
5
300
100
AcDbEntity
8
0
100
AcDbLine
10
65.000000000000028
20
-59.500000169644807
30
0
11
66.000000000000426
21
-60.500000169644721
31
0
0
LINE
5
301
100
AcDbEntity
8
0
100
AcDbLine
10
33.5
20
-0.29999999999999993
30
0
11
33.5
21
-8.7000000000000011
31
0
0
LINE
5
302
100
AcDbEntity
8
0
100
AcDbLine
10
70
20
-8.5000000000000071
30
0
11
65
21
-8.5
31
0
0
LINE
5
303
100
AcDbEntity
8
0
100
AcDbLine
10
103.5
20
-31.999999999999986
30
0
11
80.500000000000028
21
-32.000000000000014
31
0
0
LINE
5
304
100
AcDbEntity
8
0
100
AcDbLine
10
83.729184719829348
20
-22.229184719829242
30
0
11
92.77081528017078
21
-22.229184719829227
31
0
0
LINE
5
305
100
AcDbEntity
8
0
100
AcDbLine
10
49.520815280167994
20
-69.000000169647905
30
0
11
40.479184719832176
21
-69.000000169648857
31
0
0
LINE
5
306
100
AcDbEntity
8
0
100
AcDbLine
10
34.500000000000014
20
-10.999999999999998
30
0
11
34.500000000000028
21
-19
31
0
0
LINE
5
307
100
AcDbEntity
8
0
100
AcDbLine
10
47
20
-36.5
30
0
11
47
21
-34.5
31
0
0
LINE
5
308
100
AcDbEntity
8
0
100
AcDbLine
10
62.479184719831842
20
-69.000000169647933
30
0
11
56.499999999999986
21
-63.020815449825037
31
0
0
LINE
5
309
100
AcDbEntity
8
0
100
AcDbLine
10
112.5
20
-14.19999999999998
30
0
11
112.5
21
-4.3000000000000131
31
0
0
LINE
5
310
100
AcDbEntity
8
0
100
AcDbLine
10
103.50000000000003
20
-4.2999999999999625
30
0
11
103.50000000000011
21
-4.9999999999998499
31
0
0
LINE
5
311
100
AcDbEntity
8
0
100
AcDbLine
10
34.49999999999774
20
-39.250000084822069
30
0
11
32.499999999999993
21
-39.250000084822211
31
0
0
LINE
5
312
100
AcDbEntity
8
0
100
AcDbLine
10
65
20
-21.500000000000004
30
0
11
70
21
-21.5
31
0
0
ARC
5
313
100
AcDbEntity
8
0
100
AcDbCircle
10
112.2
20
-32.699999999999996
30
0
40
0.29999999999999361
210
0
220
0
230
1
100
AcDbArc
50
-90
51
0
0
LINE
5
314
100
AcDbEntity
8
0
100
AcDbLine
10
65
20
-12.999999999999998
30
0
11
65
21
-8.5
31
0
0
ARC
5
315
100
AcDbEntity
8
0
100
AcDbCircle
10
33.799999999999997
20
-8.7000000000000011
30
0
40
0.29999999999999805
210
0
220
0
230
1
100
AcDbArc
50
180
51
270
0
LINE
5
316
100
AcDbEntity
8
0
100
AcDbLine
10
46.999999999999993
20
-36.499999999999993
30
0
11
46.999999999999829
21
-59.500000169644792
31
0
0
ARC
5
317
100
AcDbEntity
8
0
100
AcDbCircle
10
43.699999999999989
20
-8.6999999999999886
30
0
40
0.30000000000001137
210
0
220
0
230
1
100
AcDbArc
50
-89.999999999995936
51
0
0
LINE
5
318
100
AcDbEntity
8
0
100
AcDbLine
10
34.500000000000028
20
-19
30
0
11
32.499999999999993
21
-19
31
0
0
LINE
5
319
100
AcDbEntity
8
0
100
AcDbLine
10
55.5
20
-34.5
30
0
11
56.5
21
-34.5
31
0
0
LINE
5
320
100
AcDbEntity
8
0
100
AcDbLine
10
43.000000000000007
20
-9
30
0
11
43.70000000000001
21
-9
31
0
0
LINE
5
321
100
AcDbEntity
8
0
100
AcDbLine
10
34.499999999993904
20
-57.500000169644743
30
0
11
32.5
21
-57.50000016964475
31
0
0
LINE
5
322
100
AcDbEntity
8
0
100
AcDbLine
10
55.499999999999872
20
-63.020815449825037
30
0
11
55.500000000000007
21
-36.500000000000007
31
0
0
LINE
5
323
100
AcDbEntity
8
0
100
AcDbLine
10
65
20
-26
30
0
11
65
21
-21.500000000000004
31
0
0
LINE
5
324
100
AcDbEntity
8
0
100
AcDbLine
10
73.52081528017132
20
-13.000000000000016
30
0
11
70
21
-12.999999999999993
31
0
0
ARC
5
325
100
AcDbEntity
8
0
100
AcDbCircle
10
33.799999999999997
20
-0.29999999999999877
30
0
40
0.29999999999999877
210
0
220
0
230
1
100
AcDbArc
50
90
51
180
0
LINE
5
326
100
AcDbEntity
8
0
100
AcDbLine
10
46.999999999999829
20
-59.500000169644792
30
0
11
45.999999999999375
21
-60.500000169644714
31
0
0
LINE
5
327
100
AcDbEntity
8
0
100
AcDbLine
10
43.999999999999382
20
-60.500000169644736
30
0
11
42.999999999999844
21
-59.500000169645233
31
0
0
LINE
5
328
100
AcDbEntity
8
0
100
AcDbLine
10
73.520815280171263
20
-26.000000000000014
30
0
11
65
21
-26
31
0
0
LINE
5
329
100
AcDbEntity
8
0
100
AcDbLine
10
65.999999999999446
20
-69.000000169644721
30
0
11
62.479184719831842
21
-69.000000169647933
31
0
0
LINE
5
330
100
AcDbEntity
8
0
100
AcDbLine
10
65
20
0
30
0
11
70
21
0
31
0
0
LINE
5
331
100
AcDbEntity
8
0
100
AcDbLine
10
70
20
-12.999999999999993
30
0
11
65
21
-12.999999999999998
31
0
0
ENDSEC
0
SECTION
2
OBJECTS
0
DICTIONARY
5
C
100
AcDbDictionary
3
ACAD_GROUP
350
D
3
ACAD_MLINESTYLE
350
17
0
DICTIONARY
5
D
100
AcDbDictionary
0
DICTIONARY
5
1A
330
C
100
AcDbDictionary
0
DICTIONARY
5
17
100
AcDbDictionary
0
ENDSEC
0
EOF
